<?xml version="1.0" encoding="UTF-8"?><svg id="Layer_1" xmlns="http://www.w3.org/2000/svg" viewBox="0 0 1000 1000"><defs><style>.cls-1{fill:#24b3c6;}</style></defs><rect class="cls-1" x="0" y="0" width="200" height="200" rx="99.9999" ry="99.9999"/><rect x="50" y="50" width="100" height="100" rx="49.99995" ry="49.99995" transform="translate(200 0) rotate(90)"/><rect class="cls-1" x="0" y="800" width="200" height="200" rx="99.9999" ry="99.9999"/><rect x="50" y="850" width="100" height="100" rx="49.99995" ry="49.99995" transform="translate(1000 800) rotate(90)"/><rect class="cls-1" x="800" y="0" width="200" height="200" rx="99.9999" ry="99.9999"/><rect x="850" y="50" width="100" height="100" rx="49.99995" ry="49.99995" transform="translate(1000 -800) rotate(90)"/><rect class="cls-1" x="800" y="800" width="200" height="200" rx="99.9999" ry="99.9999"/><rect x="850" y="850" width="100" height="100" rx="49.99995" ry="49.99995" transform="translate(1800 0) rotate(90)"/></svg>