<?xml version="1.0" encoding="UTF-8"?><svg id="Layer_1" xmlns="http://www.w3.org/2000/svg" viewBox="0 0 50 50"><polygon points="0 25.62305 4.03168 29.28345 8.06329 25.62305 8.06329 25.62305 12.09497 21.96265 12.09497 21.96265 16.12665 18.30225 20.15833 14.64172 20.15833 14.6416 24.19 10.9812 24.19 3.6604 24.18994 3.6604 20.15833 0 16.12665 3.6604 16.12665 3.6604 12.09497 7.3208 8.06329 3.6604 4.03168 0 0 3.6604 0 10.98132 4.03168 14.64172 0 18.30225 0 25.62305"/><polygon points="50 3.6604 49.99994 3.6604 45.96832 0 41.93665 3.6604 41.93665 3.6604 37.90497 7.3208 33.87329 3.6604 29.84167 0 25.81 3.6604 25.81 10.98132 29.84167 14.64172 25.81 18.30225 25.81 25.62305 29.84167 29.28345 33.87329 25.62305 33.87329 25.62305 37.90497 21.96265 37.90497 21.96265 41.93665 18.30225 45.96832 14.64172 45.96832 14.6416 50 10.9812 50 3.6604"/><polygon points="50 24.37695 45.96832 20.71655 41.93671 24.37695 41.93671 24.37695 37.90503 28.03735 37.90503 28.03735 33.87335 31.69775 29.84167 35.35828 29.84167 35.3584 25.81 39.0188 25.81 46.3396 25.81006 46.3396 29.84167 50 33.87335 46.3396 33.87335 46.3396 37.90503 42.6792 41.93671 46.3396 45.96832 50 50 46.3396 50 39.01868 45.96832 35.35828 50 31.69775 50 24.37695"/><polygon points="0 46.3396 .00006 46.3396 4.03168 50 8.06335 46.3396 8.06335 46.3396 12.09503 42.6792 16.12671 46.3396 20.15833 50 24.19 46.3396 24.19 39.01868 20.15833 35.35828 24.19 31.69775 24.19 24.37695 20.15833 20.71655 16.12671 24.37695 16.12671 24.37695 12.09503 28.03735 12.09503 28.03735 8.06335 31.69775 4.03168 35.35828 4.03168 35.3584 0 39.0188 0 46.3396"/></svg>