<?xml version="1.0" encoding="UTF-8"?><svg id="Layer_1" xmlns="http://www.w3.org/2000/svg" viewBox="0 0 50 50"><path d="m35,0c-3.84729,0-7.34485,1.46069-10,3.84204-2.65515-2.38135-6.15271-3.84204-10-3.84204C6.7157,0,0,6.7157,0,15c0,3.84729,1.46075,7.34485,3.84204,10-2.38129,2.65515-3.84204,6.15271-3.84204,10,0,8.2843,6.7157,15,15,15,3.84729,0,7.34485-1.46069,10-3.84204,2.65515,2.38135,6.15271,3.84204,10,3.84204,8.28424,0,15-6.7157,15-15,0-3.84729-1.46082-7.34485-3.8421-10,2.38129-2.65515,3.8421-6.15271,3.8421-10,0-8.2843-6.71576-15-15-15Zm-12.28308,44.64551l-1.24774-1.24768c-3.57257-3.57263-9.36487-3.57263-12.9375,0l-1.21301,1.21301c-.51471.51477-1.35321.57666-1.89929.09534-.59644-.52563-.61798-1.43628-.06451-1.98962l1.24774-1.2478c3.57257-3.57263,3.57257-9.36487,0-12.9375l-1.21307-1.21313c-.31445-.31433-.43622-.74683-.39209-1.16248,2.65546,2.38269,6.15399,3.84436,10.00256,3.84436,2.3302,0,4.52747-.54675,6.49487-1.49487-.94812,1.96741-1.49487,4.16467-1.49487,6.49487,0,3.85388,1.46582,7.35681,3.85437,10.01355-.40515.05237-.82617-.05676-1.13745-.36804Zm-2.71692-29.64551c0,2.3302.54675,4.52747,1.49487,6.49487-1.96741-.94812-4.16467-1.49487-6.49487-1.49487-3.8537,0-7.35638,1.4657-10.01312,3.854-.05249-.40527.0567-.82629.36798-1.13745l1.24774-1.2478c3.57257-3.57263,3.57257-9.36487,0-12.9375l-1.21307-1.21313c-.51471-.51465-.57648-1.35303-.09528-1.89917.52563-.59644,1.43628-.61792,1.98969-.06458l1.24774,1.2478c3.57263,3.57263,9.36493,3.57263,12.9375,0l1.24774-1.24768c.31128-.31128.73236-.42053,1.13751-.36816-2.38855,2.65674-3.85443,6.15979-3.85443,10.01367Zm24.7066,29.58105c-.52563.59644-1.43622.61792-1.98969.06445l-1.24774-1.24768c-3.57257-3.57263-9.36487-3.57263-12.9375,0l-1.21301,1.21301c-.31464.3147-.74756.43652-1.16345.39209,2.38287-2.65552,3.84479-6.15417,3.84479-10.00293,0-2.3302-.54675-4.52747-1.49487-6.49487,1.96741.94812,4.16467,1.49487,6.49487,1.49487,3.84894,0,7.34778-1.46204,10.00336-3.84521.04437.41602-.07739.84875-.39197,1.16333l-1.21307,1.21313c-3.57257,3.57263-3.57257,9.36487,0,12.9375l1.21307,1.21301c.51465.51477.57648,1.35327.09521,1.89929Zm-.09521-37.26294l-1.21307,1.21313c-3.57257,3.57263-3.57257,9.36487,0,12.9375l1.21307,1.21301c.31458.31458.43634.74756.39197,1.16345-2.65558-2.38318-6.15442-3.84521-10.00336-3.84521-2.3302,0-4.52747.54675-6.49487,1.49487.94812-1.96741,1.49487-4.16467,1.49487-6.49487,0-3.85376-1.46582-7.35669-3.85431-10.01343.4054-.05273.82678.0564,1.13824.3678l1.24774,1.2478c3.57263,3.57263,9.36493,3.57263,12.9375,0l1.24774-1.24768c.55347-.55347,1.46405-.53198,1.98969.06445.48126.54602.41943,1.38452-.09521,1.89917Z"/></svg>