<?xml version="1.0" encoding="UTF-8"?><svg id="Layer_1" xmlns="http://www.w3.org/2000/svg" viewBox="0 0 50 50"><rect x="37.73584" width="12.26416" height="12.26416" rx="2.72009" ry="2.72009"/><path d="m50,40.45593c0-1.49988-1.21979-2.72009-2.7196-2.72009l-6.84424.03223-2.22864-2.22858v-2.15906c0-1.49982-1.21973-2.72009-2.7196-2.72009h-2.10791c-1.49982,0-2.7196,1.22028-2.7196,2.72009v2.10699c0,1.49988,1.21979,2.72009,2.7196,2.72009l2.12726-.03223,2.22858,2.18298v6.92163c0,1.49982,1.21979,2.72009,2.71967,2.72009h6.82489c1.49982,0,2.7196-1.22028,2.7196-2.72009v-6.82397Z"/><path d="m50,21.58801c0-1.49988-1.21979-2.72009-2.7196-2.72009l-6.48865.03082-2.58423-2.47363v-1.9126c0-1.49982-1.21973-2.72009-2.7196-2.72009l-1.95129.03137-2.40454-2.29956V2.72009c0-1.49988-1.21979-2.72009-2.71967-2.72009h-6.82483c-1.49988,0-2.71967,1.22021-2.71967,2.72009v6.82397c0,1.49982,1.21979,2.72009,2.71967,2.72009l6.96582-.03137,2.10699,2.00891v2.37781c0,1.49988,1.21979,2.72009,2.7196,2.72009l2.42853-.03131,1.92731,1.83429v7.26941c0,1.49982,1.21979,2.72009,2.71967,2.72009h6.82489c1.49982,0,2.7196-1.22028,2.7196-2.72009v-6.82397Z"/><rect y="37.73584" width="12.26416" height="12.26416" rx="2.72009" ry="2.72009"/><path d="m2.7196,12.26416l6.84424-.03229,2.22864,2.22864v2.159c0,1.49988,1.21973,2.72009,2.7196,2.72009h2.10791c1.49982,0,2.7196-1.22021,2.7196-2.72009v-2.10699c0-1.49982-1.21979-2.72009-2.7196-2.72009l-2.12726.03229-2.22858-2.18298V2.72009c0-1.49988-1.21979-2.72009-2.71967-2.72009H2.7196C1.21979,0,0,1.22021,0,2.72009v6.82397c0,1.49982,1.21979,2.72009,2.7196,2.72009Z"/><path d="m2.7196,31.13208l6.48865-.03088,2.58423,2.47363v1.9126c0,1.49988,1.21973,2.72009,2.7196,2.72009l1.95129-.03131,2.40454,2.2995v6.8042c0,1.49982,1.21979,2.72009,2.71967,2.72009h6.82483c1.49988,0,2.71967-1.22028,2.71967-2.72009v-6.82397c0-1.49988-1.21979-2.72009-2.71967-2.72009l-6.96582.03131-2.10699-2.00885v-2.37787c0-1.49982-1.21979-2.72009-2.7196-2.72009l-2.42853.03137-1.92731-1.83429v-7.26941c0-1.49988-1.21979-2.72009-2.71967-2.72009H2.7196c-1.49982,0-2.7196,1.22021-2.7196,2.72009v6.82397c0,1.49982,1.21979,2.72009,2.7196,2.72009Z"/><rect x="18.86792" y="18.86792" width="12.26416" height="12.26416" rx="4.02509" ry="4.02509"/></svg>