<?xml version="1.0" encoding="UTF-8"?><svg id="Layer_1" xmlns="http://www.w3.org/2000/svg" viewBox="0 0 50 50"><path d="m1.11102,20h2.22198c.61359,0,1.11102-.49744,1.11102-1.11102s.49738-1.11102,1.11096-1.11102h4.44531c.61359,0,1.11102-.49738,1.11102-1.11096v-2.22266c0-.61359.49744-1.11102,1.11102-1.11102h6.66663c.61359,0,1.11102-.49744,1.11102-1.11102V1.11096c0-.61359-.49744-1.11096-1.11102-1.11096H7.77765c-.61359,0-1.11096.49738-1.11096,1.11096v6.66669c0,.61359-.49744,1.11102-1.11102,1.11102h-2.22266c-.61359,0-1.11102.49738-1.11102,1.11096v4.44531c0,.61359-.49738,1.11102-1.11096,1.11102s-1.11102.49744-1.11102,1.11102v2.22198c0,.61359.49744,1.11102,1.11102,1.11102Z"/><path d="m1.11102,50h11.11133c.61359,0,1.11096-.49744,1.11096-1.11102v-6.66669c0-.61359.49744-1.11096,1.11102-1.11096h2.22266c.61359,0,1.11102-.49744,1.11102-1.11102v-4.44531c0-.61359.49738-1.11102,1.11096-1.11102s1.11102-.49738,1.11102-1.11096v-2.22205c0-.61359-.49744-1.11096-1.11102-1.11096h-2.22198c-.61359,0-1.11102.49738-1.11102,1.11096s-.49738,1.11102-1.11096,1.11102h-4.44531c-.61359,0-1.11102.49744-1.11102,1.11102v2.22266c0,.61359-.49744,1.11096-1.11102,1.11096H1.11102c-.61359,0-1.11102.49744-1.11102,1.11102v11.11133c0,.61359.49744,1.11102,1.11102,1.11102Z"/><path d="m37.77765,0c-.61359,0-1.11096.49738-1.11096,1.11096v6.66669c0,.61359-.49744,1.11102-1.11102,1.11102h-2.22266c-.61359,0-1.11102.49738-1.11102,1.11096v4.44531c0,.61359-.49738,1.11102-1.11096,1.11102s-1.11102.49744-1.11102,1.11102v2.22198c0,.61359.49744,1.11102,1.11102,1.11102h2.22198c.61359,0,1.11102-.49744,1.11102-1.11102s.49738-1.11102,1.11096-1.11102h4.44531c.61359,0,1.11102-.49738,1.11102-1.11096v-2.22266c0-.61359.49744-1.11102,1.11102-1.11102h6.66663c.61359,0,1.11102-.49744,1.11102-1.11102V1.11096c0-.61359-.49744-1.11096-1.11102-1.11096h-11.11133Z"/><path d="m31.11102,50h11.11133c.61359,0,1.11096-.49744,1.11096-1.11102v-6.66669c0-.61359.49744-1.11096,1.11102-1.11096h2.22266c.61359,0,1.11102-.49744,1.11102-1.11102v-4.44531c0-.61359.49738-1.11102,1.11096-1.11102s1.11102-.49738,1.11102-1.11096v-2.22205c0-.61359-.49744-1.11096-1.11102-1.11096h-2.22198c-.61359,0-1.11102.49738-1.11102,1.11096s-.49738,1.11102-1.11096,1.11102h-4.44531c-.61359,0-1.11102.49744-1.11102,1.11102v2.22266c0,.61359-.49744,1.11096-1.11102,1.11096h-6.66663c-.61359,0-1.11102.49744-1.11102,1.11102v11.11133c0,.61359.49744,1.11102,1.11102,1.11102Z"/></svg>