<?xml version="1.0" encoding="UTF-8"?><svg id="Layer_1" xmlns="http://www.w3.org/2000/svg" viewBox="0 0 50 50"><path d="m.89728,14.64728l6.35388,6.35388c1.92993,1.92993,5.22986.56305,5.22986-2.16626v-3.29028c0-1.69202,1.37164-3.0636,3.0636-3.0636h3.29028c2.72937,0,4.09619-3.29993,2.16626-5.22986L14.64728.89728c-1.19635-1.19641-3.13611-1.19641-4.33252,0L.89728,10.31476c-1.19635,1.19635-1.19635,3.13611,0,4.33252Z"/><path d="m39.68524.89728c-1.19641-1.19641-3.13617-1.19641-4.33252,0l-6.35388,6.35388c-1.92993,1.92993-.56311,5.22986,2.16626,5.22986h3.29028c1.69196,0,3.0636,1.37158,3.0636,3.0636v3.29028c0,2.72931,3.29993,4.09619,5.22986,2.16626l6.35388-6.35388c1.19635-1.19641,1.19635-3.13617,0-4.33252L39.68524.89728Z"/><path d="m.89728,39.68524l9.41748,9.41742c1.19641,1.19641,3.13617,1.19641,4.33252,0l6.35388-6.35382c1.92993-1.92999.56311-5.22986-2.16626-5.22986h-3.29028c-1.69196,0-3.0636-1.37164-3.0636-3.0636v-3.29028c0-2.72937-3.29993-4.09625-5.22986-2.16626l-6.35388,6.35382c-1.19635,1.19641-1.19635,3.13617,0,4.33258Z"/><path d="m42.74884,28.99884c-1.92993-1.92999-5.22986-.56311-5.22986,2.16626v3.29028c0,1.69196-1.37164,3.0636-3.0636,3.0636h-3.29028c-2.72937,0-4.09619,3.29987-2.16626,5.22986l6.35388,6.35382c1.19635,1.19641,3.13611,1.19641,4.33252,0l9.41748-9.41742c1.19635-1.19641,1.19635-3.13617,0-4.33258l-6.35388-6.35382Z"/></svg>