<?xml version="1.0" encoding="UTF-8"?><svg id="Layer_1" xmlns="http://www.w3.org/2000/svg" viewBox="0 0 50 50"><path d="m0,5.0542c0,.27094.21924.49017.49017.49017h15.828l5.99341,10.27209c.08997.15509.25464.24316.42316.24316.07275,0,.14746-.01624.21637-.05072.23077-.11298.33514-.38586.23749-.62427L17.05347.30542c-.07471-.18481-.2547-.30542-.4538-.30542H.49017c-.27094,0-.49017.21924-.49017.49017v4.56403Z"/><path d="m0,15.37799c0,.27094.21924.49017.49017.49017h15.96301l6.01251,3.95508c.08234.05359.17621.08044.26904.08044.12927,0,.25757-.0517.35333-.15033.1637-.16949.18286-.43274.0459-.62421l-6.13507-8.59955c-.09192-.12921-.24127-.20581-.39923-.20581H.49017c-.27094,0-.49017.21924-.49017.49017v4.56403Z"/><path d="m22.98749,22.69452l-6.13507-3.70038c-.07562-.04694-.16376-.07086-.25275-.07086H.49017c-.2403,0-.44519.17426-.48346.41168-.03925.23743.10052.4682.32837.54382l11.12231,3.70038c.04974.0163.10242.0249.15509.0249h11.12225c.22021,0,.41364-.14648.47205-.35901.05933-.21161-.03064-.43756-.2193-.55054Z"/><path d="m0,49.50977c0,.271.21924.49023.49017.49023h16.1095c.1991,0,.37909-.12061.4538-.30542l6.13513-15.07928c.09766-.2384-.00671-.51123-.23749-.62421-.22882-.11493-.51025-.02972-.63953.19238l-5.99341,10.27209H.49017c-.27094,0-.49017.21924-.49017.49023v4.56396Z"/><path d="m0,39.18604c0,.27087.21924.49023.49017.49023h16.1095c.15796,0,.30731-.07666.39923-.20593l6.13507-8.59949c.13696-.19147.1178-.45477-.0459-.62421-.16473-.16949-.42511-.19824-.62238-.06995l-6.01251,3.95508H.49017c-.27094,0-.49017.2193-.49017.49023v4.56403Z"/><path d="m22.73474,26.39587h-11.12225c-.05267,0-.10535.00867-.15509.0249L.33508,30.12122c-.22784.07562-.36761.30634-.32837.54376.03827.23749.24316.41174.48346.41174h16.1095c.08899,0,.17712-.02399.25275-.07086l6.13507-3.70044c.18866-.11298.27863-.33893.2193-.55048-.05841-.21259-.25183-.35907-.47205-.35907Z"/><path d="m49.50983,0h-16.1095c-.1991,0-.37909.12061-.4538.30542l-6.13513,15.07922c-.09766.2384.00671.51129.23749.62427.06891.03448.14362.05072.21637.05072.16852,0,.33319-.08807.42316-.24316l5.99341-10.27209h15.828c.27094,0,.49017-.21924.49017-.49017V.49017c0-.27094-.21924-.49017-.49017-.49017Z"/><path d="m49.50983,10.32379h-16.1095c-.15796,0-.30731.0766-.39923.20581l-6.13507,8.59955c-.13696.19147-.1178.45471.0459.62421.09576.09863.22406.15033.35333.15033.09283,0,.18671-.02686.26904-.08044l6.01251-3.95508h15.96301c.27094,0,.49017-.21924.49017-.49017v-4.56403c0-.27094-.21924-.49017-.49017-.49017Z"/><path d="m27.26526,23.60406h11.12225c.05267,0,.10535-.00861.15509-.0249l11.12231-3.70038c.22784-.07562.36761-.3064.32837-.54382-.03827-.23743-.24316-.41168-.48346-.41168h-16.1095c-.08899,0-.17712.02393-.25275.07086l-6.13507,3.70038c-.18866.11298-.27863.33893-.2193.55054.05841.21252.25183.35901.47205.35901Z"/><path d="m49.50983,44.45557h-15.828l-5.99341-10.27209c-.12927-.22211-.41266-.30823-.63953-.19238-.23077.11298-.33514.3858-.23749.62421l6.13513,15.07928c.07471.18481.2547.30542.4538.30542h16.1095c.27094,0,.49017-.21924.49017-.49023v-4.56396c0-.271-.21924-.49023-.49017-.49023Z"/><path d="m49.50983,34.13177h-15.96301l-6.01251-3.95508c-.19727-.1283-.45862-.09955-.62238.06995-.1637.16943-.18286.43274-.0459.62421l6.13507,8.59949c.09192.12927.24127.20593.39923.20593h16.1095c.27094,0,.49017-.21936.49017-.49023v-4.56403c0-.27094-.21924-.49023-.49017-.49023Z"/><path d="m27.01251,27.30542l6.13507,3.70044c.07562.04688.16376.07086.25275.07086h16.1095c.2403,0,.44519-.17426.48346-.41174.03925-.23743-.10052-.46814-.32837-.54376l-11.12231-3.70044c-.04974-.01624-.10242-.0249-.15509-.0249h-11.12225c-.22021,0-.41364.14648-.47205.35907-.05933.21155.03064.4375.2193.55048Z"/></svg>