<?xml version="1.0" encoding="UTF-8"?><svg id="Layer_1" xmlns="http://www.w3.org/2000/svg" viewBox="0 0 50 50"><path d="m45,0h-10c-2.76141,0-5,2.23853-5,5v9.3938c0,1.32605-.52679,2.5979-1.46448,3.53552-1.95264,1.95251-5.11841,1.95251-7.07104,0-.93768-.93762-1.46448-2.20947-1.46448-3.53552V5c0-2.76147-2.23859-5-5-5H5C2.23859,0,0,2.23853,0,5v10c0,2.76147,2.23859,5,5,5h9.3938c1.32605,0,2.59784.52686,3.53552,1.46448,1.95264,1.95251,1.95264,5.11841,0,7.07104-.93768.93762-2.20947,1.46448-3.53552,1.46448H5c-2.76141,0-5,2.23853-5,5v10c0,2.76147,2.23859,5,5,5h10c2.76141,0,5-2.23853,5-5v-9.3938c0-1.32605.52679-2.5979,1.46448-3.53552,1.95264-1.95264,5.11841-1.95264,7.07104,0,.93768.93762,1.46448,2.20947,1.46448,3.53552v9.3938c0,2.76147,2.23859,5,5,5h10c2.76141,0,5-2.23853,5-5v-10c0-2.76147-2.23859-5-5-5h-9.3938c-1.32605,0-2.59784-.52686-3.53552-1.46448-1.95264-1.95264-1.95264-5.11853,0-7.07104.93768-.93762,2.20947-1.46448,3.53552-1.46448h9.3938c2.76141,0,5-2.23853,5-5V5c0-2.76147-2.23859-5-5-5Z"/></svg>