<?xml version="1.0" encoding="UTF-8"?><svg id="Layer_1" xmlns="http://www.w3.org/2000/svg" viewBox="0 0 50 50"><path d="m35.85785,0l-5.85785,5.85791v5.01392c-1.56598-.55444-3.24402-.87183-5-.87183s-3.43402.31738-5,.87183v-5.01392L14.14215,0H5.85785L0,5.85791v8.28418l5.85785,5.85791h5.01398c-.55444,1.56592-.87183,3.24402-.87183,5s.31738,3.43396.87183,5h-5.01398l-5.85785,5.85791v8.28418l5.85785,5.85791h8.2843l5.85785-5.85791v-5.01392c1.56598.55444,3.24402.87183,5,.87183s3.43402-.31738,5-.87183v5.01392l5.85785,5.85791h8.2843l5.85785-5.85791v-8.28418l-5.85785-5.85791h-5.01398c.55444-1.56604.87183-3.24402.87183-5s-.31738-3.43408-.87183-5h5.01398l5.85785-5.85791V5.85791l-5.85785-5.85791h-8.2843Zm-5.85785,27.61279c0,1.31836-1.06879,2.38721-2.38727,2.38721h-5.22546c-1.31848,0-2.38727-1.06885-2.38727-2.38721v-5.22559c0-1.31836,1.06879-2.38721,2.38727-2.38721h5.22546c1.31848,0,2.38727,1.06885,2.38727,2.38721v5.22559Z"/></svg>