<?xml version="1.0" encoding="UTF-8"?><svg id="Layer_1" xmlns="http://www.w3.org/2000/svg" viewBox="0 0 50 50"><path d="m46.99872,0h-8.1806c-.81775,0-1.60199.32483-2.18024.90308l-10.7348,10.73486c-.57819.57812-.90308,1.36243-.90308,2.18018v8.0166c0,1.70288-1.38043,3.08325-3.08331,3.08325h-6.37433c-1.70288,0-3.08331-1.38037-3.08331-3.08325v-6.21045c0-1.70288,1.38043-3.08325,3.08331-3.08325h2.01385c2.74695,0,4.12262-3.32129,2.18024-5.26367L13.36212.90308c-.57825-.57825-1.36249-.90308-2.18024-.90308H3.00128C1.2984,0-.08203,1.38037-.08203,3.08325v8.18054c0,.81775.32483,1.60205.90308,2.1803l9.37573,9.37573c1.2041,1.2041,1.2041,3.15625,0,4.36035L.82104,36.55591c-.57825.57825-.90308,1.36255-.90308,2.1803v8.18054c0,1.70288,1.38043,3.08325,3.08331,3.08325h8.1806c.81775,0,1.60199-.32495,2.18024-.90308l10.7348-10.73486c.57825-.57812.90308-1.36243.90308-2.18018v-8.0166c0-1.70288,1.38043-3.08325,3.08331-3.08325h6.37433c1.70288,0,3.08331,1.38037,3.08331,3.08325v6.21045c0,1.70288-1.38043,3.08325-3.08331,3.08325h-2.01385c-2.74695,0-4.12262,3.32129-2.18024,5.26367l6.37433,6.37427c.57825.57812,1.36249.90308,2.18024.90308h8.1806c1.70288,0,3.08331-1.38037,3.08331-3.08325v-8.18054c0-.81775-.32483-1.60205-.90308-2.1803l-9.37573-9.37573c-1.2041-1.2041-1.2041-3.15625,0-4.36035l9.37573-9.37573c.57825-.57825.90308-1.36255.90308-2.1803V3.08325c0-1.70288-1.38043-3.08325-3.08331-3.08325Z"/></svg>