<?xml version="1.0" encoding="UTF-8"?><svg id="Layer_1" xmlns="http://www.w3.org/2000/svg" viewBox="0 0 50 50"><path d="m50,.49023c0-.271-.21924-.49023-.49017-.49023h-4.56403c-.27094,0-.49017.21924-.49017.49023v15.82788l-10.27209,5.99341c-.15509.09009-.24323.25464-.24323.42322,0,.07275.0163.14746.05078.21643.11298.23071.3858.33496.62421.2373l15.07928-6.13501c.18481-.07471.30542-.25464.30542-.45386V.49023Z"/><path d="m39.67621,16.59961V.49023c0-.271-.21924-.49023-.49017-.49023h-4.56403c-.27094,0-.49017.21924-.49017.49023v15.96289l-3.95508,6.01257c-.05365.0824-.08044.17615-.08044.26904,0,.12927.0517.25757.15033.35327.16943.1637.43274.18286.62421.04602l8.59949-6.13513c.12927-.09192.20587-.24133.20587-.39929Z"/><path d="m26.75494,23.20679c.21161.05933.43756-.03076.55054-.21924l3.70038-6.13513c.04694-.07568.07086-.1637.07086-.25281V.49023c0-.24036-.17426-.44531-.41168-.48352-.23749-.03931-.4682.10046-.54382.32837l-3.70044,11.12219c-.01624.0498-.02484.10254-.02484.15527v11.12219c0,.22021.14648.41357.35901.47205Z"/><path d="m0,16.59961c0,.19922.12061.37915.30542.45386l15.07928,6.13501c.2384.09766.51123-.00659.62421-.2373.11493-.22888.02966-.51038-.19244-.63965l-10.27209-5.99341V.49023c0-.271-.21924-.49023-.49017-.49023H.49017c-.27094,0-.49017.21924-.49017.49023v16.10938Z"/><path d="m15.37799,0h-4.56403c-.27094,0-.49017.21924-.49017.49023v16.10938c0,.15796.0766.30737.20587.39929l8.59949,6.13513c.19147.13684.45477.11768.62421-.04602.16949-.16467.19818-.42505.06989-.62231l-3.95508-6.01257V.49023c0-.271-.21924-.49023-.49017-.49023Z"/><path d="m23.60406,11.61255c0-.05273-.00861-.10547-.02484-.15527L19.87878.33508c-.07562-.22791-.30634-.36768-.54382-.32837-.23743.03821-.41168.24316-.41168.48352v16.10938c0,.08911.02393.17712.07086.25281l3.70038,6.13513c.11298.18848.33893.27856.55054.21924.21252-.05847.35901-.25183.35901-.47205v-11.12219Z"/><path d="m50,33.40039c0-.19922-.12061-.37915-.30542-.45386l-15.07928-6.13513c-.2384-.09766-.51123.00671-.62421.23743-.03448.06897-.05078.14355-.05078.21631,0,.16858.08813.33325.24323.42334l10.27209,5.99341v15.82788c0,.271.21924.49023.49017.49023h4.56403c.27094,0,.49017-.21924.49017-.49023v-16.10938Z"/><path d="m34.62201,50h4.56403c.27094,0,.49017-.21924.49017-.49023v-16.10938c0-.15796-.0766-.30737-.20587-.39929l-8.59949-6.13513c-.19147-.13696-.45477-.11768-.62421.0459-.09863.09583-.15033.22412-.15033.35327,0,.09302.02679.18677.08044.26904l3.95508,6.0127v15.96289c0,.271.21924.49023.49017.49023Z"/><path d="m26.39594,38.38745c0,.05273.00861.10535.02484.15515l3.70044,11.12231c.07562.22791.30634.36755.54382.32837.23743-.03833.41168-.24316.41168-.48352v-16.10938c0-.08911-.02393-.17725-.07086-.25281l-3.70038-6.13513c-.11298-.1886-.33893-.27856-.55054-.21924-.21252.05835-.35901.25183-.35901.47192v11.12231Z"/><path d="m0,49.50977c0,.271.21924.49023.49017.49023h4.56403c.27094,0,.49017-.21924.49017-.49023v-15.82788l10.27209-5.99341c.22211-.12939.30829-.41272.19244-.63965-.11298-.23071-.3858-.33508-.62421-.23743L.30542,32.94653c-.18481.07471-.30542.25464-.30542.45386v16.10938Z"/><path d="m10.32379,33.40039v16.10938c0,.271.21924.49023.49017.49023h4.56403c.27094,0,.49017-.21924.49017-.49023v-15.96289l3.95508-6.0127c.1283-.19714.09961-.4585-.06989-.62231-.16943-.16357-.43274-.18286-.62421-.0459l-8.59949,6.13513c-.12927.09192-.20587.24133-.20587.39929Z"/><path d="m19.33496,49.99329c.23749.03918.4682-.10046.54382-.32837l3.70044-11.12231c.01624-.0498.02484-.10242.02484-.15515v-11.12231c0-.22009-.14648-.41357-.35901-.47192-.21161-.05933-.43756.03064-.55054.21924l-3.70038,6.13513c-.04694.07556-.07086.1637-.07086.25281v16.10938c0,.24036.17426.44519.41168.48352Z"/></svg>