<?xml version="1.0" encoding="UTF-8"?><svg id="Layer_1" xmlns="http://www.w3.org/2000/svg" viewBox="0 0 50 50"><path d="m5,0C2.23859,0,0,2.23859,0,5s2.23859,5,5,5l5-5C10,2.23859,7.76141,0,5,0Z"/><path d="m15,10l5-5c0-2.76141-2.23859-5-5-5s-5,2.23859-5,5,2.23859,5,5,5Z"/><path d="m25,10l5-5c0-2.76141-2.23859-5-5-5s-5,2.23859-5,5,2.23859,5,5,5Z"/><path d="m35,10l5-5c0-2.76141-2.23859-5-5-5s-5,2.23859-5,5,2.23859,5,5,5Z"/><path d="m45,10l5-5c0-2.76141-2.23859-5-5-5s-5,2.23859-5,5,2.23859,5,5,5Z"/><path d="m45,20c2.76141,0,5-2.23859,5-5s-2.23859-5-5-5l-5,5c0,2.76141,2.23859,5,5,5Z"/><path d="m35,20c2.76141,0,5-2.23859,5-5s-2.23859-5-5-5l-5,5c0,2.76141,2.23859,5,5,5Z"/><path d="m25,20c2.76141,0,5-2.23859,5-5s-2.23859-5-5-5l-5,5c0,2.76141,2.23859,5,5,5Z"/><path d="m20,15c0-2.76141-2.23859-5-5-5l-5,5c0,2.76141,2.23859,5,5,5s5-2.23859,5-5Z"/><path d="m10,15c0-2.76141-2.23859-5-5-5L0,15c0,2.76141,2.23859,5,5,5s5-2.23859,5-5Z"/><path d="m5,20c-2.76141,0-5,2.23859-5,5s2.23859,5,5,5l5-5c0-2.76141-2.23859-5-5-5Z"/><path d="m15,20c-2.76141,0-5,2.23859-5,5s2.23859,5,5,5l5-5c0-2.76141-2.23859-5-5-5Z"/><path d="m25,20c-2.76141,0-5,2.23859-5,5s2.23859,5,5,5l5-5c0-2.76141-2.23859-5-5-5Z"/><path d="m30,25c0,2.76141,2.23859,5,5,5l5-5c0-2.76141-2.23859-5-5-5s-5,2.23859-5,5Z"/><path d="m40,25c0,2.76141,2.23859,5,5,5l5-5c0-2.76141-2.23859-5-5-5s-5,2.23859-5,5Z"/><path d="m0,45c0,2.76141,2.23859,5,5,5l5-5c0-2.76141-2.23859-5-5-5s-5,2.23859-5,5Z"/><path d="m15,40c-2.76141,0-5,2.23859-5,5s2.23859,5,5,5l5-5c0-2.76141-2.23859-5-5-5Z"/><path d="m25,40c-2.76141,0-5,2.23859-5,5s2.23859,5,5,5l5-5c0-2.76141-2.23859-5-5-5Z"/><path d="m35,40c-2.76141,0-5,2.23859-5,5s2.23859,5,5,5l5-5c0-2.76141-2.23859-5-5-5Z"/><path d="m40,45c0,2.76141,2.23859,5,5,5l5-5c0-2.76141-2.23859-5-5-5s-5,2.23859-5,5Z"/><path d="m45,40c2.76141,0,5-2.23859,5-5s-2.23859-5-5-5l-5,5c0,2.76141,2.23859,5,5,5Z"/><path d="m35,40c2.76141,0,5-2.23859,5-5s-2.23859-5-5-5l-5,5c0,2.76141,2.23859,5,5,5Z"/><path d="m25,30l-5,5c0,2.76141,2.23859,5,5,5s5-2.23859,5-5-2.23859-5-5-5Z"/><path d="m20,35c0-2.76141-2.23859-5-5-5l-5,5c0,2.76141,2.23859,5,5,5s5-2.23859,5-5Z"/><path d="m10,35c0-2.76141-2.23859-5-5-5l-5,5c0,2.76141,2.23859,5,5,5s5-2.23859,5-5Z"/></svg>