<?xml version="1.0" encoding="UTF-8"?><svg id="Layer_1" xmlns="http://www.w3.org/2000/svg" viewBox="0 0 50 50"><path d="m1.90479,50h8.58716c1.05194,0,1.90472-.85278,1.90472-1.90479v-8.24188c0-.50519.20068-.98969.55792-1.34686l4.47736-4.47748c.35724-.35724.84174-.55792,1.34692-.55792h2.04364c1.05194,0,1.90479-.85278,1.90479-1.90479v-2.38879c0-1.052-.85284-1.90479-1.90479-1.90479h-2.38879c-1.052,0-1.90479.85278-1.90479,1.90479v2.04364c0,.50519-.20068.98969-.55792,1.34686l-4.47736,4.47742c-.35724.35718-.84167.55786-1.34686.55786H1.90479c-1.052,0-1.90479.85284-1.90479,1.90479v8.58716c0,1.052.85278,1.90479,1.90479,1.90479Z"/><path d="m1.90479,6.1983h2.04364c.50519,0,.98969.20068,1.34686.55792l4.47742,4.47736c.35718.35724.55786.84174.55786,1.34686v8.24207c0,1.05194.85278,1.90472,1.90479,1.90472h8.58716c1.05194,0,1.90479-.85278,1.90479-1.90479v-8.5871c0-1.052-.85284-1.90479-1.90479-1.90479h-8.24188c-.50519,0-.98969-.20068-1.34686-.55786l-4.47754-4.47742c-.35718-.35724-.55786-.84167-.55786-1.34686V1.90472c0-1.05194-.85284-1.90472-1.90479-1.90472H1.90479C.85278,0,0,.85278,0,1.90479v2.38879c0,1.05194.85278,1.90472,1.90479,1.90472Z"/><path d="m29.17749,16.52893c-1.052,0-1.90479.85278-1.90479,1.90472v2.38885c0,1.05194.85278,1.90472,1.90479,1.90472h2.38879c1.052,0,1.90479-.85278,1.90479-1.90472v-2.0437c0-.50519.20068-.98962.55792-1.34686l4.47736-4.47736c.35718-.35724.84167-.55792,1.34686-.55792h8.242c1.052,0,1.90479-.85278,1.90479-1.90479V1.90479c0-1.052-.85278-1.90479-1.90479-1.90479h-8.58716c-1.05194,0-1.90479.85278-1.90479,1.90479v8.24188c0,.50513-.20062.98962-.55786,1.34686l-4.47736,4.47748c-.35724.35724-.84174.55792-1.34692.55792h-2.04364Z"/><path d="m45.70642,50h2.38879c1.052,0,1.90479-.85278,1.90479-1.90479v-2.38879c0-1.052-.85278-1.90479-1.90479-1.90479h-2.04364c-.50519,0-.98969-.20068-1.34686-.55786l-4.47742-4.47742c-.35718-.35718-.55786-.84167-.55786-1.34686v-8.242c0-1.052-.85284-1.90479-1.90479-1.90479h-8.58716c-1.052,0-1.90479.85284-1.90479,1.90479v8.58716c0,1.052.85278,1.90479,1.90479,1.90479h8.24188c.50519,0,.98969.20068,1.34686.55786l4.47748,4.47736c.35724.35724.55792.84174.55792,1.34692v2.04364c0,1.052.85284,1.90479,1.90479,1.90479Z"/></svg>