<?xml version="1.0" encoding="UTF-8"?><svg id="Layer_1" xmlns="http://www.w3.org/2000/svg" viewBox="0 0 50 50"><path d="m39.36725,19.68359c1.01288,0,1.98425-.40234,2.7005-1.11865l6.81366-6.8136c1.49146-1.49146,1.49146-3.90955,0-5.401l-5.23175-5.23169c-1.49146-1.49146-3.90955-1.49146-5.401,0l-6.81372,6.8136c-.71619.71619-1.11853,1.68762-1.11853,2.70056,0,2.28442-1.98621,4.01477-4.25928,3.78711-.34753-.03491-.7002-.05273-1.05713-.05273s-.70959.01782-1.05713.05273c-2.27307.22766-4.25928-1.50269-4.25928-3.78711,0-1.01294-.40234-1.98438-1.11853-2.70056L11.75134,1.11865c-1.49146-1.49146-3.90955-1.49146-5.401,0L1.11859,6.35034c-1.49146,1.49146-1.49146,3.90955,0,5.401l6.81366,6.8136c.71625.71631,1.68762,1.11865,2.7005,1.11865,2.28442,0,4.01489,1.98633,3.78717,4.25928-.03479.34766-.05267.7002-.05267,1.05713s.01788.70947.05267,1.05713c.22772,2.27295-1.50275,4.25928-3.78717,4.25928-1.01288,0-1.98425.40234-2.7005,1.11853l-6.81366,6.81372c-1.49146,1.49133-1.49146,3.90955,0,5.401l5.23175,5.23169c1.49146,1.49146,3.90955,1.49146,5.401,0l6.81372-6.81372c.71619-.71606,1.11853-1.6875,1.11853-2.70044h0c0-2.28442,1.98627-4.01489,4.25928-3.78711.3476.03479.7002.05273,1.05713.05273s.70953-.01794,1.05713-.05273c2.27301-.22778,4.25928,1.50269,4.25928,3.78711h0c0,1.01294.40234,1.98438,1.11853,2.70044l6.81372,6.81372c1.49146,1.49146,3.90955,1.49146,5.401,0l5.23175-5.23169c1.49146-1.49146,1.49146-3.90967,0-5.401l-6.81366-6.81372c-.71625-.71619-1.68762-1.11853-2.7005-1.11853-2.28442,0-4.01489-1.98633-3.78717-4.25928.03479-.34766.05267-.7002.05267-1.05713s-.01788-.70947-.05267-1.05713c-.22772-2.27295,1.50275-4.25928,3.78717-4.25928Z"/></svg>