<?xml version="1.0" encoding="UTF-8"?><svg id="Layer_1" xmlns="http://www.w3.org/2000/svg" viewBox="0 0 50 50"><path d="m17.66559,15.54388c2.32074.71814,4.7785,1.12189,7.33527,1.12189s5.01447-.40375,7.33527-1.12189c.59949-.18555.99805-.75519.99805-1.38275V1.45203C33.33417.64966,32.68365-.00085,31.88129-.00085h-13.76086c-.80243,0-1.45288.65051-1.45288,1.45288v12.70911c0,.62756.3985,1.1972.99805,1.38275Z"/><path d="m48.87885,17.66382c-.18549-.59955-.75519-.99805-1.38275-.99805h-12.70905c-.80243,0-1.45288.65051-1.45288,1.45288v13.76093c0,.80243.65045,1.45288,1.45288,1.45288h12.70905c.62756,0,1.19727-.3985,1.38275-.99805.7182-2.32074,1.12201-4.77856,1.12201-7.33527s-.40381-5.01453-1.12201-7.33533Z"/><path d="m15.21466,16.66577H2.50555c-.62756,0-1.19727.3985-1.38275.99805C.4046,19.98468.00085,22.44238.00085,24.99915s.40375,5.01447,1.12195,7.33527c.18549.59955.75513.99805,1.38275.99805h12.70911c.80237,0,1.45288-.65045,1.45288-1.45288v-13.76093c0-.80237-.65051-1.45288-1.45288-1.45288Z"/><path d="m16.66754,48.5462v.00006c0,.80243.65045,1.45288,1.45288,1.45288h13.76086c.80237,0,1.45288-.65045,1.45288-1.45288v-12.70905c0-.62762-.39856-1.19727-.99805-1.38281-2.3208-.71814-4.77856-1.12195-7.33527-1.12195s-5.01453.40381-7.33527,1.12195c-.59955.18555-.99805.75519-.99805,1.38281v12.70898Z"/><rect x="39.99915" y="-.00085" width="10.00171" height="10.00165" rx="1.45294" ry="1.45294"/><rect x="-.00079" y="-.00085" width="10.00165" height="10.00165" rx="1.45288" ry="1.45288"/><rect x="39.99915" y="39.99915" width="10.00171" height="10.00165" rx="1.45294" ry="1.45294"/><rect x="-.00079" y="39.99915" width="10.00165" height="10.00165" rx="1.45288" ry="1.45288"/></svg>