<?xml version="1.0" encoding="UTF-8"?>
<svg id="Layer_1" xmlns="http://www.w3.org/2000/svg" viewBox="0 0 50 50">
    <rect x="13.04932" y="3.89215" width="5.58612" height="5.58563" rx="1.82257" ry="1.82257" />
    <path
        d="m23.78772,3.4339h2.42499c1.12488,0,2.03815.91326,2.03815,2.03815v2.42584c0,1.12488-.91326,2.03815-2.03815,2.03815h-2.42499c-1.12512,0-2.03857-.91345-2.03857-2.03857v-2.42499c0-1.12512.91345-2.03857,2.03857-2.03857Z" />
    <rect x="31.36456" y="3.89215" width="5.58612" height="5.58563" rx="1.82306" ry="1.82306" />
    <rect x="9.15759" width="4.2124" height="4.21234" rx="1.79773" ry="1.79773" />
    <path
        d="m20.11249,0h.61737c.99219,0,1.79773.80554,1.79773,1.79773v.61688c0,.99219-.80554,1.79773-1.79773,1.79773h-.61737c-.99192,0-1.79724-.80532-1.79724-1.79724v-.61786c0-.99192.80532-1.79724,1.79724-1.79724Z" />
    <path
        d="m29.27014,0h.61737c.99192,0,1.79724.80532,1.79724,1.79724v.61737c0,.99219-.80554,1.79773-1.79773,1.79773h-.61688c-.99219,0-1.79773-.80554-1.79773-1.79773v-.61688c0-.99219.80554-1.79773,1.79773-1.79773Z" />
    <rect x="36.63" width="4.2124" height="4.21234" rx="1.79773" ry="1.79773" />
    <rect x="45.78766" width="4.21234" height="4.21234" rx="1.79773" ry="1.79773" />
    <rect x="40.63629" y="4.00623" width="5.35748" height="5.35748" rx="1.76904" ry="1.76904" />
    <rect x="40.52216" y="13.04932" width="5.58569" height="5.58612" rx="1.82306" ry="1.82306" />
    <path
        d="m42.10205,21.74915h2.42542c1.12512,0,2.03857.91345,2.03857,2.03857v2.42493c0,1.12488-.91326,2.03815-2.03815,2.03815h-2.42578c-1.12488,0-2.03815-.91326-2.03815-2.03815v-2.42542c0-1.12485.91324-2.03809,2.03809-2.03809Z" />
    <rect x="40.52216" y="31.36456" width="5.58569" height="5.58612" rx="1.82306" ry="1.82306" />
    <rect x="45.78766" y="9.15759" width="4.21234" height="4.2124" rx="1.79773" ry="1.79773" />
    <path
        d="m47.5849,18.31525h.61743c.99216,0,1.79767.80551,1.79767,1.79767v.61694c0,.99219-.80554,1.79773-1.79773,1.79773h-.61688c-.99219,0-1.79773-.80554-1.79773-1.79773v-.61737c0-.99192.80532-1.79724,1.79724-1.79724Z" />
    <path
        d="m47.58539,27.47235h.61694c.99216,0,1.79767.80551,1.79767,1.79767v.61749c0,.99192-.80532,1.79724-1.79724,1.79724h-.61737c-.99219,0-1.79773-.80554-1.79773-1.79773v-.61694c0-.99219.80554-1.79773,1.79773-1.79773Z" />
    <rect x="45.78766" y="36.63" width="4.21234" height="4.21234" rx="1.79773" ry="1.79773" />
    <rect x="0" width="4.21234" height="4.21234" rx="1.79773" ry="1.79773" />
    <rect x="4.00623" y="4.00623" width="5.35748" height="5.35748" rx="1.76904" ry="1.76904" />
    <rect x="13.04932" y="40.52216" width="5.58612" height="5.58569" rx="1.82263" ry="1.82263" />
    <path
        d="m23.78772,40.0639h2.42456c1.12512,0,2.03857.91345,2.03857,2.03857v2.42542c0,1.12488-.91326,2.03815-2.03815,2.03815h-2.42499c-1.12512,0-2.03857-.91345-2.03857-2.03857v-2.42499c0-1.12512.91345-2.03857,2.03857-2.03857Z" />
    <rect x="31.36456" y="40.52216" width="5.58612" height="5.58569" rx="1.82306" ry="1.82306" />
    <rect x="9.15759" y="45.7876" width="4.2124" height="4.2124" rx="1.79773" ry="1.79773" />
    <path
        d="m20.11249,45.7876h.61737c.99219,0,1.79773.80554,1.79773,1.79773v.61694c0,.99219-.80554,1.79773-1.79773,1.79773h-.61737c-.99192,0-1.79724-.80532-1.79724-1.79724v-.61792c0-.99192.80532-1.79724,1.79724-1.79724Z" />
    <path
        d="m29.27014,45.7876h.61688c.99219,0,1.79773.80554,1.79773,1.79773v.61743c0,.99192-.80532,1.79724-1.79724,1.79724h-.61737c-.99219,0-1.79773-.80554-1.79773-1.79773v-.61694c0-.99219.80554-1.79773,1.79773-1.79773Z" />
    <rect x="36.63" y="45.7876" width="4.2124" height="4.2124" rx="1.79773" ry="1.79773" />
    <rect x="45.78766" y="45.7876" width="4.21234" height="4.2124" rx="1.79773" ry="1.79773" />
    <rect x="40.63629" y="40.63623" width="5.35748" height="5.35748" rx="1.76904" ry="1.76904" />
    <rect x="3.89215" y="13.04932" width="5.58569" height="5.58612" rx="1.82306" ry="1.82306" />
    <path
        d="m5.47211,21.74915h2.42535c1.12512,0,2.03857.91345,2.03857,2.03857v2.4245c0,1.12512-.91345,2.03857-2.03857,2.03857h-2.42535c-1.12488,0-2.03815-.91326-2.03815-2.03815v-2.42535c0-1.12488.91326-2.03815,2.03815-2.03815Z" />
    <rect x="11.4469" y="20.60449" width="8.79144" height="8.79095" rx="2.57666" ry="2.57666" />
    <rect x="29.76166" y="20.60449" width="8.79144" height="8.79095" rx="2.57709" ry="2.57709" />
    <rect x="20.60455" y="11.4469" width="8.79089" height="8.79138" rx="2.5766" ry="2.5766" />
    <rect x="20.60455" y="29.76166" width="8.79089" height="8.79144" rx="2.57666" ry="2.57666" />
    <rect x="3.89215" y="31.36456" width="5.58569" height="5.58612" rx="1.82306" ry="1.82306" />
    <rect x="10.30225" y="33.19604" width="6.50165" height="6.50165" rx="2.64655" ry="2.64655" />
    <rect x="33.19611" y="33.19604" width="6.50165" height="6.50165" rx="2.64661" ry="2.64661" />
    <rect x="10.30225" y="10.30225" width="6.50165" height="6.50165" rx="2.64655" ry="2.64655" />
    <rect x="33.19611" y="10.30225" width="6.50165" height="6.50165" rx="2.64661" ry="2.64661" />
    <rect x="4.00623" y="40.63623" width="5.35748" height="5.35748" rx="1.76904" ry="1.76904" />
    <rect y="9.15759" width="4.21234" height="4.2124" rx="1.79773" ry="1.79773" />
    <path
        d="m1.79773,18.31525h.61688c.99219,0,1.79773.80554,1.79773,1.79773v.61737c0,.99192-.80532,1.79724-1.79724,1.79724h-.61786c-.99192,0-1.79724-.80532-1.79724-1.79724v-.61737c0-.99219.80554-1.79773,1.79773-1.79773Z" />
    <rect x="0" y="27.47235" width="4.21234" height="4.2124" rx="1.79773" ry="1.79773" />
    <rect x="0" y="36.63" width="4.21234" height="4.21234" rx="1.79773" ry="1.79773" />
    <rect y="45.7876" width="4.21234" height="4.2124" rx="1.79773" ry="1.79773" />
    <circle cx="25" cy="24.99998" r="4.39547" />
</svg>