<?xml version="1.0" encoding="UTF-8"?><svg id="Layer_1" xmlns="http://www.w3.org/2000/svg" viewBox="0 0 50 50"><path d="m8.53552,8.53552c.97632-.97632,1.46448-2.25592,1.46448-3.53552s-.48816-2.55927-1.46448-3.53552C6.58289-.48816,3.41711-.48816,1.46448,1.46448-.48816,3.41705-.48816,6.58289,1.46448,8.53552h7.07104Z"/><path d="m18.53552,8.53552c.97632-.97632,1.46448-2.25592,1.46448-3.53552s-.48816-2.55927-1.46448-3.53552c-1.95264-1.95264-5.11841-1.95264-7.07104,0-.97632.97626-1.46448,2.25592-1.46448,3.53552s.48816,2.5592,1.46448,3.53552h7.07104Z"/><path d="m28.53552,8.53552c.97632-.97632,1.46448-2.25592,1.46448-3.53552s-.48816-2.55927-1.46448-3.53552c-1.95264-1.95264-5.11841-1.95264-7.07104,0-.97632.97626-1.46448,2.25592-1.46448,3.53552s.48816,2.5592,1.46448,3.53552h7.07104Z"/><path d="m38.53552,8.53552c.97632-.97632,1.46448-2.25592,1.46448-3.53552s-.48816-2.55927-1.46448-3.53552c-1.95264-1.95264-5.11841-1.95264-7.07104,0-.97632.97626-1.46448,2.25592-1.46448,3.53552s.48816,2.5592,1.46448,3.53552h7.07104Z"/><path d="m48.53552,8.53552c1.95264-1.95264,1.95264-5.11847,0-7.07104-1.95264-1.95264-5.11841-1.95264-7.07104,0-.97632.97626-1.46448,2.25592-1.46448,3.53552s.48816,2.5592,1.46448,3.53552h7.07104Z"/><path d="m8.53552,18.53552c.97632-.97632,1.46448-2.25592,1.46448-3.53552s-.48816-2.55927-1.46448-3.53552c-1.95264-1.95264-5.11841-1.95264-7.07104,0-1.95264,1.95258-1.95264,5.11841,0,7.07104h7.07104Z"/><path d="m18.53552,18.53552c.97632-.97632,1.46448-2.25592,1.46448-3.53552s-.48816-2.55927-1.46448-3.53552c-1.95264-1.95264-5.11841-1.95264-7.07104,0-.97632.97626-1.46448,2.25592-1.46448,3.53552s.48816,2.5592,1.46448,3.53552h7.07104Z"/><path d="m28.53552,18.53552c.97632-.97632,1.46448-2.25592,1.46448-3.53552s-.48816-2.55927-1.46448-3.53552c-1.95264-1.95264-5.11841-1.95264-7.07104,0-.97632.97626-1.46448,2.25592-1.46448,3.53552s.48816,2.5592,1.46448,3.53552h7.07104Z"/><path d="m38.53552,18.53552c.97632-.97632,1.46448-2.25592,1.46448-3.53552s-.48816-2.55927-1.46448-3.53552c-1.95264-1.95264-5.11841-1.95264-7.07104,0-.97632.97626-1.46448,2.25592-1.46448,3.53552s.48816,2.5592,1.46448,3.53552h7.07104Z"/><path d="m48.53552,18.53552c1.95264-1.95264,1.95264-5.11847,0-7.07104-1.95264-1.95264-5.11841-1.95264-7.07104,0-.97632.97626-1.46448,2.25592-1.46448,3.53552s.48816,2.5592,1.46448,3.53552h7.07104Z"/><path d="m8.53552,40c.97632-.97632,1.46448-2.25598,1.46448-3.53558s-.48816-2.5592-1.46448-3.53552c-1.95264-1.95258-5.11841-1.95258-7.07104,0-1.95264,1.95264-1.95264,5.11847,0,7.07111h7.07104Z"/><path d="m18.53552,40c.97632-.97632,1.46448-2.25598,1.46448-3.53558s-.48816-2.5592-1.46448-3.53552c-1.95264-1.95258-5.11841-1.95258-7.07104,0-.97632.97632-1.46448,2.25592-1.46448,3.53552s.48816,2.55927,1.46448,3.53558h7.07104Z"/><path d="m28.53552,40c.97632-.97632,1.46448-2.25598,1.46448-3.53558s-.48816-2.5592-1.46448-3.53552c-1.95264-1.95258-5.11841-1.95258-7.07104,0-.97632.97632-1.46448,2.25592-1.46448,3.53552s.48816,2.55927,1.46448,3.53558h7.07104Z"/><path d="m38.53552,40c.97632-.97632,1.46448-2.25598,1.46448-3.53558s-.48816-2.5592-1.46448-3.53552c-1.95264-1.95258-5.11841-1.95258-7.07104,0-.97632.97632-1.46448,2.25592-1.46448,3.53552s.48816,2.55927,1.46448,3.53558h7.07104Z"/><path d="m48.53552,40c1.95264-1.95264,1.95264-5.11847,0-7.07111-1.95264-1.95258-5.11841-1.95258-7.07104,0-.97632.97632-1.46448,2.25592-1.46448,3.53552s.48816,2.55927,1.46448,3.53558h7.07104Z"/><path d="m8.53552,50c.97632-.97632,1.46448-2.25598,1.46448-3.53558s-.48816-2.5592-1.46448-3.53552c-1.95264-1.95258-5.11841-1.95258-7.07104,0-1.95264,1.95264-1.95264,5.11847,0,7.07111h7.07104Z"/><path d="m18.53552,50c.97632-.97632,1.46448-2.25598,1.46448-3.53558s-.48816-2.5592-1.46448-3.53552c-1.95264-1.95258-5.11841-1.95258-7.07104,0-.97632.97632-1.46448,2.25592-1.46448,3.53552s.48816,2.55927,1.46448,3.53558h7.07104Z"/><path d="m28.53552,50c.97632-.97632,1.46448-2.25598,1.46448-3.53558s-.48816-2.5592-1.46448-3.53552c-1.95264-1.95258-5.11841-1.95258-7.07104,0-.97632.97632-1.46448,2.25592-1.46448,3.53552s.48816,2.55927,1.46448,3.53558h7.07104Z"/><path d="m38.53552,50c.97632-.97632,1.46448-2.25598,1.46448-3.53558s-.48816-2.5592-1.46448-3.53552c-1.95264-1.95258-5.11841-1.95258-7.07104,0-.97632.97632-1.46448,2.25592-1.46448,3.53552s.48816,2.55927,1.46448,3.53558h7.07104Z"/><path d="m48.53552,50c1.95264-1.95264,1.95264-5.11847,0-7.07111-1.95264-1.95258-5.11841-1.95258-7.07104,0-.97632.97632-1.46448,2.25592-1.46448,3.53552s.48816,2.55927,1.46448,3.53558h7.07104Z"/></svg>