<?xml version="1.0" encoding="UTF-8"?><svg id="Layer_1" xmlns="http://www.w3.org/2000/svg" viewBox="0 0 50 50"><path d="m39.63586,10.3114c-4.04883-4.04883-10.61334-4.04883-14.66223,0l14.66223,14.66223c4.04889-4.04883,4.04889-10.61334,0-14.66223Z"/><path d="m44.52368,5.42444l5.40723,5.40723c.15631-2.82434-.8042-5.69165-2.96393-7.85138C44.80725.82062,41.94-.13995,39.11566.01636l5.40729,5.40729c-3.18713-3.18671-7.91803-3.82501-11.76953-1.99469l6.88245,6.88245,6.88251,6.88251c1.83032-3.85156,1.19202-8.5824-1.99469-11.76947Z"/><path d="m10.31146,24.97363l14.66217-14.66223c-4.04883-4.04883-10.61334-4.04883-14.66217,0s-4.04889,10.6134,0,14.66223Z"/><path d="m3.42896,17.19391l6.88251-6.88251,6.88245-6.88245c-3.85168-1.83038-8.58282-1.19202-11.7699,1.99506s-3.82544,7.91815-1.99506,11.7699Z"/><path d="m10.31146,39.63586c4.04883,4.04889,10.61334,4.04889,14.66217,0l-14.66217-14.66223c-4.04889,4.04889-4.04889,10.61334,0,14.66223Z"/><path d="m17.19391,46.51831l-13.76495-13.76489c-1.83038,3.85168-1.19202,8.58276,1.99506,11.76984s7.91821,3.82544,11.7699,1.99506Z"/><path d="m2.98035,46.96698c2.15967,2.15973,5.02698,3.12024,7.85132,2.96393l-5.40765-5.40765L.01636,39.1156c-.15631,2.82434.80426,5.69165,2.96399,7.85138Z"/><path d="m39.63586,39.63586c4.04889-4.04889,4.04889-10.61334,0-14.66223l-14.66223,14.66223c4.04889,4.04889,10.6134,4.04889,14.66223,0Z"/><path d="m46.51837,32.75342l-13.76495,13.76489c3.85168,1.83038,8.58276,1.19202,11.7699-1.99506,3.18707-3.18707,3.82544-7.91815,1.99506-11.76984Z"/><path d="m2.98035,2.98029C.82062,5.14001-.13995,8.00732.01636,10.83167l5.40765-5.40765L10.83167.01636c-2.82434-.15631-5.69165.80426-7.85132,2.96393Z"/><path d="m47.01965,47.01965c2.15973-2.15973,3.1203-5.02704,2.96399-7.85138l-10.81531,10.81531c2.82434.15631,5.69165-.8042,7.85132-2.96393Z"/><circle cx="25" cy="25" r="5"/></svg>