<?xml version="1.0" encoding="UTF-8"?><svg id="Layer_1" xmlns="http://www.w3.org/2000/svg" viewBox="0 0 50 50"><path d="m23.60876,39.90063l-.92743,9.99091c.77728.07208,1.56433.10846,2.34003.10846,1.83673,0,3.67383-.20325,5.46002-.60437l-2.19867-9.78992c-1.51947.34106-3.09894.44098-4.67395.29492Z"/><path d="m19.48199.61096l2.21161,9.78687c1.51971-.34338,3.10333-.4455,4.67206-.30121L27.28418.10486c-2.61151-.23938-5.26025-.06824-7.80219.5061Z"/><path d="m14.31415,7.03308l-2.09705-3.52032c-2.25403,1.34271-4.2749,3.02252-6.00702,4.99268l7.53607,6.62482c.51874-.59021,1.08087-1.13678,1.68188-1.63666l2.58527,3.1507.0545-.04504c1.10406-.91113,2.34863-1.58533,3.69946-2.00378l-2.9696-9.58429c-1.58112.48993-3.07281,1.18079-4.48352,2.02191Z"/><path d="m35.65863,42.97925l2.09296,3.52344c2.25494-1.33942,4.27789-3.01654,6.01288-4.98468l-7.52722-6.63458c-.51166.58044-1.06616,1.11755-1.65735,1.61041l-2.60822-3.12982-.02588.02148c-1.11298.92206-2.36908,1.60291-3.73358,2.02374l2.9566,9.58807c1.5824-.48792,3.0755-1.17694,4.48981-2.01807Z"/><path d="m49.89429,27.2677l-5.8407-.53094-8.21051-.74854c-.13116,1.4361-.53479,2.80792-1.20044,4.07715l8.88635,4.65936c.2464-.46997.45728-.95312.6662-1.43689l3.75995,1.62201c1.03644-2.40271,1.68689-4.95148,1.93408-7.58606l.00507-.05609Z"/><path d="m33.24933,5.78455c-2.01178-.86414-4.13263-1.41833-6.33624-1.62097l-.91852,9.9917c1.43628.13196,2.80774.53687,4.07654,1.20337l1.89563-3.60883c1.03632.54565,2.00586,1.21277,2.89331,1.9917l6.61945-7.54047c-1.9787-1.73688-4.20453-3.14252-6.61597-4.17737l-1.6142,3.76086Z"/><path d="m42.95728,14.30383c-.55017-.92145-1.15222-1.81494-1.84662-2.6532l-.06354-.0752-3.20825,2.73834-4.48083,3.70721.05377.06482c.9024,1.0979,1.57123,2.33459,1.98816,3.67603l3.89294-1.21014c.11639.37354.2182.75195.30493,1.13458l9.78534-2.21887c-.58032-2.5592-1.55829-5.00281-2.90704-7.26312l-3.51886,2.09955Z"/><path d="m18.0094,38.23914c-1.03461-.54663-2.00256-1.21448-2.88831-1.99402l-6.62921,7.53198c1.97632,1.73938,4.20026,3.14771,6.61029,4.18604l1.61932-3.75909c2.00909.86621,4.12805,1.42303,6.33032,1.62872l.93311-9.99017c-1.43597-.13416-2.8067-.54114-4.07373-1.20935l-1.90179,3.6059Z"/><path d="m2.02826,15.1189c-1.02911,2.39349-1.67535,4.93243-1.92255,7.5683l4.05896.37177c-.00031.00342-.0011.00665-.0014.01007l9.99109.92578c.13306-1.43628.53876-2.80713,1.20618-4.07477l-8.87878-4.67395c-.25641.48712-.47754.98755-.6936,1.48962l-3.75989-1.61682Z"/><path d="m14.59137,28.2226l-3.89514,1.20367c-.11554-.3728-.21649-.75043-.30249-1.13226L.60529,30.49933c.57666,2.55981,1.55164,5.00507,2.89752,7.26776l3.52179-2.09509c.55365.92999,1.1604,1.83136,1.86084,2.67682l.02588.03082,3.82922-3.20966,3.93335-3.14648-.07336-.0899c-.91443-1.10742-1.59033-2.35577-2.00916-3.711Z"/></svg>