<?xml version="1.0" encoding="UTF-8"?><svg id="Layer_1" xmlns="http://www.w3.org/2000/svg" viewBox="0 0 50 50"><path d="m3.125,50h3.75c1.72589,0,3.125-1.39911,3.125-3.125s1.39911-3.125,3.125-3.125h23.75c1.72589,0,3.125,1.39911,3.125,3.125s1.39911,3.125,3.125,3.125h3.75c1.72589,0,3.125-1.39911,3.125-3.125v-3.75c0-1.72589-1.39911-3.125-3.125-3.125s-3.125-1.39911-3.125-3.125V13.125c0-1.72589,1.39911-3.125,3.125-3.125s3.125-1.39911,3.125-3.125v-3.75c0-1.72589-1.39911-3.125-3.125-3.125h-3.75c-1.72589,0-3.125,1.39911-3.125,3.125s-1.39911,3.125-3.125,3.125H13.125c-1.72589,0-3.125-1.39911-3.125-3.125s-1.39911-3.125-3.125-3.125h-3.75C1.39911,0,0,1.39911,0,3.125v3.75c0,1.72589,1.39911,3.125,3.125,3.125s3.125,1.39911,3.125,3.125v23.75c0,1.72589-1.39911,3.125-3.125,3.125s-3.125,1.39911-3.125,3.125v3.75c0,1.72589,1.39911,3.125,3.125,3.125Zm6.875-14.125c0-1.03552.83948-1.875,1.875-1.875s1.875-.83948,1.875-1.875v-14.25c0-1.03552-.83948-1.875-1.875-1.875s-1.875-.83948-1.875-1.875v-2.25c0-1.03552.83948-1.875,1.875-1.875h2.25c1.03552,0,1.875.83948,1.875,1.875s.83948,1.875,1.875,1.875h14.25c1.03552,0,1.875-.83948,1.875-1.875s.83948-1.875,1.875-1.875h2.25c1.03552,0,1.875.83948,1.875,1.875v2.25c0,1.03552-.83948,1.875-1.875,1.875s-1.875.83948-1.875,1.875v14.25c0,1.03552.83948,1.875,1.875,1.875s1.875.83948,1.875,1.875v2.25c0,1.03552-.83948,1.875-1.875,1.875h-2.25c-1.03552,0-1.875-.83948-1.875-1.875s-.83948-1.875-1.875-1.875h-14.25c-1.03552,0-1.875.83948-1.875,1.875s-.83948,1.875-1.875,1.875h-2.25c-1.03552,0-1.875-.83948-1.875-1.875v-2.25Z"/><path d="m20.625,30h.75c.34515,0,.625-.27985.625-.625,0-.34521.27985-.625.625-.625h4.75c.34515,0,.625.27979.625.625,0,.34515.27985.625.625.625h.75c.34515,0,.625-.27985.625-.625v-.75c0-.34521-.27985-.625-.625-.625s-.625-.27985-.625-.625v-4.75c0-.34521.27985-.625.625-.625s.625-.27985.625-.625v-.75c0-.34521-.27985-.625-.625-.625h-.75c-.34515,0-.625.27979-.625.625,0,.34515-.27985.625-.625.625h-4.75c-.34515,0-.625-.27985-.625-.625,0-.34521-.27985-.625-.625-.625h-.75c-.34515,0-.625.27979-.625.625v.75c0,.34515.27985.625.625.625s.625.27979.625.625v4.75c0,.34515-.27985.625-.625.625s-.625.27979-.625.625v.75c0,.34515.27985.625.625.625Z"/></svg>