<?xml version="1.0" encoding="UTF-8"?><svg id="Layer_1" xmlns="http://www.w3.org/2000/svg" viewBox="0 0 50 50"><path d="m10,2.5c4.14209,0,7.5,3.35785,7.5,7.5h2.5C20,4.47711,15.52283,0,10,0S0,4.47717,0,10h2.49994c0-4.14215,3.35791-7.5,7.50006-7.5Z"/><path d="m10,5c-2.76147,0-5.00006,2.23859-5.00006,5h10c0-2.76141-2.23859-5-4.99994-5Z"/><path d="m40,0c-5.52289,0-10,4.47717-10,10h2.49994c0-4.14215,3.35791-7.5,7.50006-7.5s7.5,3.35785,7.5,7.5h2.5c0-5.52289-4.47717-10-10-10Z"/><path d="m40,5c-2.76141,0-5.00006,2.23859-5.00006,5h10c0-2.76141-2.23859-5-4.99994-5Z"/><path d="m10,12.5c4.14209-.00006,7.5,3.35785,7.5,7.5h2.5c0-5.52289-4.47717-10-10-10S0,14.47711,0,20h2.49994c0-4.14215,3.35791-7.5,7.50006-7.5Z"/><path d="m10,15c-2.76147,0-5.00006,2.23859-5.00006,5h10c0-2.76141-2.23859-5-4.99994-5Z"/><path d="m40,10c-5.52289,0-10,4.47711-10,10h2.49994c0-4.14215,3.35791-7.5,7.50006-7.5,4.14209-.00006,7.5,3.35785,7.5,7.5h2.5c0-5.52289-4.47717-10-10-10Z"/><path d="m40,15c-2.76141,0-5.00006,2.23859-5.00006,5h10c0-2.76141-2.23859-5-4.99994-5Z"/><path d="m10,22.49994c4.14209,0,7.5,3.35791,7.5,7.50006h2.5c0-5.52289-4.47717-10-10-10S0,24.47711,0,30h2.49994c0-4.14215,3.35791-7.50006,7.50006-7.50006Z"/><path d="m10,25c-2.76147,0-5.00006,2.23859-5.00006,5h10c0-2.76141-2.23859-5-4.99994-5Z"/><path d="m40,20c-5.52289,0-10,4.47711-10,10h2.49994c0-4.14215,3.35791-7.50006,7.50006-7.50006s7.5,3.35791,7.5,7.50006h2.5c0-5.52289-4.47717-10-10-10Z"/><path d="m40,25c-2.76141,0-5.00006,2.23859-5.00006,5h10c0-2.76141-2.23859-5-4.99994-5Z"/><path d="m10,32.49994c4.14209,0,7.5,3.35791,7.5,7.50006h2.5c0-5.52289-4.47717-10-10-10S0,34.47711,0,40h2.49994c0-4.14215,3.35791-7.50006,7.50006-7.50006Z"/><path d="m10,35c-2.76147,0-5.00006,2.23859-5.00006,5h10c0-2.76141-2.23859-5-4.99994-5Z"/><path d="m30,40h2.49994c0-4.14215,3.35791-7.50006,7.50006-7.50006s7.5,3.35791,7.5,7.50006h2.5c0-5.52289-4.47717-10-10-10s-10,4.47711-10,10Z"/><path d="m40,35c-2.76141,0-5.00006,2.23859-5.00006,5h10c0-2.76141-2.23859-5-4.99994-5Z"/><path d="m10,42.49994c4.14209,0,7.5,3.35791,7.5,7.5h2.5c0-5.52283-4.47717-9.99994-10-9.99994S0,44.47711,0,50h2.49994c0-4.14215,3.35791-7.50006,7.50006-7.50006Z"/><path d="m4.99994,50l10-.00006c0-2.76135-2.23859-4.99994-4.99994-4.99994s-5.00006,2.23859-5.00006,5Z"/><path d="m47.5,49.99994h2.5c0-5.52283-4.47717-9.99994-10-9.99994s-10,4.47711-10,10h2.49994c0-4.14215,3.35791-7.50006,7.50006-7.50006s7.5,3.35791,7.5,7.5Z"/><path d="m34.99994,50l10-.00006c0-2.76135-2.23859-4.99994-4.99994-4.99994s-5.00006,2.23859-5.00006,5Z"/></svg>