<?xml version="1.0" encoding="UTF-8"?><svg id="Layer_1" xmlns="http://www.w3.org/2000/svg" viewBox="0 0 50 50"><path d="m.09326,11.29797c.02924.22467.06342.44727.10736.66699.02417.12091.05145.24023.0799.3595.04785.2002.10217.39728.16187.59253.03625.11896.07123.23798.11176.35504.07025.20215.1499.39941.23254.59546.04199.09985.07861.20221.12372.30035.12408.26953.26025.53223.40704.78815.07391.12927.15686.25195.23633.37756.08502.13409.16956.26831.26074.39795.09668.13782.19855.27081.30182.40338.04291.05493.0813.1134.12531.16742,1.17047,1.4361,1.42529,3.47943.5965,5.13641-.53607,1.07178-.83813,2.28064-.83813,3.56128s.30206,2.48944.83813,3.56122c.84686,1.69312.51318,3.74268-.6665,5.22327-.07159.0899-.13373.18719-.20227.27954-.04712.06329-.09302.1272-.13867.19165-.11499.1629-.2262.32788-.33148.49774-.05872.09412-.11353.19043-.16913.28662-.08502.14789-.16956.29572-.24707.4483-.07269.14203-.13776.2879-.20367.43365-.05212.11609-.1073.23016-.15503.34851-.09363.23029-.1759.46558-.25208.70367-.01349.04248-.03046.08331-.04346.12604-.17328.56812-.29877,1.15558-.36554,1.7594-.00244.02203-.00134.0434-.00366.06543-.03693.34412-.05811.69293-.05908,1.04669-.00012.04309.00537.08484.0058.12781.00281.28961.01208.58081.04004.87561.00195.02051.00647.04028.00854.06073.00635.06165.01813.12134.02557.18262.03235.26825.07416.53363.12811.79547.02167.10583.04797.20959.073.31421.04901.20361.10333.40491.16492.60376.04065.13257.08282.26398.12878.3941.05316.14893.11206.29486.17206.44061.06622.16254.1311.32526.20551.4834.0144.03027.03143.05908.04614.08923.92993,1.92493,2.45685,3.50024,4.34241,4.49664.11804.06293.23529.12653.35596.18475.13385.06396.26996.12299.40704.18109.1781.07623.35846.14685.5415.21271.10608.03778.21161.07587.31927.11017.24701.07935.49823.14746.75281.20721.05853.01367.11554.03088.1745.04352.31781.06836.63953.12512.96716.16138.0116.00128.02283.00073.03442.00195.21576.02374.43695.02728.65656.03705.14587.00635.29395.0235.43854.02362.00366,0,.0072.00061.01086.00061.33423,0,.66345-.02032.9892-.05243.10406-.01025.20569-.0274.30878-.04083.22461-.02924.44727-.06342.66693-.10736.12103-.02417.24036-.05145.35974-.07996.20001-.04779.39703-.10211.5921-.16174.11908-.03632.23816-.07135.35529-.11188.20215-.07025.39941-.1499.59546-.23248.09985-.04199.20221-.07861.30035-.12372.26953-.12408.53223-.26025.78815-.40704.12952-.0741.2525-.15723.3783-.23682.13373-.08484.26752-.16901.39679-.25995.13806-.09686.27136-.19891.40424-.30249.05481-.04279.11316-.08105.16699-.12494,1.4361-1.17047,3.47943-1.42529,5.13647-.5965,1.07178.53607,2.28064.83813,3.56122.83813s2.4895-.30206,3.56128-.83813c1.69305-.84686,3.74261-.51324,5.22314.66644.09009.07178.18756.13409.28015.20276.06299.04694.12659.09253.19067.13794.16309.11517.32843.2265.49847.33197.09393.05853.19.11322.28595.1687.14807.08514.29602.16968.44873.24731.14185.07257.28754.13757.43311.20343.11627.05225.23065.10748.34924.15533.23102.09387.4671.17645.70599.25287.04156.01318.08142.02991.12317.04254.56824.17334,1.15582.29877,1.7597.3656.02216.00244.04364.0014.06573.00372.34387.0368.69238.05798,1.0459.05902.04602.00012.09052-.00574.13641-.00623.28705-.00299.57556-.01196.86774-.03967.02032-.00195.03992-.00635.06018-.00842.06213-.00641.12244-.01837.18427-.02588.26776-.03235.53253-.07397.79388-.12781.10626-.02173.21039-.04822.31543-.0733.203-.04889.40369-.10297.60199-.16443.13306-.04083.26489-.08313.39551-.12927.1485-.05298.29407-.11182.43945-.17163.16278-.06635.32574-.13129.48413-.20581.03033-.01447.05914-.03143.08936-.04614,1.92499-.92999,3.50037-2.45715,4.4967-4.3429.06281-.11774.12622-.2348.18433-.35522.06396-.13379.12286-.26978.18097-.4068.07642-.17841.14716-.35907.21313-.54248.03778-.1059.07568-.21118.10992-.31873.07928-.24701.14752-.49817.20721-.75275.01367-.05853.03088-.11554.04352-.1745.06836-.31793.12518-.63971.16144-.96741.00128-.01166.00073-.02295.00195-.03461.02301-.20935.02606-.42419.03595-.63727.0069-.15247.0246-.30707.02472-.45807,0-.00342.00055-.00677.00055-.01019,0-.33417-.02032-.66333-.05243-.98901-.01025-.10431-.02747-.20618-.04089-.30951-.02924-.22455-.06354-.4472-.10742-.66681-.02411-.12079-.05139-.23987-.07977-.35907-.04779-.19995-.10205-.39697-.16168-.59204-.03638-.11932-.07141-.23871-.11212-.35608-.07031-.20258-.15015-.40015-.23297-.59656-.04169-.09918-.07806-.20081-.1228-.29828-.12415-.26959-.26044-.53235-.40723-.78839-.0741-.12958-.15717-.25269-.23682-.37848-.0849-.13385-.16919-.26776-.26019-.39716-.09674-.13794-.19873-.27112-.30219-.40381-.04279-.05481-.08112-.11322-.12506-.16711-1.17053-1.43616-1.42535-3.47943-.59656-5.13647.53613-1.07178.83813-2.28064.83813-3.56122s-.302-2.4895-.83813-3.56128c-.84686-1.69305-.51324-3.74261.66644-5.22321.07166-.0899.13379-.18719.20233-.2796.04718-.06342.09314-.12744.13885-.19196.11487-.16278.22601-.32764.33124-.49731.05872-.09418.11365-.19061.16925-.2868.08508-.14801.16962-.2959.24719-.44855.07269-.14209.13782-.28809.20374-.43384.052-.11578.10706-.22961.15466-.34766.09338-.22986.17554-.46472.25165-.70239.01373-.04321.03101-.08472.04419-.12811.17322-.56805.29865-1.15546.36542-1.75916.00244-.02203.00134-.04333.00366-.06531.03687-.34399.05811-.69269.05908-1.04626.00012-.04669-.0058-.09186-.00635-.13849-.00305-.28632-.01196-.5741-.03961-.86548-.00189-.02026-.00635-.03986-.00842-.06006-.00641-.06256-.01843-.12317-.026-.18536-.03229-.26746-.07397-.5321-.12775-.79327-.02173-.10614-.04822-.21008-.07324-.315-.04889-.20288-.10297-.40344-.16431-.60162-.04089-.13342-.08331-.26562-.12958-.39655-.05292-.14825-.11163-.29352-.17133-.4386-.06641-.1629-.13135-.32593-.20593-.48444-.01428-.03009-.03119-.05872-.04578-.08862-.92993-1.92529-2.45728-3.50098-4.34326-4.49738-.11774-.06281-.2348-.12622-.35522-.18433-.13379-.0639-.26978-.12286-.4068-.18097-.17841-.07642-.35907-.14716-.54248-.21313-.1059-.03778-.21118-.07568-.31873-.10992-.24701-.07928-.49817-.14752-.75275-.20721-.05853-.01367-.11554-.03088-.1745-.04352-.31793-.06836-.63971-.12518-.96741-.16144-.01166-.00128-.02295-.00073-.03461-.00195-.20935-.02301-.42419-.02606-.63727-.03595-.15247-.0069-.30707-.0246-.45807-.02472-.00342,0-.00677-.00055-.01019-.00055-.33417,0-.66333.02032-.98901.05243-.10443.01025-.20648.02747-.30994.04095-.22418.02917-.44635.06335-.66553.10718-.1214.02417-.24109.05164-.3609.0802-.19952.04767-.39606.10181-.59076.16132-.11951.03638-.23901.07159-.35651.1123-.20184.07013-.39862.1496-.5943.23206-.10004.04205-.20258.07867-.30096.1239-.26923.12396-.53162.26001-.78729.40662-.13019.07452-.25391.15802-.38037.23804-.1333.08459-.26672.16864-.39569.25928-.13806.09686-.27136.19897-.40424.30249-.05475.04272-.11304.08099-.16681.12482-1.43616,1.17053-3.47943,1.42535-5.13641.59656-1.07178-.53613-2.28064-.83813-3.56128-.83813s-2.48944.302-3.56122.83807c-1.69312.84686-3.74268.51324-5.22327-.66644-.09015-.07184-.18781-.13422-.28046-.20294-.06274-.04675-.12622-.09222-.19006-.13751-.16333-.11536-.32892-.22687-.49921-.33246-.09344-.05823-.1889-.11267-.28436-.16785-.14874-.08551-.29742-.17041-.45087-.24841-.14136-.07233-.2865-.13702-.43152-.20264-.11639-.05231-.23077-.10767-.34949-.15552-.22876-.09296-.46259-.17462-.6991-.25049-.04431-.0141-.08698-.03186-.13153-.04535-.56793-.17316-1.15521-.29852-1.75879-.3653-.02191-.00244-.04315-.0014-.06506-.00366C10.73102.02258,10.38232.00146,10.02869.00043c-.04688-.00012-.09222.00586-.13898.00635-.28613.00305-.57367.01196-.86487.03955-.02045.00195-.04022.00641-.06061.00848-.06213.00641-.12244.01831-.1842.02588-.26764.03235-.53241.07391-.79364.12775-.10632.02173-.21045.04822-.31549.0733-.20319.04895-.40405.10315-.60254.16461-.13281.04071-.2644.08301-.39484.12903-.1485.05298-.29395.11169-.43927.17151-.16309.06647-.32642.13153-.48505.20624-.0282.01337-.05499.02936-.08307.04297-1.92731.92957-3.50458,2.45764-4.50189,4.34491-.06299.1181-.12671.2356-.185.35638-.0639.13373-.1228.26965-.18091.40662-.07629.17834-.14709.35889-.21295.54211-.03778.10596-.07581.21143-.11005.31897-.07935.24701-.14746.49829-.20721.75287-.01367.05853-.03088.11554-.04352.1745-.06836.31787-.12512.63953-.16138.96716-.00128.0116-.00073.02283-.00195.03442-.02374.2157-.02728.43695-.03705.65656-.00635.14587-.0235.29395-.02362.43854,0,.00366-.00061.0072-.00061.01086,0,.33423.02032.66345.05243.9892.01025.10406.0274.20569.04083.30878Zm17.0686,10.14075c-.6756-1.35071-.58984-2.92401.06744-4.25861,1.31219-.63995,2.88239-.68201,4.20947-.01825,1.07178.53607,2.28064.83813,3.56122.83813s2.4895-.30206,3.56128-.83813c1.35077-.67566,2.92401-.58984,4.25861.0675.63995,1.31232.68201,2.88232.01825,4.20935-.53607,1.07178-.83813,2.28064-.83813,3.56128s.30206,2.48944.83813,3.56122c.6756,1.35077.58978,2.92401-.0675,4.25861-1.31226.64001-2.88232.68207-4.20935.01831-1.07178-.53613-2.28064-.83813-3.56128-.83813s-2.48944.302-3.56122.83807c-1.35077.6756-2.92401.58978-4.25861-.06744-.64001-1.31226-.68207-2.88232-.01831-4.20941.53613-1.07178.83813-2.28064.83813-3.56122s-.302-2.4895-.83813-3.56128Z"/></svg>