<?xml version="1.0" encoding="UTF-8"?><svg id="Layer_1" xmlns="http://www.w3.org/2000/svg" viewBox="0 0 50 50"><path d="m1.54547,48.45453c.89801.95526,2.11322,1.54547,3.45459,1.54547.07654,0,.15051-.01117.22626-.01495.10956.0058.21808.01495.32922.01495h11.11115c-.30872,0-.60944-.02844-.90442-.07202,1.31256-.22382,2.45929-1.00726,3.2265-2.13312.48938-.71814,1.53308-.71814,2.02246,0,.9129,1.33966,2.35992,2.20514,3.98883,2.20514s3.07581-.86548,3.98871-2.20514c.48938-.71814,1.53308-.71814,2.02246,0,.76721,1.12585,1.91394,1.9093,3.22656,2.13312-.29504.04358-.59576.07202-.90448.07202h11.11115c.11121,0,.21973-.00916.32928-.01495.07574.00378.14972.01495.22632.01495,1.34167,0,2.55719-.59045,3.4552-1.54614.95483-.89795,1.54474-2.11285,1.54474-3.45392,0-.07654-.01117-.15051-.01495-.22626.0058-.10956.01495-.21808.01495-.32922v-11.11115c0,.30872-.02844.60944-.07202.90442-.22382-1.31256-1.00726-2.45929-2.13306-3.2265-.7182-.48938-.7182-1.53314,0-2.02252,1.3396-.9129,2.20508-2.35986,2.20508-3.98877s-.86548-3.07581-2.20508-3.98871c-.7182-.48938-.7182-1.53314,0-2.02252,1.12579-.76721,1.90924-1.91388,2.13306-3.2265.04358.29504.07202.59576.07202.90448V5.55554c0-.11121-.00916-.21973-.01495-.32928.00378-.07574.01495-.14972.01495-.22632,0-1.34131-.59015-2.55658-1.54541-3.45453-.89795-.95526-2.11322-1.54541-3.45453-1.54541-.0766,0-.15057.01117-.22632.01495-.10956-.0058-.21808-.01495-.32928-.01495h-11.11115c.30872,0,.60944.02844.90442.07202-1.31256.22382-2.45929,1.0072-3.2265,2.13306-.48938.71814-1.53308.71814-2.02246,0-.9129-1.33966-2.35986-2.20508-3.98871-2.20508s-3.07593.86542-3.98883,2.20508c-.48938.71814-1.53308.71814-2.02246,0-.76721-1.12585-1.91388-1.90924-3.22644-2.13306.29498-.04358.59564-.07202.90436-.07202H5.55554c-.11115,0-.21967.00916-.32922.01495-.07574-.00378-.14972-.01495-.22626-.01495-1.34106,0-2.55597.5899-3.45392,1.54474-.95569.89801-1.54614,2.11353-1.54614,3.4552,0,.0766.01117.15057.01495.22632-.0058.10956-.01495.21808-.01495.32928v11.11115c0-.30872.02844-.60944.07202-.90448.22382,1.31262,1.00726,2.45929,2.13306,3.2265.7182.48938.7182,1.53314,0,2.02252-1.3396.9129-2.20508,2.35986-2.20508,3.98871s.86548,3.07587,2.20508,3.98877c.7182.48938.7182,1.53314,0,2.02252-1.12579.76721-1.90924,1.91394-2.13306,3.2265-.04358-.29498-.07202-.5957-.07202-.90442v11.11115c0,.11115.00916.21967.01495.32922-.00378.07574-.01495.14972-.01495.22626,0,1.34137.59021,2.55658,1.54547,3.45459Zm11.77075-19.46582c-1.33966-.9129-2.20514-2.35986-2.20514-3.98877s.86548-3.07581,2.20508-3.98871c.7182-.48938.7182-1.53314.00006-2.02252-1.33966-.9129-2.20514-2.35986-2.20514-3.98877,0-1.07086.37946-2.05927,1.01642-2.8728.81348-.63678,1.80182-1.01605,2.87256-1.01605,1.62885,0,3.07581.86542,3.98871,2.20508.48938.7182,1.53308.7182,2.02246,0,.9129-1.33966,2.35992-2.20508,3.98883-2.20508s3.07581.86542,3.98871,2.20508c.48938.7182,1.53308.7182,2.02246,0,.9129-1.33966,2.35992-2.20508,3.98883-2.20508,1.07068,0,2.05896.37927,2.87244,1.01605.63696.81354,1.01642,1.80194,1.01642,2.8728,0,1.62891-.86548,3.07587-2.20514,3.98877-.71814.48938-.71814,1.53314.00006,2.02252,1.3396.9129,2.20508,2.35986,2.20508,3.98871s-.86548,3.07587-2.20514,3.98877c-.71814.48938-.71814,1.53314.00006,2.02252,1.3396.9129,2.20508,2.35986,2.20508,3.98871,0,1.07086-.37946,2.05933-1.01642,2.87286-.81348.63678-1.80176,1.01611-2.87244,1.01611-1.62891,0-3.07593-.86548-3.98883-2.20514-.48938-.71814-1.53308-.71814-2.02246,0-.9129,1.33966-2.35986,2.20514-3.98871,2.20514s-3.07593-.86548-3.98883-2.20514c-.48938-.71814-1.53308-.71814-2.02246,0-.9129,1.33966-2.35986,2.20514-3.98871,2.20514-1.07074,0-2.05908-.37933-2.87256-1.01611-.63696-.81354-1.01642-1.802-1.01642-2.87286,0-1.62885.86548-3.07581,2.20508-3.98871.7182-.48938.7182-1.53314.00006-2.02252Z"/></svg>