<?xml version="1.0" encoding="UTF-8"?><svg id="Layer_1" xmlns="http://www.w3.org/2000/svg" viewBox="0 0 50 50"><path d="m17.20905,2.07202c-.46198-1.24548-1.65015-2.07202-2.97858-2.07202H3.17688C1.42236,0,0,1.42236,0,3.17688v9.86133c0,1.39465.90961,2.62622,2.24261,3.03638l16.60651,5.10974c2.51642.77417,4.82849-1.67273,3.9129-4.14124l-5.55298-14.97107Z"/><path d="m46.82312,0h-11.05359c-1.32843,0-2.5166.82654-2.97858,2.07202l-5.55298,14.97107c-.91559,2.46851,1.39648,4.91541,3.9129,4.14124l16.60651-5.10974c1.33301-.41016,2.24261-1.64172,2.24261-3.03638V3.17688c0-1.75452-1.42236-3.17688-3.17688-3.17688Z"/><path d="m18.84912,28.81567l-16.60651,5.10962c-1.33301.41016-2.24261,1.64172-2.24261,3.03638v9.86145c0,1.75452,1.42236,3.17688,3.17688,3.17688h11.05359c1.32843,0,2.5166-.82666,2.97858-2.07202l5.55298-14.97119c.91559-2.46851-1.39648-4.91553-3.9129-4.14111Z"/><path d="m47.75739,33.92529l-16.60651-5.10962c-2.51642-.77441-4.82849,1.67261-3.9129,4.14111l5.55298,14.97119c.46198,1.24536,1.65015,2.07202,2.97858,2.07202h11.05359c1.75452,0,3.17688-1.42236,3.17688-3.17688v-9.86145c0-1.39465-.90961-2.62622-2.24261-3.03638Z"/></svg>