<?xml version="1.0" encoding="UTF-8"?><svg id="Layer_1" xmlns="http://www.w3.org/2000/svg" viewBox="0 0 50 50"><path d="m50,10c0-5.52295-4.47717-10-10-10s-10,4.47705-10,10c0,.2998.01904.59509.04486.88818-1.57874-.56458-3.27203-.88818-5.04486-.88818s-3.46613.32361-5.04486.88818c.02582-.29309.04486-.58838.04486-.88818C20,4.47705,15.52283,0,10,0S0,4.47705,0,10s4.47717,10,10,10c.29987,0,.59509-.01904.88824-.04492-.56464,1.57886-.88824,3.27209-.88824,5.04492s.32361,3.46606.88824,5.04492c-.29315-.02588-.58838-.04492-.88824-.04492-5.52283,0-10,4.47705-10,10s4.47717,10,10,10,10-4.47717,10-10c0-.2998-.01904-.59509-.04486-.88818,1.57874.56458,3.27203.88818,5.04486.88818s3.46613-.32361,5.04486-.88818c-.02582.29309-.04486.58838-.04486.88818,0,5.52283,4.47717,10,10,10s10-4.47717,10-10-4.47717-10-10-10c-.29987,0-.59509.01904-.88824.04492.56464-1.57886.88824-3.27209.88824-5.04492s-.32361-3.46606-.88824-5.04492c.29315.02588.58838.04492.88824.04492,5.52283,0,10-4.47717,10-10Zm-20,18.05737c0,1.07275-.86975,1.94263-1.94269,1.94263h-6.11462c-1.07294,0-1.94269-.86987-1.94269-1.94263v-6.11475c0-1.07288.86975-1.94263,1.94269-1.94263h6.11462c1.07294,0,1.94269.86975,1.94269,1.94263v6.11475Z"/></svg>