<?xml version="1.0" encoding="UTF-8"?><svg id="Layer_1" xmlns="http://www.w3.org/2000/svg" viewBox="0 0 50 50"><path d="m25,49.99994c13.80713,0,25-11.19287,25-25S38.80713,0,25,0,0,11.19287,0,24.99994s11.19287,25,25,25Zm0-45.45447c11.27869,0,20.45453,9.1759,20.45453,20.45447s-9.17584,20.45453-20.45453,20.45453S4.54547,36.27869,4.54547,24.99994,13.72131,4.54547,25,4.54547Z"/><path d="m25,40.90906c8.78638,0,15.90912-7.12268,15.90912-15.90912s-7.12274-15.909-15.90912-15.909-15.90912,7.12274-15.90912,15.909,7.12274,15.90912,15.90912,15.90912Zm0-27.27264c6.26593,0,11.36365,5.09772,11.36365,11.36353s-5.09772,11.36365-11.36365,11.36365-11.36365-5.09766-11.36365-11.36365,5.09772-11.36353,11.36365-11.36353Z"/><path d="m25,31.81812c3.76556,0,6.81818-3.05255,6.81818-6.81818s-3.05261-6.81818-6.81818-6.81818-6.81818,3.05261-6.81818,6.81818,3.05261,6.81818,6.81818,6.81818Zm0-9.09088c1.25317,0,2.27271,1.01953,2.27271,2.27271s-1.01953,2.27277-2.27271,2.27277-2.27271-1.01959-2.27271-2.27277,1.01953-2.27271,2.27271-2.27271Z"/></svg>