<?xml version="1.0" encoding="UTF-8"?><svg id="Layer_1" xmlns="http://www.w3.org/2000/svg" viewBox="0 0 50 50"><path d="m1.57898,50h8.42102c.87201,0,1.57892-.70691,1.57892-1.57892v-7.36841c0-.40625.15778-.77289.40979-1.05267h8.01129c.87201,0,1.57892-.70691,1.57892-1.57892v-7.36841c0-.40625.15778-.77289.40979-1.05267h6.02258c.25201.27979.40979.64642.40979,1.05267v7.36835c0,.87201.70691,1.57898,1.57898,1.57898h8.01123c.25201.27979.40979.64642.40979,1.05267v7.36841c0,.87201.70691,1.57892,1.57892,1.57892h8.42102c.87207,0,1.57898-.70697,1.57898-1.57898v-8.42102c0-.87201-.70691-1.57892-1.57892-1.57892h-7.36841c-.40625,0-.77289-.15778-1.05267-.40979v-8.01129c0-.87201-.70691-1.57892-1.57892-1.57892h-7.36841c-.40625,0-.77289-.15778-1.05267-.40979v-6.02258c.27979-.25201.64642-.40979,1.05267-.40979h7.36835c.87207,0,1.57898-.70697,1.57898-1.57898v-8.01123c.27979-.25201.64642-.40979,1.05267-.40979h7.36835c.87207,0,1.57898-.70697,1.57898-1.57898V1.57886c0-.87195-.70691-1.57886-1.57892-1.57886h-8.42108c-.87201,0-1.57892.70691-1.57892,1.57892v7.36841c0,.40625-.15778.77289-.40979,1.05267h-8.01129c-.87201,0-1.57892.70691-1.57892,1.57892v7.36841c0,.40625-.15778.77289-.40979,1.05267h-6.02258c-.25201-.27979-.40979-.64642-.40979-1.05267v-7.36841c0-.87201-.70691-1.57892-1.57892-1.57892h-8.01129c-.25201-.27979-.40979-.64642-.40979-1.05267V1.57892c0-.87201-.70691-1.57892-1.57892-1.57892H1.57892C.70691,0,0,.70691,0,1.57892v8.42102c0,.87201.70691,1.57898,1.57898,1.57898h7.36835c.40625,0,.77289.15778,1.05267.40979v8.01123c0,.87201.70691,1.57898,1.57898,1.57898h7.36835c.40625,0,.77289.15778,1.05267.40979v6.02258c-.27979.25201-.64642.40979-1.05267.40979h-7.36835c-.87207,0-1.57898.70691-1.57898,1.57898v8.01123c-.27979.25201-.64642.40979-1.05267.40979H1.57898c-.87207,0-1.57898.70691-1.57898,1.57898v8.42096c0,.87201.70691,1.57898,1.57898,1.57898Z"/></svg>