<?xml version="1.0" encoding="UTF-8"?><svg id="Layer_1" xmlns="http://www.w3.org/2000/svg" viewBox="0 0 50 50"><path d="m3.53906,10c.93866,0,1.83881-.37286,2.5025-1.03656l2.92188-2.92188c.6637-.6637,1.03656-1.5639,1.03656-2.5025,0-1.95459-1.58447-3.53906-3.53906-3.53906-.93866,0-1.83881.37286-2.5025,1.03656L1.03656,3.95844c-.6637.6637-1.03656,1.56384-1.03656,2.5025,0,1.95453,1.58447,3.53906,3.53906,3.53906Z"/><path d="m46.46094,40c-.93866,0-1.83881.37286-2.5025,1.03656l-2.92188,2.92188c-.6637.6637-1.03656,1.56384-1.03656,2.5025,0,1.95453,1.58447,3.53906,3.53906,3.53906.93866,0,1.83881-.37286,2.5025-1.03656l2.92188-2.92188c.6637-.6637,1.03656-1.5639,1.03656-2.5025,0-1.95459-1.58447-3.53906-3.53906-3.53906Z"/><path d="m33.53906,20c.93866,0,1.83881-.37286,2.5025-1.03656l2.92188-2.92188c.6637-.6637,1.03656-1.5639,1.03656-2.5025,0-1.95459-1.58447-3.53906-3.53906-3.53906-.93866,0-1.83881.37286-2.5025,1.03656l-2.92188,2.92188c-.6637.6637-1.03656,1.56384-1.03656,2.5025,0,1.95453,1.58447,3.53906,3.53906,3.53906Z"/><path d="m46.46094,0c-.93866,0-1.83881.37286-2.5025,1.03656l-2.92188,2.92188c-.6637.6637-1.03656,1.56384-1.03656,2.5025,0,1.95453,1.58447,3.53906,3.53906,3.53906.93866,0,1.83881-.37286,2.5025-1.03656l2.92188-2.92188c.6637-.6637,1.03656-1.5639,1.03656-2.5025,0-1.95459-1.58447-3.53906-3.53906-3.53906Z"/><path d="m23.53906,30c.93866,0,1.83881-.37286,2.5025-1.03656l2.92188-2.92188c.6637-.6637,1.03656-1.5639,1.03656-2.5025,0-1.95459-1.58447-3.53906-3.53906-3.53906-.93866,0-1.83881.37286-2.5025,1.03656l-2.92188,2.92188c-.6637.6637-1.03656,1.56384-1.03656,2.5025,0,1.95453,1.58447,3.53906,3.53906,3.53906Z"/><path d="m16.46094,30c-.93866,0-1.83881.37286-2.5025,1.03656l-2.92188,2.92188c-.6637.6637-1.03656,1.56384-1.03656,2.5025,0,1.95453,1.58447,3.53906,3.53906,3.53906.93866,0,1.83881-.37286,2.5025-1.03656l2.92188-2.92188c.6637-.6637,1.03656-1.5639,1.03656-2.5025,0-1.95459-1.58447-3.53906-3.53906-3.53906Z"/><path d="m3.53906,50c.93866,0,1.83881-.37286,2.5025-1.03656l2.92188-2.92188c.6637-.6637,1.03656-1.5639,1.03656-2.5025,0-1.95459-1.58447-3.53906-3.53906-3.53906-.93866,0-1.83881.37286-2.5025,1.03656l-2.92188,2.92188c-.6637.6637-1.03656,1.56384-1.03656,2.5025,0,1.95453,1.58447,3.53906,3.53906,3.53906Z"/><path d="m3.53906,30c.93866,0,1.83881-.37286,2.5025-1.03656L28.96344,6.04156c.6637-.6637,1.03656-1.5639,1.03656-2.5025,0-1.95459-1.58447-3.53906-3.53906-3.53906-.93866,0-1.83881.37286-2.5025,1.03656L1.03656,23.95844c-.6637.6637-1.03656,1.56384-1.03656,2.5025,0,1.95453,1.58447,3.53906,3.53906,3.53906Z"/><path d="m23.53906,50c.93866,0,1.83881-.37286,2.5025-1.03656l22.92188-22.92188c.6637-.6637,1.03656-1.5639,1.03656-2.5025,0-1.95459-1.58447-3.53906-3.53906-3.53906-.93866,0-1.83881.37286-2.5025,1.03656l-22.92188,22.92188c-.6637.6637-1.03656,1.56384-1.03656,2.5025,0,1.95453,1.58447,3.53906,3.53906,3.53906Z"/></svg>