<?xml version="1.0" encoding="UTF-8"?><svg id="Layer_1" xmlns="http://www.w3.org/2000/svg" viewBox="0 0 50 50"><path d="m.08331,42.83856c0,3.90912,3.16895,7.07812,7.07812,7.07812,1.87726,0,3.67761-.74573,5.005-2.07312l12.83356-12.83356,12.83356,12.83356c1.32739,1.32739,3.12775,2.07312,5.005,2.07312,3.90918,0,7.07812-3.16901,7.07812-7.07812,0-1.87726-.74573-3.67761-2.07312-5.005l-12.83356-12.83356,12.83356-12.83356c1.32739-1.32745,2.07312-3.12781,2.07312-5.005,0-3.90918-3.16895-7.07819-7.07812-7.07819-1.87726,0-3.67761.74573-5.005,2.07318l-12.83356,12.83356L12.16644,2.15643C10.83905.82898,9.0387.08325,7.16144.08325,3.25226.08325.08331,3.25226.08331,7.16144c0,1.8772.74573,3.67755,2.07312,5.005l12.83356,12.83356-12.83356,12.83356c-1.32739,1.32739-2.07312,3.12775-2.07312,5.005Z"/></svg>