<?xml version="1.0" encoding="UTF-8"?><svg id="Layer_1" xmlns="http://www.w3.org/2000/svg" viewBox="0 0 50 50"><path d="m32.31958,20.65454c.58441-.58447,1.37708-.91272,2.20361-.91272h4.96045c.82654,0,1.6192-.32837,2.20361-.91272l7.39996-7.40002c1.21704-1.21692,1.21704-3.19019,0-4.40723l-6.10907-6.10901c-1.21704-1.21704-3.19025-1.21704-4.40729,0l-7.3999,7.3999c-.58447.58447-.91278,1.37708-.91278,2.20361v4.96045c0,.82654-.32837,1.61914-.91278,2.20361l-2.14178,2.14185c-1.21704,1.21704-3.19019,1.21704-4.40723,0l-2.14178-2.14185c-.58441-.58447-.91278-1.37708-.91278-2.20361v-4.96045c0-.82654-.32831-1.61914-.91278-2.20361L11.42914.91284c-1.21704-1.21704-3.19025-1.21704-4.40729,0L.91278,7.02185c-1.21704,1.21704-1.21704,3.19031,0,4.40723l7.39996,7.40002c.58441.58435,1.37708.91272,2.20361.91272h4.96045c.82654,0,1.6192.32825,2.20361.91272l2.14178,2.14185c1.21704,1.21704,1.21704,3.19019,0,4.40723l-2.14178,2.14185c-.58441.58435-1.37708.91272-2.20361.91272h-4.96045c-.82654,0-1.6192.32825-2.20361.91272l-7.39996,7.3999c-1.21704,1.21704-1.21704,3.19031,0,4.40723l6.10907,6.10913c1.21704,1.21704,3.19025,1.21704,4.40729,0l7.3999-7.3999c.58447-.58447.91278-1.37708.91278-2.20361v-4.96045c0-.82654.32837-1.61914.91278-2.20361l2.14178-2.14185c1.21704-1.21704,3.19019-1.21704,4.40723,0l2.14178,2.14185c.58441.58447.91278,1.37708.91278,2.20361v4.96045c0,.82654.32831,1.61914.91278,2.20361l7.3999,7.3999c1.21704,1.21704,3.19025,1.21704,4.40729,0l6.10907-6.10913c1.21704-1.21692,1.21704-3.19019,0-4.40723l-7.39996-7.3999c-.58441-.58447-1.37708-.91272-2.20361-.91272h-4.96045c-.82654,0-1.6192-.32837-2.20361-.91272l-2.14178-2.14185c-1.21704-1.21704-1.21704-3.19019,0-4.40723l2.14178-2.14185Z"/></svg>