<?xml version="1.0" encoding="UTF-8"?><svg id="Layer_1" xmlns="http://www.w3.org/2000/svg" viewBox="0 0 50 50"><circle cx="5.76923" cy="5.76923" r="5.76923"/><circle cx="44.23077" cy="44.23077" r="5.76923"/><circle cx="5.76923" cy="44.23077" r="5.76923"/><circle cx="44.23077" cy="5.76923" r="5.76923"/><path d="m19.42468,42.79034c-.03052.11597-.05872.23285-.08496.36102-.01831.06714-.0343.13519-.04462.2052-.00891.06244-.0141.12347-.02069.22064-.01123.09857-.01971.1972-.02582.29999-.00842.14178-.01123.28174-.00983.41974.0014.10474.0033.20892.01031.30798.0094.15546.02771.30756.05115.47565.00519.05914.01129.11786.04132.25635.05164.26617.11835.52631.20709.78217l.03564.08966c.08502.23242.185.45544.29865.67377l.08026.1474c.12396.22302.26056.43665.43896.67798.33899.44696.74371.84369,1.19629,1.17377l.12537.08917c.18781.13055.38403.24982.60706.3681l.12915.06946c.23145.11414.4704.21362.71924.29626.06384.02112.12817.03851.25964.07324.17511.04883.3526.09113.50708.11877l.1803.039c.05585.008.11029.01221.17462.01593.11505.0141.23102.0235.3526.03149.11646.00659.23145.0108.3465.0108s.23004-.00421.3512-.01129c.11737-.00702.23285-.01691.35773-.03101l.16528-.01642c.06104-.00891.12067-.02252.1535-.03333.18219-.03284.36108-.07556.59253-.13989.06812-.0174.13525-.03571.20093-.05774.24792-.08221.48828-.18219.71698-.29486l.15118-.08173c.20325-.10748.39856-.22626.60565-.36945l.09949-.07141c.45966-.33521.86438-.73193,1.23059-1.2179.15167-.20374.28827-.41687.41595-.646l.07794-.14319c.11224-.21643.21271-.43994.29297-.65967l.04132-.10565c.08685-.25116.15356-.51129.19019-.71454l.03473-.14276c.01031-.06012.01691-.11877.02252-.19293.02252-.15118.04041-.30334.05023-.45636.00659-.10474.00891-.20752.01031-.30988.0014-.13947-.0014-.27893-.00983-.42303-.0061-.09955-.01459-.1991-.02863-.33337-.00378-.06146-.00897-.12299-.01831-.18634-.01038-.06952-.02631-.13666-.047-.21082-.02301-.11975-.05115-.23761-.08026-.34747-.04224-.16522-.08734-.32819-.14886-.5033-.28076-.77185-.14551-1.58923.30145-2.08081.27985-.26105.60516-.46857.97095-.61975.36572.21692.75214.39111,1.15448.5202.29016.09296.58734.16248.88409.2066.70374.10376,1.40613.08307,2.08881-.06293.65399-.13989,1.27466-.39154,1.84509-.74841.3681-.23096.71179-.50421,1.02216-.8136.95026-.95123,1.54132-2.20947,1.66437-3.54285.04321-.46436.03003-.93951-.03992-1.41278-.10516-.71173-.35449-1.40753-.72681-2.03857.14789-.36292.34509-.67792.56763-.91876.54321-.49908,1.35925-.63574,2.14563-.34937.16058.05731.32538.10236.48407.14276.11597.03052.23285.05865.36102.08496.06714.01831.13525.0343.2052.04462.06244.00891.12347.0141.22064.02063.09863.01129.1972.01978.30005.02588.1413.00891.28119.01312.41974.00983.10468-.0014.20892-.0033.30798-.01031.1554-.0094.3075-.02771.47559-.05121.05914-.00513.11786-.01123.25635-.04132.26575-.05164.52582-.11829.77747-.20514l.09253-.03711c.23285-.08447.45679-.185.67981-.30096l.14087-.07745c.22302-.12347.43713-.26056.6803-.43988.44696-.33899.84369-.74371,1.17938-1.20386l.08405-.11829c.13007-.18781.24884-.38312.36951-.60944l.06714-.12531c.11407-.23151.21411-.47186.29626-.71881.02203-.06671.04034-.13385.07227-.25732.0498-.17603.09253-.35492.12024-.5108l.03894-.1803c.008-.05585.01221-.11035.01599-.17462.01404-.11505.02393-.23053.03143-.3526.00659-.11646.0108-.23151.0108-.3465,0-.11505-.00421-.23004-.01129-.3512-.00702-.11737-.01691-.23285-.03094-.35779l-.01648-.16522c-.00891-.06104-.02252-.12067-.03333-.15356-.03284-.18213-.07556-.36102-.13989-.59247-.0174-.06812-.03571-.13525-.05774-.20099-.08215-.24786-.18219-.48828-.29486-.71692l-.08167-.15118c-.10754-.20331-.22632-.39862-.36951-.60565l-.07135-.09955c-.33527-.45959-.73199-.86432-1.2179-1.23053-.20422-.1521-.41833-.28925-.63574-.40942l-.1521-.08356c-.21741-.11316-.44135-.21362-.6554-.29156l-.11133-.04364c-.25165-.08685-.51172-.15356-.71411-.19019l-.14178-.03424c-.06006-.0108-.11877-.01691-.19391-.0235-.1521-.02203-.3042-.04034-.45209-.04932-.10657-.00751-.21082-.00934-.31409-.0108-.13898-.00281-.27936.00098-.42303.00989-.10095.0061-.19952.01453-.33337.02863-.06195.00378-.12299.00891-.18591.01831-.06946.00989-.13757.02582-.21411.04694-.11877.0235-.23566.0517-.3432.08032-.16711.04224-.33191.08734-.50519.1488-.77325.28076-1.59015.14465-2.08081-.30139-.26477-.28406-.47467-.61456-.62585-.98688.09955-.16809.19159-.33997.27515-.52118.04504-.09955.08545-.20001.1488-.35773.03809-.08545.07471-.17188.10236-.25964.03381-.10565.05823-.21503.08075-.32446l.03522-.15582c.01831-.07281.03619-.14606.0498-.21552l.04083-.18921c.03802-.25684.05493-.50989.05914-.76813.00378-.03522.00568-.07086.00568-.10706l.00092-.04083-.00989-.06903c-.00702-.35071-.04132-.68591-.09576-.96198l-.01831-.10986c-.06476-.31128-.16241-.62677-.29858-.96533l-.07043-.17181c-.13147-.29956-.28687-.58545-.46246-.8512l-.09857-.13989c-.3855-.54791-.85828-1.02075-1.4386-1.42969l-.10889-.07648c-.26434-.17419-.55029-.32959-.85638-.46387l-.16669-.06812c-.3371-.13568-.65259-.23334-1.03992-.3103-.30988-.06061-.64508-.09485-.92023-.09625l-.11548-.01459-.18689.00568c-.24976.00464-.50238.02155-.76056.05957-.06342.0094-.12537.02399-.1817.03992-.07465.0141-.14789.03192-.28174.06531l-.09485.02014c-.10938.02258-.21875.047-.32208.07983-.09009.02863-.17651.06525-.31689.12769-.10278.039-.20331.07935-.30658.12634-.16852.07745-.33099.16382-.51788.27368-.36945-.1488-.69012-.34882-.93427-.57422-.49908-.54364-.63434-1.36108-.3493-2.14557.05725-.1601.10187-.32446.14319-.48547.03052-.11646.05865-.23291.08447-.36011l.04462-.20471c.00891-.06195.0141-.12347.02069-.22064.01123-.09863.01971-.19818.02582-.30005.00842-.14178.01123-.28125.00983-.41925-.0014-.10376-.00372-.2066-.01031-.30896-.00983-.1554-.02771-.3075-.05115-.47369-.0047-.05914-.01129-.11786-.04132-.25775-.05164-.26624-.11835-.52631-.2052-.77753l-.03711-.09387c-.08447-.23145-.18494-.45496-.30328-.68311l-.07556-.13806c-.12396-.22253-.26056-.43567-.43945-.67841-.33899-.44696-.74371-.84369-1.2038-1.17938l-.11835-.08405c-.18781-.13007-.38312-.24884-.60938-.36951l-.12537-.06714c-.23151-.11407-.47186-.21411-.71881-.29626-.06665-.02209-.13379-.04041-.25732-.07233-.17603-.04974-.35492-.09247-.5108-.12018l-.1803-.03894c-.05585-.008-.11029-.01221-.17462-.01599-.11505-.0141-.23053-.02393-.3526-.03143-.23285-.01318-.45496-.01361-.69818.00043-.11639.00751-.23236.01691-.35724.03101l-.16528.01642c-.06104.00891-.12067.02258-.1535.03333-.18079.0329-.35828.07513-.60004.14185-.06482.01685-.12915.03424-.19489.05585-.24695.08215-.4859.1817-.71552.29486l-.1507.08167c-.20331.10706-.39954.22632-.58545.35541l-.12067.08594c-.45917.33478-.86389.73151-1.22961,1.21649-.15167.20325-.28827.41687-.42114.65588l-.07233.1333c-.11267.21649-.21265.43945-.29199.65686l-.04321.10938c-.08685.25122-.15356.51129-.19019.71411l-.03424.14178c-.0108.06012-.01691.11884-.0235.19391-.02203.15216-.04034.30426-.04926.45215-.00751.10657-.0094.21082-.0108.31409-.0014.13947.0014.27936.00983.42303.0061.10095.01459.19952.02863.33331.00378.06201.00897.12305.01831.18597.00989.06946.02588.13751.047.21405.02344.11877.05164.23572.08026.3432.04224.16718.08734.33197.14886.50519.28076.77185.14551,1.58929-.30145,2.08087-.28406.26477-.61456.47467-.98688.62579-.16809-.09949-.3399-.19153-.52118-.27509-.09949-.0451-.20001-.08545-.29578-.12164-.24036-.09479-.4873-.17041-.80188-.24554-.07281-.01831-.14606-.03613-.21552-.04974l-.18921-.04083c-.25494-.0376-.5061-.0545-.76202-.05914l-.04083-.00568-.25916.01031c-.11688.00146-.23425.00378-.34979.01459-.19342.01782-.38263.04932-.53522.07983l-.10986.01831c-.31128.06476-.62677.16241-.96527.29858l-.17188.07043c-.2995.13147-.58545.28687-.8512.46246l-.13898.09808c-.30048.21039-.55212.41882-.77045.63715s-.42676.46997-.6601.80188l-.07605.10754-.07843.11359c-.146.23383-.27045.48175-.38593.7442l-.06812.16663c-.13379.33289-.23004.63763-.29388.93573l-.01642.10425c-.06055.30988-.09485.64508-.09625.92023l-.01459.11548.00568.18689c.0047.24976.02161.50232.05963.76056.0094.06342.02393.12537.03992.1817.01404.07465.03192.14789.06525.28174l.0202.09479c.02252.10944.04694.21881.07977.32208.02863.09015.06525.17657.12775.31696.03894.10278.07935.20325.12628.30658.07745.16852.16382.33099.27368.51782-.1488.36951-.34882.69019-.57416.93433-.54321.49908-1.36066.63617-2.14844.34839-.15967-.05634-.32257-.10144-.48126-.14178-.11646-.03101-.23425-.0592-.36102-.08502l-.2052-.04456c-.06195-.00897-.12347-.0141-.22064-.02069-.09863-.01129-.19812-.01971-.30005-.02582-.14081-.008-.28076-.01221-.41925-.00989-.10376.00146-.20654.00378-.3089.01038-.15546.00983-.30756.02771-.47375.05115-.05914.0047-.11786.01129-.25775.04132-.26624.05164-.52631.11835-.78217.20703l-.09155.03662c-.23102.08453-.45306.18408-.67609.29956l-.14087.07745c-.22302.12347-.43713.26062-.6803.43994-.44696.33899-.84369.74371-1.17377,1.19629l-.08917.12537c-.13055.18781-.24982.38403-.3681.60706l-.06952.12909c-.11407.23151-.21362.47046-.29626.7193-.02112.06384-.03845.12817-.07324.25964-.04883.17511-.09106.3526-.11877.50708l-.03894.18024c-.008.05591-.01221.11035-.01599.17468-.01404.11505-.02344.23102-.03143.3526-.00659.11646-.0108.23145-.0108.3465,0,.11499.00421.23004.01129.35162.00751.11646.01691.23242.03094.3573l.01648.16528c.00891.06104.02252.12067.03333.1535.03284.18079.07507.35822.14178.60004.01691.06482.03424.12909.05585.19482.08215.24695.1817.48596.29486.71552l.08167.15076c.10706.20325.22632.39954.35541.58545l.08594.12067c.33478.45917.73151.86389,1.21741,1.2301.20422.1521.41833.28918.66669.42676l.12207.06665c.21649.11224.43854.21179.65405.29114l.11176.04364c.25116.08685.51123.1535.71454.19012l.14276.03479c.06006.01031.11877.01685.19293.02252.15118.02252.30328.04034.45636.05023.10474.00659.20752.00891.30988.01031.14087.0033.27936-.00092.42303-.00983.09955-.0061.19904-.01459.33331-.02869.06152-.00372.12305-.00891.1864-.01831.06952-.01031.13666-.02625.21082-.04694.11975-.02301.23755-.05115.34741-.08026.16528-.0423.32819-.08734.50336-.14886.77136-.28119,1.58972-.14508,2.08081.30145.26105.27979.46857.60516.61975.97137-.37231.63055-.62164,1.32684-.72681,2.03857-.06995.47278-.08313.94794-.03992,1.41132.02441.26807.07275.54041.15167.85779.11597.46619.29199.91931.52393,1.34747.27374.50519.60663.95544.98975,1.33899.38263.3822.83289.71509,1.33899.98926.42725.23145.88031.40753,1.34698.52399.31696.07837.58923.12677.85638.15118.46436.04272.93951.03003,1.41272-.03992.71179-.10516,1.40759-.35449,2.03857-.72729.36298.14838.67798.34607.91882.56812.49908.5437.63434,1.36108.3493,2.14563-.05725.16058-.10236.32538-.1427.48407Zm29.10901-15.65253l.00055.00031-.00055-.00024v-.00006Zm-19.48987,11.33496c-.54321.47797-1.31744.60425-2.06537.34229-.11359-.04181-.23053-.07465-.34833-.10614l-.11084-.03052c-.12067-.03473-.24133-.06854-.3324-.08636l-.16101-.03943c-.07465-.01312-.14746-.02069-.26764-.03101-.12537-.01733-.25073-.03284-.37891-.04132-.25537-.01782-.5033-.01782-.75867,0-.12817.00848-.25311.02399-.42542.04553-.07275.0061-.14551.01367-.22534.02771-.05353.0094-.10565.02301-.12396.03052-.1239.02582-.24457.05963-.36523.09436l-.11084.03052c-.1178.03149-.23474.06433-.33289.10095-.77747.27234-1.56433.13757-2.05499-.30939-.26245-.28076-.4704-.60706-.62115-.97375.03802-.06195.07422-.12537.10944-.18964.28827-.53528.48779-1.10522.59204-1.69397.09015-.50427.1131-1.01556.06897-1.51978l-.01453-.11597c-.05023-.46436-.1521-.9118-.30377-1.32874-.10516-.2901-.15399-.58545-.14417-.87891.0155-.48309.18781-.91693.44556-1.2019.77142-.72021,1.90387-1.02869,3.17853-.84369l.52069.04224.17841-.0061.14038.00848.69391-.05774c1.20337-.16907,2.28882.1366,3.0072.80426.37231.40564.54602.95398.48828,1.54559-.01929.19672-.06433.39435-.13428.58636-.08264.22681-.15118.45966-.20422.69769-.10944.48688-.15356.98877-.13147,1.49115.01123.25543.03894.5141.08545.77655.05304.29626.13049.59155.23096.87701.11877.33899.27747.67419.47327,1.00146-.146.35681-.34601.6756-.59766.95166Zm-7.8576-13.06805l.00024-.00006v.00006h-.00024Zm3.40906,3.409v-.00018h.00006l-.00006.00018Zm12.65912-17.44238l.00006-.00006-.00006.00012v-.00006Zm-6.70911,9.79517c.40283-.36951.95074-.53943,1.5343-.48828.2038.01923.40521.06433.59772.13428.22675.08264.46008.15118.72394.20892.05444.01172.10986.0202.18689.03052.28076.05164.57843.08173.823.08545l.20422.01642c.06104,0,.12024-.00513.09113-.00702l.11548.0033.04413-.00189c.25543-.01129.5141-.03894.8512-.10425.07141-.01361.14087-.03235.25305-.06427.25592-.06201.50519-.13715.74463-.23193.11456-.04462.224-.09534.34698-.15259.14557-.06903.28687-.14368.45215-.24042.36902.14886.6897.34882.93475.57513.49719.54181.63287,1.32684.36292,2.1015-.04034.11035-.07227.22394-.10278.3385l-.03052.11078c-.03479.12067-.06854.24133-.08643.33246l-.03943.16241c-.01312.07422-.02063.14648-.03143.26666-.01691.12585-.03241.25073-.04083.37842-.00897.12775-.0094.25354-.0094.37939,0,.12579.00043.25165.0094.37933.00842.12817.02393.25305.04553.42535.0061.07281.01361.14557.02771.2254.00934.05353.02295.10559.03052.1239.02582.12396.05957.24463.09436.3653l.03052.11078c.03143.11786.06433.2348.10095.33289.27228.77655.13751,1.56439-.30945,2.05505-.28308.26477-.61316.47461-.9845.62579-.17047-.09857-.35077-.19104-.53857-.27649-.47089-.21362-.90753-.354-1.33478-.43011-.34741-.06146-.6925-.09198-1.03381-.09198-.65875,0-1.30475.11407-1.93011.3418-.28967.10565-.58502.15631-.87891.1441-.48315-.0155-.91693-.18781-1.20239-.44556-.73151-.78308-1.04041-1.93011-.84326-3.17853l.04181-.51831c.00189-.03711.00092-.07275-.0014-.10895l-.00421-.07178.00842-.14038-.04883-.60571c-.19293-1.21741.11597-2.36438.79535-3.0954ZM27.13812,1.46576l-.00024.00055h-.00006l.00031-.00055Zm-6.18195,10.0614c.54181-.4798,1.31604-.60516,2.06537-.34222.11359.04175.23053.07465.34833.10608l.11084.03052c.12067.03473.24133.06854.3324.08636l.16241.03949c.07422.01312.14697.02063.26672.03094.12531.0174.25024.0329.37842.04132.25537.01788.5033.01788.75867,0,.12817-.00842.25354-.02393.42584-.04553.07324-.0061.14606-.01361.22491-.02771.05353-.0094.10565-.02301.12396-.03052.1239-.02582.24457-.05963.36523-.09436l.11084-.03052c.1178-.03143.23474-.06433.33289-.10095.77698-.27228,1.56433-.1366,2.05499.30896.26526.28406.4751.61505.62628.98688-.08636.1474-.16663.29956-.24506.46436-.05164.11078-.10236.22015-.146.33191-.09583.24225-.1709.49158-.24512.79065-.01971.06903-.03851.13849-.03522.14038l-.03564.14417c-.04651.26245-.07422.52112-.08545.77887-.00189.04181-.0014.08313.00043.13147l-.0061.11688c0,.06995.00659.13708.0127.14227.00751.30658.03754.60425.09204.90613.0061.04651.01312.09296.01453.09296,0,0,0-.00183-.00043-.00562l.01782.10284c.05353.23944.12207.47278.20422.69812.07043.19391.11548.39532.13477.59863.05444.58685-.11877,1.13196-.43616,1.48267-.78271.73151-1.93109,1.03998-3.17853.8432l-.5202-.04224c-.06903-.00372-.13055.00098-.16479.00708-.03339-.00287-.06671-.0047-.10095-.00568l-.04553-.00372-.61365.04883c-1.216.19434-2.36444-.11505-3.09546-.79535-.30988-.33759-.48218-.77142-.49768-1.25543-.00983-.29254.039-.58783.14368-.87708.08545-.23376.15448-.4751.2085-.72205.01172-.0545.02063-.10986.03094-.18781.0517-.27936.08173-.57654.08594-.82819.00989-.06573.01599-.13147.00848-.28876-.00519-.3432-.03241-.65027-.10284-1.01416-.01361-.07184-.03241-.14081-.06384-.25067-.06201-.25592-.13708-.50616-.23193-.74561-.04462-.11456-.09534-.22394-.15259-.34692-.06903-.14557-.14368-.28687-.23993-.45166.146-.35968.34741-.68079.60095-.95923Zm-1.50146,17.30627c-.33759.30988-.77136.48218-1.25543.49768-.29016.0094-.58783-.03894-.87799-.1441-.41687-.15167-.86432-.25354-1.3324-.30475l-.11176-.01361c-.50708-.04456-1.01648-.02112-1.51978.06854-.58923.10474-1.15924.30426-1.69586.59351-.06384.03473-.12677.07086-.18872.10889-.36389-.14838-.67938-.34601-.92163-.56903-.49719-.5423-.63245-1.32727-.36292-2.10193.04034-.11035.07227-.224.10278-.33856l.03052-.11078c.03479-.12067.06854-.24133.08643-.3324l.03943-.16107c.01312-.07465.02063-.1474.03101-.26758.01733-.12537.03284-.25073.04126-.37891.00897-.12769.0094-.25354.0094-.37933,0-.12585-.00043-.25165-.0094-.37939-.00842-.12817-.02393-.25348-.04553-.42584-.0061-.07324-.01361-.146-.02771-.22485-.00934-.05353-.02295-.10565-.03052-.12396-.02582-.12396-.05957-.24463-.09436-.3653l-.03052-.11078c-.03143-.11786-.06433-.23474-.10095-.33289-.27228-.77606-.13708-1.5639.30896-2.05499.28406-.26526.61505-.47516.98737-.62677.14697.08685.29816.16669.45355.24036.11456.05402.22815.10657.35022.1554.06293.03052.12677.05872.18732.07983.15027.05353.30658.09155.46387.12769l.12677.03192c.06952.02069.13336.05072.14508.03662l.14417.03571c.26245.04651.52112.07416.77887.08545.04272.00281.08264.0014.13147-.00049l.11694.0061c.06995,0,.13708-.00653.14221-.01263.30658-.00751.60425-.0376.90613-.09204.03571-.0047.07141-.00989.11035-.01691l.08075-.01501c.23901-.05353.47186-.12207.69769-.20422.19299-.07043.39062-.11554.58826-.13477.5874-.05444,1.13855.11597,1.49255.43616.7193.77045,1.02356,1.85687.8573,3.05414l-.05634.64459.0061.17889-.00793.13898.03284.38971c.00049.05304.0033.10608.00702.13849l.0127.12299c.17889,1.20148-.13147,2.33252-.79956,3.05127Z"/></svg>