<?xml version="1.0" encoding="UTF-8"?><svg id="Layer_1" xmlns="http://www.w3.org/2000/svg" viewBox="0 0 50 50"><path d="m0,16.651c.00714,0,.01404-.0011.02118-.0011v.01221c4.59106.01221,8.30933,3.73657,8.30933,8.33057h8.3316c0-.00342-.00049-.00671-.00049-.01001h.00049c.01221-4.59106,3.73663-8.30933,8.33057-8.30933v-.01123h.0011v-8.33154c-4.59113-.01221-8.30939-3.73669-8.30939-8.33057h-8.3316c0,.00342.00049.00659.00049.01001h-.02277c-.01221,4.59106-3.73663,8.30933-8.33051,8.30933v8.33167Zm7.6709-6.39978l.02673-.02673,2.54126-2.54126.01288-.01282c1.23993-1.23999,3.25031-1.23999,4.49023,0l.02283.02271,2.53784,2.53784.0202.02026c1.23993,1.23999,1.23993,3.25024,0,4.49023l-.01984.01978-2.53387,2.53394-.02716.0271c-1.23993,1.23999-3.25031,1.23999-4.49023,0l-.02362-.02368-2.53741-2.53735-.01984-.01978c-1.23993-1.23999-1.23993-3.25024,0-4.49023Z"/><path d="m50,8.33057c-4.59106-.01221-8.30933-3.73669-8.30933-8.33057h-8.33167c0,.00342.00049.00659.00049.01001h-.02277c-.01221,4.59106-3.73663,8.30933-8.33051,8.30933v8.33167c.00714,0,.01404-.0011.02118-.0011v.01221c4.59106.01221,8.30933,3.73657,8.30933,8.33057h8.33167c0-.00342-.00049-.00671-.00049-.01001h.00049c.01221-4.59106,3.73657-8.30933,8.33051-8.30933v-.01123h.0011v-8.33154Zm-7.6709,6.41089l-.01984.01978-2.53387,2.53394-.02716.0271c-1.23993,1.23999-3.25031,1.23999-4.49023,0l-.02362-.02368-2.53741-2.53735-.01984-.01978c-1.23993-1.23999-1.23993-3.25024,0-4.49023l.02673-.02673,2.54126-2.54126.01288-.01282c1.23993-1.23999,3.25031-1.23999,4.49023,0l.02289.02283,2.53778,2.53772.0202.02026c1.23993,1.23999,1.23993,3.25024,0,4.49023Z"/><path d="m0,41.65833c.00714,0,.01404-.0011.02118-.0011v.01221c4.59106.01221,8.30933,3.73657,8.30933,8.33057h8.3316c0-.00342-.00049-.00659-.00049-.01001h.00049c.01221-4.59106,3.73663-8.30933,8.33057-8.30933v-.01123h.0011v-8.33154c-4.59113-.01221-8.30939-3.73657-8.30939-8.33057h-8.3316c0,.00342.00049.00659.00049.01001h-.02277c-.01221,4.59106-3.73663,8.30933-8.33051,8.30933v8.33167Zm7.6709-6.39978l.02673-.02673,2.54126-2.54126.01288-.01282c1.23993-1.23999,3.25031-1.23999,4.49023,0l.02283.02271,2.5379,2.53796.02014.02014c1.23993,1.23999,1.23993,3.25024,0,4.49023l-.01984.01978-2.53387,2.53394-.02716.0271c-1.23993,1.23999-3.25031,1.23999-4.49023,0l-.02362-.02356-2.53741-2.53748-.01984-.01978c-1.23993-1.23999-1.23993-3.25024,0-4.49023Z"/><path d="m50,33.33789c-4.59106-.01221-8.30933-3.73657-8.30933-8.33057h-8.33167c0,.00342.00049.00659.00049.01001h-.02277c-.01221,4.59106-3.73663,8.30933-8.33051,8.30933v8.33167c.00714,0,.01404-.0011.02118-.0011v.01221c4.59106.01221,8.30933,3.73657,8.30933,8.33057h8.33167c0-.00342-.00049-.00659-.00049-.01001h.00049c.01221-4.59106,3.73657-8.30933,8.33051-8.30933v-.01123h.0011v-8.33154Zm-7.6709,6.41089l-.01984.01978-2.53387,2.53394-.02716.0271c-1.23993,1.23999-3.25031,1.23999-4.49023,0l-.02362-.02356-2.53741-2.53748-.01984-.01978c-1.23993-1.23999-1.23993-3.25024,0-4.49023l.02673-.02673,2.54126-2.54126.01288-.01282c1.23993-1.23999,3.25031-1.23999,4.49023,0l.02289.02283,2.53784,2.53784.02014.02014c1.23993,1.23999,1.23993,3.25024,0,4.49023Z"/></svg>