<?xml version="1.0" encoding="UTF-8"?><svg id="Layer_1" xmlns="http://www.w3.org/2000/svg" viewBox="0 0 50 50"><path d="m0,45.29944c0,2.59607,2.10449,4.70056,4.70056,4.70056h8.58154c1.90582,0,3.62299-1.15076,4.34753-2.91345l4.70715-11.45117c.23303-.56702.35297-1.17419.35297-1.78711v-1.98694c0-2.59595-2.10449-4.70044-4.70056-4.70044h-5.89038c-.49939,0-.99567.07959-1.47003.23584l-7.39825,2.43579c-1.92786.63477-3.23053,2.43506-3.23053,4.46484v11.00208Z"/><path d="m50,34.29736c0-2.02979-1.30267-3.83008-3.23053-4.46484l-7.39825-2.43579c-.47437-.15625-.97064-.23584-1.47003-.23584h-5.89038c-2.59607,0-4.70056,2.10449-4.70056,4.70044v1.98694c0,.61292.11993,1.22009.35297,1.78711l4.70715,11.45117c.72455,1.7627,2.44171,2.91345,4.34753,2.91345h8.58154c2.59607,0,4.70056-2.10449,4.70056-4.70056v-11.00208Z"/><path d="m0,15.70264c0,2.02966,1.30267,3.83008,3.23053,4.46484l7.39825,2.43579c.47437.15625.97064.23584,1.47003.23584h5.89038c2.59607,0,4.70056-2.10449,4.70056-4.70056v-1.98694c0-.61304-.11993-1.22009-.35297-1.78711l-4.70715-11.45117c-.72455-1.7627-2.44171-2.91333-4.34753-2.91333H4.70056C2.10449,0,0,2.10449,0,4.70044v11.0022Z"/><path d="m50,4.70044c0-2.59595-2.10449-4.70044-4.70056-4.70044h-8.58154c-1.90582,0-3.62299,1.15063-4.34753,2.91333l-4.70715,11.45117c-.23303.56702-.35297,1.17407-.35297,1.78711v1.98694c0,2.59607,2.10449,4.70056,4.70056,4.70056h5.89038c.49939,0,.99567-.07959,1.47003-.23584l7.39825-2.43579c1.92786-.63477,3.23053-2.43518,3.23053-4.46484V4.70044Z"/></svg>