<?xml version="1.0" encoding="UTF-8"?><svg id="Layer_1" xmlns="http://www.w3.org/2000/svg" viewBox="0 0 50 50"><path d="m43.2962,42.5683c2.1734-2.21564,3.91266-4.87988,5.03003-7.70422,1.10956-2.7962,1.6488-5.86499,1.55829-8.87659-.09149-2.9892-.80499-5.99048-2.06439-8.6781-1.24579-2.6745-3.08246-5.15424-5.31128-7.17041-2.20648-1.99841-4.8587-3.59601-7.66473-4.61951-2.77197-1.01886-5.75415-1.50208-8.81708-1.42902l-.00397,1.91785c2.69025.06927,5.40771.66956,7.86041,1.73615,2.42157,1.0498,4.66302,2.59021,6.48309,4.45563,1.81134,1.85138,3.25281,4.06982,4.16962,6.41565.91394,2.32239,1.35193,4.87048,1.26923,7.36896-.08472,2.47595-.68231,4.95758-1.73151,7.17883-1.03949,2.20911-2.56268,4.25336-4.40326,5.91089-1.82495,1.64343-4.01385,2.95355-6.33221,3.79071-2.28534.82788-4.79547,1.22491-7.25208,1.14624-.3338-.01215-.66571-.03278-.99957-.06085-2.11981-.17889-4.15887-.69299-6.06171-1.52734-2.17145-.95148-4.17834-2.34021-5.80377-4.01648-.10803-.11237-.21515-.22565-.32117-.34088.08655.08057.17322.15924.26178.23792,1.72955,1.53857,3.80273,2.76343,5.99359,3.53882,1.85803.66205,3.81824,1.01514,5.83008,1.05072.33868.00464.67737.00562,1.01996-.00842,2.29407-.0899,4.59106-.62183,6.63989-1.53864,2.03809-.90643,3.91754-2.22498,5.43585-3.81323,1.50281-1.57227,2.69604-3.45361,3.44934-5.4389.74945-1.96375,1.09497-4.10822,1.00153-6.20306-.09143-2.07141-.61609-4.14752-1.51733-6.00171-.88763-1.83636-2.18121-3.53131-3.73938-4.89948-1.53589-1.35223-3.37354-2.42542-5.31134-3.10059-1.87555-.6593-3.88635-.96179-5.96729-.89526V.03467l-1.06281.06836c-3.19635.20508-6.271.93365-9.13544,2.16504-3.16321,1.35321-6.09479,3.34595-8.47742,5.76294-2.36707,2.40015-4.26404,5.29095-5.48651,8.35876C.61804,19.4314.02338,22.76886.11487,26.04181c.09149,3.25043.86139,6.51862,2.22595,9.4516,1.3548,2.92267,3.34717,5.62897,5.7619,7.82776,2.39819,2.18475,5.28503,3.93408,8.34698,5.05872,2.71747,1.00391,5.58875,1.53583,8.53394,1.58167.15863.00281.31628.00378.47491.00378.20636,0,.4137-.00189.62006-.00751,3.24207-.08801,6.50061-.80157,9.42151-2.06396,2.90918-1.25293,5.60522-3.09497,7.79608-5.32556Zm-20.55408-16.56866c.12262-.74164.54504-1.39996,1.16016-1.8064.35138-.23224.75525-.36993,1.16699-.39703l.92755-.06183v-3.89941c1.4989.16766,2.9364.91681,3.88245,2.03589.92761,1.0769,1.38696,2.52374,1.22833,3.87878-.13824,1.27917-.80005,2.45258-1.82202,3.22327-.94116.72009-2.14124,1.04602-3.28387.89899-.22583-.02716-.45453-.07678-.70081-.15173-.77087-.23505-1.44928-.6911-1.91058-1.28668-.55481-.71075-.79132-1.5957-.64819-2.43384Zm-4.50934,7.2959c1.06293.89337,2.3233,1.59009,3.6441,2.01526.99469.32306,2.03809.49817,3.09991.52161.32703.00653.64917,0,.97229-.02246,1.3432-.09271,2.67755-.44482,3.85822-1.01794,1.16498-.56372,2.22687-1.36157,3.07263-2.30835.83026-.92993,1.47559-2.0293,1.86395-3.18018.38342-1.1275.5343-2.34863.43597-3.52765-.1839-2.328-1.3363-4.50055-3.15833-5.9549-.87207-.70514-1.89789-1.24829-2.96368-1.57043-.96063-.29401-1.98944-.41486-3.06104-.35864v-4.97632c1.71106.07495,3.44061.48792,5.00659,1.19678,1.54956.7005,2.97736,1.71466,4.12976,2.93488,1.13971,1.20331,2.03809,2.63702,2.59772,4.14569.55475,1.48517.80499,3.10803.72412,4.69067-.08173,1.56293-.48761,3.12115-1.17279,4.50616-.67743,1.37286-1.65265,2.63428-2.82068,3.64752-1.15332,1.00104-2.52667,1.78857-3.97101,2.28021-1.43854.48981-2.94128.70331-4.47235.62091-.29877-.01501-.59467-.0459-.88666-.0824-1.19812-.15265-2.33978-.4776-3.39386-.96643-1.29938-.60028-2.49261-1.46277-3.45227-2.49377-.07208-.07867-.14404-.15826-.21417-.23883.05353.04688.10706.09271.16156.13861Z"/></svg>