<?xml version="1.0" encoding="UTF-8"?><svg id="Layer_1" xmlns="http://www.w3.org/2000/svg" viewBox="0 0 50 50"><path d="m25.14838,16.24683c0-2.3457-.93188-4.59521-2.59052-6.25391l-7.40247-7.40234c-1.65863-1.65869-3.90826-2.59058-6.25397-2.59058C4.01666,0,.05695,3.95984.05695,8.84448H.05695c0,2.3457.93176,4.59546,2.59039,6.25403l7.40247,7.40247c1.65863,1.65869,3.90826,2.59045,6.25397,2.59045h.00012c4.88464,0,8.84448-3.95984,8.84448-8.84448v-.00012Z"/><path d="m15.12457,27.61646c-1.65875-1.65869-3.90839-2.59058-6.25409-2.59058C3.98578,25.02588.026,28.98584.026,33.87048c0,2.3457.93182,4.59534,2.59045,6.25403l7.28503,7.28491c1.65863,1.65869,3.9082,2.59058,6.25397,2.59058,4.88477,0,8.84448-3.95984,8.84448-8.84448,0-2.3457-.93176-4.59546-2.59039-6.25415l-7.28497-7.28491Z"/><path d="m47.38348,9.92749l-7.28497-7.28503C38.43982.98376,36.19025.052,33.84448.052c-4.88464,0-8.84454,3.95972-8.84454,8.84448,0,2.3457.93182,4.59534,2.59058,6.25403l7.28491,7.28503c1.65875,1.65857,3.90833,2.59033,6.25409,2.59033,4.88464,0,8.84448-3.95972,8.84448-8.84448,0-2.3457-.93176-4.59534-2.59052-6.25391Z"/><path d="m34.59967,47.05078c1.65863,1.65869,3.90826,2.59058,6.25397,2.59058,4.88477,0,8.8446-3.95996,8.8446-8.8446,0-2.3457-.93188-4.59534-2.59052-6.25403l-6.86078-6.86084c-1.65875-1.65869-3.90839-2.59045-6.25409-2.59045-4.8847,0-8.84448,3.95984-8.84448,8.8446,0,2.3457.93182,4.59521,2.59045,6.25391l6.86084,6.86084Z"/></svg>