<?xml version="1.0" encoding="UTF-8"?><svg id="Layer_1" xmlns="http://www.w3.org/2000/svg" viewBox="0 0 50 50"><path d="m41.86664,12.5h5.01672c1.72125,0,3.11664-1.39539,3.11664-3.1167V3.1167c0-1.72144-1.39539-3.1167-3.11664-3.1167h-6.26672c-1.72125,0-3.11664,1.39526-3.11664,3.1167v5.0166c0,1.72131-1.39539,3.1167-3.11664,3.1167h-1.00403c-.8266,0-1.61932-.32837-2.2038-.91284l-.2627-.2627c-.58447-.58447-.91284-1.3772-.91284-2.20386V3.1167c0-1.72144-1.39539-3.1167-3.11664-3.1167h-3.76672c-1.72125,0-3.11664,1.39526-3.11664,3.1167v4.88562c0,.82654-.32837,1.61938-.9129,2.20386l-.13098.13098c-.58447.58447-1.3772.91284-2.20374.91284h-1.13574c-1.72125,0-3.11664-1.39539-3.11664-3.1167V3.1167c0-1.72144-1.39539-3.1167-3.11664-3.1167H3.11664C1.39539,0,0,1.39526,0,3.1167v6.2666c0,1.72131,1.39539,3.1167,3.11664,3.1167h5.01672c1.72125,0,3.11664,1.39526,3.11664,3.1167v1.1355c0,.82654-.32837,1.61938-.9129,2.20386l-.13116.1311c-.58447.58447-1.3772.91284-2.20374.91284H3.11664c-1.72125,0-3.11664,1.39526-3.11664,3.1167v3.7666c0,1.72131,1.39539,3.1167,3.11664,3.1167h4.88538c.8266,0,1.61932.32837,2.2038.91284l.13135.13135c.58447.58447.91284,1.3772.91284,2.20386v1.13525c0,1.72131-1.39539,3.1167-3.11664,3.1167H3.11664c-1.72125,0-3.11664,1.39526-3.11664,3.1167v6.2666c0,1.72131,1.39539,3.1167,3.11664,3.1167h6.26672c1.72125,0,3.11664-1.39539,3.11664-3.1167v-5.0166c0-1.72144,1.39539-3.1167,3.11664-3.1167h1.13538c.8266,0,1.61932.32837,2.2038.91284l.13135.13135c.58447.58447.91284,1.3772.91284,2.20386v4.88525c0,1.72131,1.39539,3.1167,3.11664,3.1167h3.76672c1.72125,0,3.11664-1.39539,3.11664-3.1167v-4.88525c0-.82654.32837-1.61926.9129-2.20374l.13147-.13147c.58447-.58447,1.3772-.91284,2.20374-.91284h1.13525c1.72125,0,3.11664,1.39526,3.11664,3.1167v5.0166c0,1.72131,1.39539,3.1167,3.11664,3.1167h6.26672c1.72125,0,3.11664-1.39539,3.11664-3.1167v-6.2666c0-1.72144-1.39539-3.1167-3.11664-3.1167h-5.01672c-1.72125,0-3.11664-1.39539-3.11664-3.1167v-1.13501c0-.82666.32837-1.61938.9129-2.20386l.13165-.13159c.58447-.58447,1.3772-.91284,2.20374-.91284h4.88507c1.72125,0,3.11664-1.39539,3.11664-3.1167v-3.7666c0-1.72144-1.39539-3.1167-3.11664-3.1167h-4.75403c-.8266,0-1.61932-.32837-2.2038-.91284l-.2627-.2627c-.58447-.58447-.91284-1.3772-.91284-2.20386v-1.00391c0-1.72144,1.39539-3.1167,3.11664-3.1167Zm-24.64447,15.6333c0,1.72131-1.39539,3.1167-3.11664,3.1167h-.85754c-.8266,0-1.61932-.32837-2.2038-.91284l-.13135-.13135c-.58447-.58447-.91284-1.3772-.91284-2.20386v-6.00391c0-.82654.32837-1.61926.9129-2.20374l.13147-.13147c.58447-.58447,1.3772-.91284,2.20374-.91284h.85742c1.72125,0,3.11664,1.39526,3.11664,3.1167v6.2666Zm14.02783,8.6189c0,.82654-.32837,1.61938-.9129,2.20386l-.13116.1311c-.58447.58447-1.3772.91284-2.20374.91284h-6.00421c-.8266,0-1.61932-.32837-2.2038-.91284l-.13135-.13135c-.58447-.58447-.91284-1.3772-.91284-2.20386v-.85742c0-1.72144,1.39539-3.1167,3.11664-3.1167h6.26672c1.72125,0,3.11664,1.39526,3.11664,3.1167v.85767Zm0-22.64673c0,1.72131-1.39539,3.1167-3.11664,3.1167h-6.26672c-1.72125,0-3.11664-1.39539-3.11664-3.1167v-.85718c0-.82666.32837-1.61938.9129-2.20386l.13165-.13159c.58447-.58447,1.3772-.91284,2.20374-.91284h6.13507c.8266,0,1.61932.32837,2.2038.91284s.91284,1.3772.91284,2.20386v.98877Zm7.83716,5.55737c.58447.58447.91284,1.3772.91284,2.20386v6.13562c0,.82654-.32837,1.61938-.9129,2.20386l-.13098.13098c-.58447.58447-1.3772.91284-2.20374.91284h-.85791c-1.72125,0-3.11664-1.39539-3.11664-3.1167v-6.2666c0-1.72144,1.39539-3.1167,3.11664-3.1167h.98889c.8266,0,1.61932.32837,2.2038.91284Z"/></svg>