<?xml version="1.0" encoding="UTF-8"?><svg id="Layer_1" xmlns="http://www.w3.org/2000/svg" viewBox="0 0 50 50"><path d="m48.78253,4.1051c-1.58228-2.54358-4.4682-4.1051-7.58679-4.1051h-.30157c-3.11859,0-6.00452,1.56152-7.58679,4.10522l-6.59674,10.60449c-.79712,1.28125-1.21747,2.74121-1.21747,4.22803v14.39563h-.00006l5.18396,8.33337,2.63013,4.22803c1.58234,2.5437,4.46826,4.10522,7.58685,4.10522h.30157c3.11859,0,6.00452-1.56152,7.58679-4.10522,1.62329-2.60938,1.62329-5.84692.00006-8.4563l-2.55371-4.1051h-.00006l-5.18384-8.33325.00006-.00012,5.18384-8.33325h.00006l2.55377-4.10522c1.62323-2.6095,1.62323-5.84692-.00006-8.4563v-.00012Z"/><path d="m3.77124,33.33325h-.00006l-2.55377,4.10522c-1.62323,2.6095-1.62317,5.84692.00006,8.4563,1.58228,2.5437,4.4682,4.10522,7.58679,4.10522h.30157c3.11859,0,6.00452-1.56152,7.58679-4.10522l6.59674-10.60449c.79712-1.28125,1.21747-2.74121,1.21747-4.22803v-14.39575h.00006l-5.18396-8.33325-2.63013-4.22803C15.11047,1.56152,12.22455,0,9.10596,0h-.30157C5.68579,0,2.79987,1.56152,1.21759,4.1051c-1.62323,2.6095-1.62323,5.84692-.00006,8.45642l2.55371,4.10498h.00006l5.18384,8.33337-.00006.00012-5.18384,8.33325Z"/></svg>