<?xml version="1.0" encoding="UTF-8"?><svg id="Layer_1" xmlns="http://www.w3.org/2000/svg" viewBox="0 0 50 50"><path d="m7.1239,17.96918c1.06476.22961,2.09991.26678,3.08295.14264,3.13196-.39581,6.23859.48645,8.84857,2.21136,1.06543.7041,1.53137,2.03558,1.15717,3.25659-.13757.44891-.21259.92487-.21259,1.42023,0,.4953.07501.97131.21259,1.42017.37421,1.22101-.09174,2.55249-1.15717,3.25659-2.60992,1.72485-5.71637,2.60718-8.84833,2.21143-.9776-.12354-2.00677-.0874-3.06647.13873-3.59808.76782-6.43671,3.74347-7.01953,7.3761-.99072,6.17438,4.24323,11.43335,10.41119,10.48602,3.64612-.56,6.64685-3.39032,7.43262-6.99451.2334-1.0705.27191-2.11237.14691-3.10138-.39575-3.13196.48651-6.23853,2.2113-8.84857.7041-1.06543,2.03564-1.53143,3.25665-1.15717.44885.13757.92487.21259,1.42023.21259s.97137-.07501,1.42023-.21259c1.22101-.37427,2.55249.09174,3.25659,1.15717,1.72485,2.60992,2.60712,5.71637,2.21136,8.84827-.12384.98035-.08722,2.01227.14062,3.07428.77209,3.59998,3.75385,6.43689,7.39014,7.01428,6.17743.98083,11.43353-4.26801,10.46552-10.44354-.57074-3.64075-3.40601-6.63043-7.00842-7.4071-1.06476-.22961-2.09991-.26685-3.08289-.14258-3.13196.39575-6.23853-.48657-8.84851-2.21143-1.06549-.7041-1.53143-2.03558-1.15723-3.25659.13757-.44885.21259-.92487.21259-1.42017,0-.49536-.07501-.97131-.21259-1.42023-.37421-1.22095.09174-2.55249,1.15717-3.25659,2.60992-1.72485,5.71637-2.60718,8.84833-2.21143.97333.12311,1.9978.08759,3.05261-.13544,3.60242-.76172,6.44678-3.73834,7.03241-7.37354.99835-6.19745-4.27521-11.47449-10.47186-10.48224-3.63763.58258-6.6167,3.42706-7.38141,7.03076-.22412,1.05621-.25958,2.08124-.13647,3.05548.39575,3.13202-.48651,6.23859-2.21136,8.84857-.7041,1.06543-2.03564,1.53143-3.25659,1.15723-.44891-.13757-.92487-.21259-1.42023-.21259-.4953,0-.97131.07501-1.42017.21259-1.22101.37421-2.55249-.0918-3.25665-1.15717-1.72485-2.60999-2.60712-5.71643-2.21136-8.84833.12347-.97717.0874-2.00586-.13837-3.065C17.20587,3.54169,14.22717.70172,10.59204.1203,4.41113-.86823-.85089,4.38055.11499,10.55817c.5694,3.64227,3.40521,6.63403,7.00891,7.41101Z"/></svg>