<?xml version="1.0" encoding="UTF-8"?><svg id="Layer_1" xmlns="http://www.w3.org/2000/svg" viewBox="0 0 50 50"><path d="m47.15509.74805c-.47998-.48267-1.1203-.74805-1.80206-.74805h-2.97021c-.68176,0-1.32202.26538-1.80017.74622l-2.09869,2.09875c-.41461.4126-.6698.94434-.73242,1.51831h-6.63513c-.06262-.57397-.31689-1.10571-.73053-1.5166l-2.09869-2.09863c-.48004-.48267-1.1203-.74805-1.80206-.74805h-2.97021c-.68176,0-1.32202.26538-1.80017.74622l-2.09869,2.09875c-.41461.4126-.6698.94434-.73242,1.51831h-6.63513c-.06262-.57397-.31689-1.10571-.73059-1.5166l-2.09863-2.09863c-.48004-.48267-1.1203-.74805-1.80206-.74805h-2.97021c-.68176,0-1.32208.26538-1.80017.74622L.74811,2.84497c-.48279.47998-.74811,1.12024-.74811,1.802v2.97021c0,.68176.26532,1.32202.74622,1.80017l2.09869,2.09875c.41278.41455.94434.66968,1.51831.73242v6.63501c-.57397.06274-1.10553.31689-1.51642.73059l-2.09869,2.09875c-.48279.47998-.74811,1.12024-.74811,1.802v2.97021c0,.68176.26532,1.32202.74622,1.80017l2.09869,2.09875c.41278.41455.94434.66968,1.51831.73242v6.63501c-.57397.06274-1.10553.31689-1.51642.73059l-2.09869,2.09875c-.48279.47998-.74811,1.12024-.74811,1.802v2.97021c0,.68176.26532,1.32202.74622,1.80017l2.09869,2.09875c.47998.48267,1.1203.74805,1.80206.74805h2.97021c.68176,0,1.32202-.26538,1.80017-.74634l2.09869-2.09863c.41461-.41272.6698-.94434.73242-1.51831h6.63513c.06262.57397.31689,1.10559.73053,1.51648l2.09869,2.09875c.48004.48267,1.1203.74805,1.80206.74805h2.97021c.68176,0,1.32202-.26538,1.80017-.74634l2.09869-2.09863c.41461-.41272.6698-.94434.73242-1.51831h6.63513c.06262.57397.31689,1.10559.73059,1.51648l2.09863,2.09875c.48004.48267,1.1203.74805,1.80206.74805h2.97021c.68176,0,1.32208-.26538,1.80017-.74634l2.09869-2.09863c.48279-.47998.74811-1.12024.74811-1.802v-2.97021c0-.68176-.26532-1.32202-.74622-1.80029l-2.09869-2.09863c-.41278-.41455-.94434-.66968-1.51831-.73242v-6.63501c.57397-.06274,1.10553-.31689,1.51642-.73071l2.09869-2.09863c.48279-.47998.74811-1.12024.74811-1.802v-2.97021c0-.68176-.26532-1.32202-.74622-1.80029l-2.09869-2.09863c-.41278-.41455-.94434-.66968-1.51831-.73242v-6.63501c.57397-.06274,1.10553-.31689,1.51642-.73071l2.09869-2.09863c.48279-.47998.74811-1.12024.74811-1.802v-2.97021c0-.68091-.26532-1.32031-.74622-1.80029l-2.09869-2.09863Zm-23.92395,37.00342c-.57306.06274-1.1037.31689-1.51642.73059l-2.09869,2.09875c-.41461.4126-.6698.94434-.73242,1.51831h-6.63513c-.06262-.57397-.31689-1.10571-.73059-1.5166l-2.09863-2.09863c-.41278-.41455-.94434-.66968-1.51831-.73242v-6.63501c.57397-.06274,1.10553-.31689,1.51642-.73071l2.09869-2.09863c.41461-.41272.6698-.94434.73242-1.51831h6.63513c.06262.57397.31689,1.10559.73053,1.51648l2.09869,2.09875c.41278.41455.94434.66968,1.51831.73242v6.63501Zm0-18.86792c-.57397.06274-1.10553.31689-1.51642.73059l-2.09869,2.09875c-.41461.4126-.6698.94434-.73242,1.51831h-6.63513c-.06262-.57397-.31689-1.10571-.73059-1.5166l-2.09863-2.09863c-.41278-.41455-.94434-.66968-1.51831-.73242v-6.63501c.57397-.06274,1.10553-.31689,1.51642-.73071l2.09869-2.09863c.41461-.41272.6698-.94434.73242-1.51831h6.63513c.06262.57397.31689,1.10559.73053,1.51648l2.09869,2.09875c.41278.41455.94434.66968,1.51831.73242v6.63501Zm18.86792,18.86792c-.57397.06274-1.10553.31689-1.51642.73059l-2.09869,2.09875c-.41461.4126-.6698.94434-.73242,1.51831h-6.63513c-.06262-.57397-.31689-1.10571-.73053-1.5166l-2.09869-2.09863c-.41278-.41455-.94434-.66968-1.51831-.73242v-6.63501c.57397-.06274,1.10553-.31689,1.51642-.73071l2.09869-2.09863c.41461-.41272.6698-.94434.73242-1.51831h6.63513c.06262.57397.31689,1.10559.73059,1.51648l2.09863,2.09875c.41278.41455.94434.66968,1.51831.73242v6.63501Zm0-18.86792c-.57397.06274-1.10553.31689-1.51642.73059l-2.09869,2.09875c-.41461.4126-.6698.94434-.73242,1.51831h-6.63513c-.06262-.57397-.31689-1.10571-.73053-1.5166l-2.09869-2.09863c-.41278-.41455-.94434-.66968-1.51831-.73242v-6.63501c.57397-.06274,1.10553-.31689,1.51642-.73071l2.09869-2.09863c.41461-.41272.6698-.94434.73242-1.51831h6.63513c.06262.57397.31689,1.10559.73059,1.51648l2.09863,2.09875c.41278.41455.94434.66968,1.51831.73242v6.63501Z"/></svg>