<?xml version="1.0" encoding="UTF-8"?><svg id="Layer_1" xmlns="http://www.w3.org/2000/svg" viewBox="0 0 50 50"><path d="m25,50c13.80725,0,25-11.19287,25-25h-6.24988c0,10.35529-8.39471,18.75006-18.75012,18.75006S6.25006,35.35529,6.25006,25h-.00018c-.00006-10.35535,8.39471-18.75006,18.75012-18.75006s18.74994,8.39471,18.74994,18.75006l6.25006-.00006C50,11.19281,38.80701,0,25,0S0,11.19287,0,25s11.19299,25,25,25Z"/><path d="m25,12.5c-6.90363,0-12.50012,5.5965-12.50012,12.5h.00024c0,6.9035,5.5965,12.5,12.49988,12.5s12.50012-5.5965,12.50012-12.5h-.00024c0-6.90356-5.5965-12.5-12.49988-12.5Z"/></svg>