<?xml version="1.0" encoding="UTF-8"?><svg id="Layer_1" xmlns="http://www.w3.org/2000/svg" viewBox="0 0 50 50"><path d="m45.19855,20.19849c-1.15436,0-2.21338.40771-3.0415,1.08643l.00214-.00366c-.13049.10815-.29803.17322-.48077.17322-.41638,0-.75385-.33752-.75385-.75378,0-.0365.00256-.07239.00757-.10742l-.00043.00049c.17792-1.06091.0022-2.18774-.5777-3.19226-.26959-.46692-.61865-.85352-1.00244-1.19055.00128-.0022.00305-.00391.00433-.0061.21405-.37061.35364-.76025.46008-1.15491.31921-.08179.66443.04114.83734.3407.01825.03149.03394.06384.04712.09668l.00012-.00073c.3764,1.00781,1.09198,1.89587,2.09644,2.47583,2.29651,1.32593,5.23303.53906,6.5589-1.75757,1.32593-2.29639.53906-5.23291-1.75745-6.55884-.99969-.57715-2.12061-.75366-3.17725-.57983l.00378-.0022c-.16711.02844-.34479.00098-.50305-.09033-.36053-.20825-.48407-.66919-.27594-1.02979.01825-.03162.03845-.06128.0603-.08923l-.00067.00037c.68457-.82996,1.09583-1.8938,1.09583-3.05347,0-2.65186-2.14966-4.80151-4.80145-4.80151s-4.80145,2.14966-4.80145,4.80151c0,1.1543.40765,2.21326,1.08643,3.0415l-.00372-.0022c.10822.13037.17322.2981.17322.48071,0,.37927-.28461.67981-.64911.73279-.2677-.03394-.53455-.04578-.80127-.03455-.2832-.01233-.56689-.00098-.85101.03772-.0791-.01562-.15747-.04138-.23114-.08386-.36053-.20825-.48407-.66919-.27594-1.02979.01825-.03162.03845-.06128.0603-.08923l-.00067.00037c.68457-.82996,1.09583-1.8938,1.09583-3.05347,0-2.65186-2.14966-4.80151-4.80145-4.80151s-4.80145,2.14966-4.80145,4.80151c0,1.1543.40765,2.21326,1.08643,3.0415l-.00372-.0022c.10822.13037.17322.2981.17322.48071,0,.37927-.28461.67981-.64911.73279-.2677-.03394-.53455-.04578-.80127-.03455-.2832-.01233-.56689-.00098-.85101.03772-.0791-.01562-.15747-.04138-.23114-.08386-.36053-.20825-.48407-.66919-.27594-1.02979.01825-.03162.03845-.06128.0603-.08923l-.00067.00037c.68457-.82996,1.09583-1.8938,1.09583-3.05347,0-2.65186-2.14966-4.80151-4.80145-4.80151s-4.80145,2.14966-4.80145,4.80151c0,1.1543.40765,2.21326,1.08643,3.0415l-.00372-.0022c.10822.13037.17322.2981.17322.48071,0,.37927-.28461.67981-.64911.73279-.2677-.03394-.53455-.04578-.80127-.03455-.2832-.01233-.56689-.00098-.85101.03772-.0791-.01562-.15747-.04138-.23114-.08386-.36053-.20825-.48407-.66919-.27594-1.02979.01825-.03162.03845-.06128.0603-.08923l-.00067.00037c.68457-.82996,1.09583-1.8938,1.09583-3.05347,0-2.65186-2.14966-4.80151-4.80145-4.80151s-4.80145,2.14966-4.80145,4.80151c0,1.1543.40765,2.21326,1.08643,3.0415l-.00372-.0022c.10822.13037.17322.2981.17322.48071,0,.41638-.33746.75391-.75378.75391-.0365,0-.07239-.00256-.10748-.00757,0,0,.00061.00049.00067.00049-1.06104-.17798-2.18787-.0022-3.19232.57764C.10504,10.97192-.68182,13.90845.6441,16.20483c1.32587,2.29663,4.26239,3.0835,6.5589,1.75757.99969-.57715,1.71295-1.45972,2.09076-2.46167v.00439c.05896-.15894.17151-.29907.32983-.3905.17584-.10144.37518-.12158.5578-.07629.10645.39856.24658.79224.46271,1.1665.00128.0022.00305.00391.00433.0061-.38379.33704-.73285.72363-1.00244,1.19055-.5799,1.00452-.75562,2.13135-.5777,3.19226l-.00043-.00049c.005.03503.00757.07092.00757.10742,0,.41626-.33746.75378-.75385.75378-.18274,0-.35028-.06506-.48077-.17322l.00214.00366c-.82812-.67871-1.88715-1.08643-3.0415-1.08643-2.65179,0-4.80145,2.14966-4.80145,4.80151s2.14966,4.80151,4.80145,4.80151c1.15985,0,2.22357-.41138,3.05347-1.09595l-.00031.00073c.02789-.02185.05768-.04199.08923-.0603.36053-.20813.82159-.08459,1.02979.27588.09137.15833.11884.33594.09033.50317l.0022-.00391c-.17377,1.05664.00269,2.17761.57983,3.17725.26959.46704.61865.85352,1.00244,1.19067-.00128.0022-.00305.00378-.00433.00598-.21613.37439-.35626.76794-.46271,1.16663-.18262.04517-.38196.02515-.5578-.07629-.15833-.09143-.27087-.23157-.32983-.3905v.00439c-.37781-1.00195-1.09106-1.88452-2.09076-2.46167-2.29651-1.32593-5.23303-.53906-6.5589,1.75745-1.32593,2.29651-.53906,5.23303,1.75745,6.55896,1.00446.57983,2.13129.75562,3.19232.57764-.00006,0-.00067.00049-.00067.00049.0351-.005.07098-.00757.10748-.00757.41632,0,.75378.3374.75378.75378,0,.18274-.065.35034-.17322.48083l.00372-.0022c-.67877.82812-1.08643,1.88721-1.08643,3.0415,0,2.65186,2.14966,4.80151,4.80145,4.80151s4.80145-2.14966,4.80145-4.80151c0-1.15979-.41125-2.22363-1.09583-3.05347l.00067.00037c-.02185-.02795-.04205-.05774-.0603-.08923-.20813-.3606-.08459-.82153.27594-1.02979.07367-.04248.15204-.06836.23108-.08398.28424.0387.56793.05017.8512.03784.26672.01123.53357-.00049.80121-.03455.36444.05298.64905.35352.64905.73267,0,.18274-.065.35034-.17322.48083l.00372-.0022c-.67877.82812-1.08643,1.88721-1.08643,3.0415,0,2.65186,2.14966,4.80151,4.80145,4.80151s4.80145-2.14966,4.80145-4.80151c0-1.15979-.41125-2.22363-1.09583-3.05347l.00067.00037c-.02185-.02795-.04205-.05774-.0603-.08923-.20813-.3606-.08459-.82153.27594-1.02979.07367-.04248.15204-.06836.23108-.08398.28424.0387.56793.05017.8512.03784.26672.01123.53357-.00049.80121-.03455.36444.05298.64905.35352.64905.73267,0,.18274-.065.35034-.17322.48083l.00372-.0022c-.67877.82812-1.08643,1.88721-1.08643,3.0415,0,2.65186,2.14966,4.80151,4.80145,4.80151s4.80145-2.14966,4.80145-4.80151c0-1.15979-.41125-2.22363-1.09583-3.05347l.00067.00037c-.02185-.02795-.04205-.05774-.0603-.08923-.20813-.3606-.08459-.82153.27594-1.02979.07367-.04248.15204-.06836.23108-.08398.28424.0387.56793.05017.8512.03784.26672.01123.53357-.00049.80121-.03455.36444.05298.64905.35352.64905.73267,0,.18274-.065.35034-.17322.48083l.00372-.0022c-.67877.82812-1.08643,1.88721-1.08643,3.0415,0,2.65186,2.14966,4.80151,4.80145,4.80151s4.80145-2.14966,4.80145-4.80151c0-1.15979-.41125-2.22363-1.09583-3.05347l.00067.00037c-.02185-.02795-.04205-.05774-.0603-.08923-.20813-.3606-.08459-.82153.27594-1.02979.15826-.09131.33594-.1189.50305-.09033l-.00378-.0022c1.05664.17383,2.17755-.00269,3.17725-.57983,2.29651-1.32593,3.08337-4.26245,1.75745-6.55896-1.32587-2.29651-4.26239-3.08337-6.5589-1.75745-1.00446.57983-1.72003,1.46802-2.09644,2.47583l-.00012-.00073c-.01318.03271-.02887.06519-.04712.09668-.17291.29956-.51813.42236-.83734.3407-.10645-.39465-.24603-.7843-.46008-1.15503-.00128-.0022-.00305-.00378-.00433-.00598.38379-.33716.73285-.72363,1.00244-1.19067.57715-.99963.7536-2.12061.57983-3.17725l.0022.00391c-.0285-.16724-.00104-.34485.09033-.50317.20819-.36047.66925-.48401,1.02979-.27588.03156.01831.06134.03845.08923.0603l-.00031-.00073c.8299.68457,1.89362,1.09595,3.05347,1.09595,2.65179,0,4.80145-2.14978,4.80145-4.80151s-2.14966-4.80151-4.80145-4.80151Zm-10.58911,5.45483c-.03156.01831-.06396.03394-.0968.04712l.00073.00012c-1.00781.37634-1.89581,1.09192-2.47577,2.09644-.84039,1.45569-.82672,3.16565-.12305,4.5625-.50128.37708-.93707.85803-1.27045,1.43555-.21613.37439-.35626.76794-.46271,1.16663-.11914.02954-.24316.01978-.36542-.0116-.10645-.39465-.24603-.7843-.46008-1.15503-.92371-1.59998-2.62976-2.44495-4.3559-2.37561-1.72614-.06934-3.43219.77563-4.3559,2.37561-.21613.37439-.35626.76794-.46271,1.16663-.11914.02954-.24316.01978-.36542-.0116-.10645-.39465-.24603-.7843-.46008-1.15503-.33337-.57751-.76917-1.05847-1.27045-1.43555.70367-1.39685.71735-3.10681-.12305-4.5625-.57996-1.00452-1.46796-1.72009-2.47577-2.09644l.00073-.00012c-.03284-.01318-.06525-.02881-.0968-.04712-.36053-.20825-.48407-.66919-.27594-1.02979.09137-.1582.23151-.27087.39044-.32983h-.00433c1.00195-.37769,1.88446-1.09106,2.46167-2.0907.84039-1.45569.82672-3.16577.12305-4.56262.50128-.37695.93707-.85803,1.27045-1.43555.21405-.37061.35364-.76025.46008-1.15491.12225-.03137.24628-.04114.36542-.0116.10645.39856.24658.79224.46271,1.1665.92371,1.59998,2.62976,2.44507,4.3559,2.37573,1.72614.06934,3.43219-.77576,4.3559-2.37573.21405-.37061.35364-.76025.46008-1.15491.12225-.03137.24628-.04114.36542-.0116.10645.39856.24658.79224.46271,1.1665.33337.57751.76917,1.05859,1.27045,1.43555-.70367,1.39685-.71735,3.10693.12305,4.56262.57721.99963,1.45972,1.71301,2.46167,2.0907h-.00433c.15894.05896.29907.17163.39044.32983.20813.3606.08459.82153-.27594,1.02979Z"/></svg>