<?xml version="1.0" encoding="UTF-8"?><svg id="Layer_1" xmlns="http://www.w3.org/2000/svg" viewBox="0 0 50 50"><path d="m50,24.99268v-1.40771h-.04236C49.22137,10.45605,38.30975,0,25,0,11.21478,0,0,11.21484,0,25v1.41504h.04236c.73627,13.12891,11.64789,23.58496,24.95764,23.58496,13.78522,0,25-11.21484,25-25v-.00732Zm-14.78754-1.40771v1.41504c0,8.92725-7.26343,16.19067-16.19159,16.19067-8.44989,0-15.39813-6.50952-16.11877-14.77563h11.88544v-1.41504c0-8.92725,7.26343-16.19067,16.19159-16.19067,8.44989,0,15.39813,6.50952,16.11877,14.77563h-11.88544Z"/></svg>