<?xml version="1.0" encoding="UTF-8"?><svg id="Layer_1" xmlns="http://www.w3.org/2000/svg" viewBox="0 0 50 50"><path d="m2.83813,21.43872c-.53613,1.07178-.83813,2.28064-.83813,3.56128s.302,2.48944.83813,3.56122c.84686,1.69312.51318,3.74268-.6665,5.22327-1.5448,1.93896-2.38385,4.46399-2.12531,7.19067.44006,4.6405,4.18024,8.4491,8.81329,8.96161,6.03345.66742,11.14038-4.03833,11.14038-9.93677,0-2.39093-.8407-4.5835-2.24158-6.30231-1.17053-1.43616-1.42535-3.47943-.59656-5.13647.53607-1.07178.83813-2.28064.83813-3.56122s-.30206-2.4895-.83813-3.56128c-.84686-1.69312-.51324-3.74261.66644-5.22321,1.54492-1.93896,2.38397-4.46417,2.12531-7.19092C19.51349,4.38409,15.77325.57562,11.14014.06317,5.10681-.60413,0,4.1015,0,10c0,2.39093.8407,4.5835,2.24164,6.30231,1.17047,1.4361,1.42529,3.47943.5965,5.13641Z"/><path d="m30.04633,40.97516c.44006,4.6405,4.18024,8.4491,8.81329,8.96161,6.03345.66742,11.14038-4.03833,11.14038-9.93677,0-2.39093-.8407-4.5835-2.24158-6.30231-1.17053-1.43616-1.42535-3.47943-.59656-5.13647.53607-1.07178.83813-2.28064.83813-3.56122s-.30206-2.4895-.83813-3.56128c-.84686-1.69312-.51324-3.74261.66644-5.22321,1.54492-1.93896,2.38397-4.46417,2.12531-7.19092-.44012-4.6405-4.18036-8.44897-8.81348-8.96143-6.03333-.6673-11.14014,4.03833-11.14014,9.93683,0,2.39093.8407,4.5835,2.24164,6.30231,1.17047,1.4361,1.42529,3.47943.5965,5.13641-.53613,1.07178-.83813,2.28064-.83813,3.56128s.302,2.48944.83813,3.56122c.84686,1.69312.51318,3.74268-.6665,5.22327-1.5448,1.93896-2.38385,4.46399-2.12531,7.19067Z"/></svg>