<?xml version="1.0" encoding="UTF-8"?><svg id="Layer_1" xmlns="http://www.w3.org/2000/svg" viewBox="0 0 50 50"><path d="m.02759,24.97925C13.78491,24.97925,24.94257,13.86646,25.0238.12817c.06683,13.69507,11.14362,24.7832,24.83368,24.87183-13.69006.08862-24.76685,11.17676-24.83368,24.87183-.08124-13.73828-11.23889-24.85107-24.99622-24.85107,0-.15564-.01587,24.96753-.01587,24.96753h25.00916c0,.00256-.00018.005-.00018.00757-.15558,0,24.96759.01587,24.96759.01587V-.01172S24.86511.00415,25.02069.00415c0,.00256.00018.005.00018.00757H.01172s.01587,25.12317.01587,24.96753Z"/></svg>