<?xml version="1.0" encoding="UTF-8"?><svg id="Layer_1" xmlns="http://www.w3.org/2000/svg" viewBox="0 0 50 50"><path d="m14.64728.89728c-1.19635-1.19641-3.13611-1.19641-4.33252,0L.89728,10.31476c-1.19635,1.19635-1.19635,3.13611,0,4.33252l6.35388,6.35388c1.92993,1.92993,5.22986.56305,5.22986-2.16626v-3.29028c0-1.69202,1.37164-3.0636,3.0636-3.0636h3.29028c2.72937,0,4.09619-3.29993,2.16626-5.22986L14.64728.89728Z"/><path d="m49.10266,10.3147L39.68524.89728c-1.19641-1.19641-3.13617-1.19641-4.33258,0l-6.35382,6.35382c-1.92993,1.92999-.56305,5.22992,2.16632,5.22992h3.29022c1.69196,0,3.0636,1.37158,3.0636,3.0636v3.29022c0,2.72937,3.29993,4.09625,5.22986,2.16626l6.35382-6.35382c1.19641-1.19641,1.19641-3.13617,0-4.33258Z"/><path d="m.89728,39.6853l9.41748,9.41736c1.19641,1.19641,3.13617,1.19641,4.33252,0l6.35388-6.35388c1.92993-1.92993.56311-5.22974-2.16626-5.22974h-3.29028c-1.69196,0-3.0636-1.3717-3.0636-3.06366v-3.29028c0-2.72937-3.29993-4.09625-5.22986-2.16626l-6.35388,6.35382c-1.19635,1.19641-1.19635,3.13611,0,4.33264Z"/><path d="m49.10272,35.35266l-6.35388-6.35382c-1.92993-1.92999-5.22986-.56311-5.22986,2.16626v3.29028c0,1.69196-1.37164,3.06366-3.0636,3.06366h-3.29028c-2.72937,0-4.09619,3.2998-2.16626,5.22974l6.35388,6.35388c1.19635,1.19641,3.13611,1.19641,4.33252,0l9.41748-9.41736c1.19635-1.19653,1.19635-3.13623,0-4.33264Z"/><rect x="18" y="18" width="14" height="14" rx="3.0636" ry="3.0636"/></svg>