<?xml version="1.0" encoding="UTF-8"?><svg id="Layer_1" xmlns="http://www.w3.org/2000/svg" viewBox="0 0 50 50"><path d="m12.50049,24.96753c.01831-6.88831,5.60632-12.46704,12.49884-12.46704V0C11.20294,0,.01831,11.17542,0,24.96753h12.50049Z"/><path d="m25.00067,24.96753h12.50049c.01831-6.88831,5.60632-12.46704,12.49884-12.46704V0c-13.79639,0-24.98102,11.17542-24.99933,24.96753Z"/><path d="m12.50049,50c.01831-6.88843,5.60632-12.46704,12.49884-12.46704v-12.50049C11.20294,25.03247.01831,36.20776,0,50h12.50049Z"/><path d="m25.00067,50h12.50049c.01831-6.88843,5.60632-12.46704,12.49884-12.46704v-12.50049c-13.79639,0-24.98102,11.17529-24.99933,24.96753Z"/></svg>