<?xml version="1.0" encoding="UTF-8"?><svg id="Layer_1" xmlns="http://www.w3.org/2000/svg" viewBox="0 0 50 50"><path d="m25,50c13.80725,0,25-11.19287,25-25h-6.24988c0,10.35529-8.39471,18.75006-18.75012,18.75006S6.25006,35.35529,6.25006,25H0c0,13.80713,11.19299,25,25,25Z"/><path d="m25,37.5c6.90363,0,12.50012-5.5965,12.50012-12.5H12.50012c0,6.9035,5.59644,12.5,12.49988,12.5Z"/><path d="m25,25c13.80725,0,25-11.19287,25-25h-6.24988c0,10.35529-8.39471,18.75006-18.75012,18.75006S6.25006,10.35529,6.25006,0H0c0,13.80713,11.19299,25,25,25Z"/><path d="m25,12.5c6.90363,0,12.50012-5.5965,12.50012-12.5H12.50012c0,6.9035,5.59644,12.5,12.49988,12.5Z"/></svg>