<?xml version="1.0" encoding="UTF-8"?><svg id="Layer_1" xmlns="http://www.w3.org/2000/svg" viewBox="0 0 50 50"><rect y="40" width="10" height="10" rx="1.4306" ry="1.4306"/><rect x="40" width="10" height="10" rx="1.43054" ry="1.43054"/><rect x="20" y="20" width="10" height="10" rx="1.43054" ry="1.43054"/><rect width="10" height="10" rx="1.43066" ry="1.43066"/><rect x="40" y="40" width="10" height="10" rx="1.43054" ry="1.43054"/><path d="m50,21.43054c0-.79004-.6405-1.43054-1.4306-1.43054h-7.13879c-.37946,0-.74329-.15076-1.0116-.41895-.26831-.26831-.41901-.63232-.41901-1.01172v-7.13879c0-.79004-.6405-1.43054-1.4306-1.43054h-7.13855c-.37946,0-.74329-.15076-1.0116-.41895l-.00024-.00024c-.26831-.26831-.41901-.63232-.41901-1.01172V1.43054c0-.79004-.6405-1.43054-1.4306-1.43054h-7.13879c-.7901,0-1.4306.6405-1.4306,1.43054v7.86243l-.70703.70703h-7.86237c-.7901,0-1.4306.6405-1.4306,1.43054v7.86243l-.70703.70703H1.4306c-.7901,0-1.4306.6405-1.4306,1.43054v7.13879c0,.79016.6405,1.43066,1.4306,1.43066h7.86237l.70703.70703v7.8623c0,.79016.6405,1.43066,1.4306,1.43066h7.86237l.70703.70703v7.8623c0,.79016.6405,1.43066,1.4306,1.43066h7.13879c.7901,0,1.4306-.6405,1.4306-1.43066v-7.13879c0-.37939.1507-.74329.41901-1.0116s.63214-.41895,1.0116-.41895h7.13879c.7901,0,1.4306-.6405,1.4306-1.43066v-7.13855c0-.37939.1507-.74329.41901-1.0116l.00024-.00024c.26831-.26831.63214-.41895,1.0116-.41895h7.13855c.7901,0,1.4306-.6405,1.4306-1.43066v-7.13879Zm-10,7.86243l-.70703.70703h-7.86237c-.7901,0-1.4306.6405-1.4306,1.43054v7.86243l-.70703.70703h-8.58594l-.70703-.70703v-7.86243c0-.79004-.6405-1.43054-1.4306-1.43054h-7.86237l-.70703-.70703v-8.58582l.70715-.70715h7.86224c.7901,0,1.4306-.6405,1.4306-1.43066v-7.86194l.7074-.7074h8.58545l.70715.70715v7.86218c0,.79016.6405,1.43066,1.4306,1.43066h7.862l.7074.7074v8.58557Z"/></svg>