<?xml version="1.0" encoding="UTF-8"?><svg id="Layer_1" xmlns="http://www.w3.org/2000/svg" viewBox="0 0 50 50"><path d="m33.33331,1.45288V0h-16.66663v15.21375c2.61011.92395,5.40686,1.45288,8.33331,1.45288s5.72321-.52893,8.33331-1.45288V1.45288Z"/><polygon points="25 16.66663 16.66669 16.66663 16.66669 25 16.66669 33.33331 25 33.33331 33.33331 33.33331 33.33331 25 33.33331 16.66663 25 16.66663"/><path d="m34.78625,16.66663c-.92395,2.61017-1.45294,5.40692-1.45294,8.33337s.52899,5.72321,1.45294,8.33331h15.21375v-16.66669h-15.21375Z"/><path d="m1.45288,16.66663H0v16.66669h15.21375c.92395-2.61011,1.45294-5.40692,1.45294-8.33331s-.52899-5.72321-1.45294-8.33337H1.45288Z"/><path d="m16.66669,48.54706v1.45294h16.66663v-15.21375c-2.61011-.92395-5.40686-1.45294-8.33331-1.45294s-5.72321.52899-8.33331,1.45294v13.7608Z"/></svg>