<?xml version="1.0" encoding="UTF-8"?><svg id="Layer_1" xmlns="http://www.w3.org/2000/svg" viewBox="0 0 50 50"><circle cx="6.81818" cy="25" r="6.81818"/><circle cx="43.18182" cy="25" r="6.81818"/><circle cx="25" cy="25" r="6.81818"/><circle cx="25" cy="6.81818" r="6.81818"/><circle cx="25" cy="43.18182" r="6.81818"/><path d="m1.57898,11.57892h7.36835c.87207,0,1.57898.70691,1.57898,1.57892v2.10529c0,.87207.70691,1.57898,1.57892,1.57898h2.10529c.87201,0,1.57898.70691,1.57898,1.57892,0,.87207.70691,1.57898,1.57892,1.57898h1.05261c.87207,0,1.57898-.70691,1.57898-1.57898v-1.05261c0-.87207-.70691-1.57898-1.57898-1.57898-.87201,0-1.57892-.70691-1.57892-1.57892v-2.10529c0-.87201-.70691-1.57892-1.57898-1.57892h-2.10522c-.87207,0-1.57898-.70697-1.57898-1.57898V1.57892c0-.87201-.70691-1.57892-1.57892-1.57892H1.57892C.70691,0,0,.70691,0,1.57892v8.42102c0,.87207.70691,1.57898,1.57898,1.57898Z"/><path d="m50,1.57892c0-.87201-.70691-1.57892-1.57898-1.57892h-8.42102c-.87201,0-1.57892.70691-1.57892,1.57892v7.36841c0,.87201-.70691,1.57898-1.57898,1.57898h-2.10522c-.87207,0-1.57898.70691-1.57898,1.57892v2.10529c0,.87201-.70691,1.57892-1.57892,1.57892-.87207,0-1.57898.70691-1.57898,1.57898v1.05261c0,.87207.70691,1.57898,1.57898,1.57898h1.05261c.87201,0,1.57898-.70691,1.57898-1.57898,0-.87201.70691-1.57892,1.57892-1.57892h2.10529c.87201,0,1.57892-.70697,1.57892-1.57898v-2.10529c0-.87201.70697-1.57892,1.57898-1.57892h7.36835c.87207,0,1.57898-.70691,1.57898-1.57898V1.57892Z"/><path d="m40,50h8.42102c.87207,0,1.57898-.70691,1.57898-1.57898v-8.42102c0-.87201-.70691-1.57892-1.57898-1.57892h-7.36835c-.87207,0-1.57898-.70691-1.57898-1.57898v-2.10529c0-.87201-.70691-1.57892-1.57892-1.57892h-2.10529c-.87201,0-1.57898-.70691-1.57898-1.57898,0-.87201-.70691-1.57892-1.57892-1.57892h-1.05261c-.87207,0-1.57898.70691-1.57898,1.57892v1.05267c0,.87201.70691,1.57892,1.57898,1.57892.87201,0,1.57892.70691,1.57892,1.57898v2.10529c0,.87201.70691,1.57892,1.57898,1.57892h2.10522c.87207,0,1.57898.70691,1.57898,1.57898v7.36835c0,.87207.70691,1.57898,1.57892,1.57898Z"/><path d="m1.57898,50h8.42102c.87201,0,1.57892-.70691,1.57892-1.57898v-7.36835c0-.87207.70691-1.57898,1.57898-1.57898h2.10522c.87207,0,1.57898-.70691,1.57898-1.57892v-2.10529c0-.87207.70691-1.57898,1.57892-1.57898.87207,0,1.57898-.70691,1.57898-1.57892v-1.05267c0-.87201-.70691-1.57892-1.57898-1.57892h-1.05261c-.87201,0-1.57892.70691-1.57892,1.57892,0,.87207-.70697,1.57898-1.57898,1.57898h-2.10529c-.87201,0-1.57892.70691-1.57892,1.57892v2.10529c0,.87207-.70691,1.57898-1.57898,1.57898H1.57898c-.87207,0-1.57898.70691-1.57898,1.57892v8.42102c0,.87207.70691,1.57898,1.57898,1.57898Z"/></svg>