<?xml version="1.0" encoding="UTF-8"?><svg id="Layer_1" xmlns="http://www.w3.org/2000/svg" viewBox="0 0 50 50"><path d="m8.34741,50c.81525,0,1.56024-.46124,1.92377-1.19092l2.27814-4.57294c.20837-.41833.54742-.75732.96576-.96558l8.91656-4.43964c1.58203-.79413,3.54492-.79413,5.14648,0l8.90515,4.43591c.41821.20831.75708.54724.96545.96545l2.28009,4.57678c.36353.72968,1.10852,1.19092,1.92371,1.19092h8.34747l-.00006-.00006h.00006v-8.34747c0-.81519-.46124-1.56024-1.19092-1.92371l-4.57678-2.28003c-.41821-.20837-.75708-.5473-.96539-.96552l-4.43591-8.90509c-.79419-1.60156-.79419-3.56445,0-5.14648l4.4397-8.91663c.20831-.41833.5473-.75739.96558-.96582l4.57281-2.27802c.72968-.36353,1.19092-1.10858,1.19092-1.92377V0h-8.34711c-.81537,0-1.56055.46136-1.92395,1.19128l-2.27783,4.57489c-.20831.41833-.5473.75745-.96564.96582l-8.90735,4.43701c-1.60156.79413-3.56445.79413-5.14648,0l-8.91876-4.44073c-.41846-.20837-.75763-.54755-.966-.96606l-2.27582-4.57092c-.3634-.72992-1.10858-1.19128-1.92395-1.19128H0v8.34711c0,.81537.46143,1.56055,1.19135,1.92395l4.57086,2.27582c.41846.20837.75763.54749.966.966l4.4408,8.91876c.79419,1.58203.79419,3.54492,0,5.14648l-4.43701,8.90729c-.20837.41833-.54742.75732-.96582.96564l-4.57483,2.27783c-.72992.3634-1.19135,1.10858-1.19135,1.92395v8.34711h.00006l-.00006.00006h8.34741Zm11.50488-27.72302c-.21796-1.41656,1.00818-2.6427,2.42474-2.42474,1.79907.27673,3.64551.27661,5.44678-.00043,1.41608-.21783,2.64166,1.00885,2.42377,2.42487-.27679,1.79926-.27667,3.64594.00049,5.44739.21777,1.41565-1.00836,2.64178-2.42395,2.42401-1.80145-.27716-3.64813-.27728-5.44739-.00043-1.41608.2179-2.64276-1.00775-2.42493-2.42383.2771-1.80127.27722-3.64777.00049-5.44684Z"/></svg>