<?xml version="1.0" encoding="UTF-8"?><svg id="Layer_1" xmlns="http://www.w3.org/2000/svg" viewBox="0 0 50 50"><path d="m34.04016,42.85712h2.32733c.76586,0,1.38763.62178,1.38763,1.38763v2.32727c0,.76559-.62156,1.38715-1.38715,1.38715h-2.32727c-.76586,0-1.38763-.62178-1.38763-1.38763v-2.32733c0-.76555.62153-1.38708,1.38708-1.38708Z"/><rect x="12.24487" y="42.85712" width="5.10205" height="5.10205" rx="1.38763" ry="1.38763"/><rect width="9.18365" height="9.18365" rx="1.38763" ry="1.38763"/><rect x="2.04083" y="12.24487" width="5.10205" height="5.10205" rx="1.38757" ry="1.38757"/><circle cx="14.7959" cy="14.7959" r="5.61224"/><rect x="12.24487" y="2.04077" width="5.10205" height="5.10205" rx="1.38757" ry="1.38757"/><path d="m42.20398,40.81628h6.40887c.76559,0,1.38715.62156,1.38715,1.38715v6.40894c0,.76586-.62178,1.38763-1.38763,1.38763h-6.40894c-.76555,0-1.38708-.62153-1.38708-1.38708v-6.409c0-.76586.62178-1.38763,1.38763-1.38763Z"/><path d="m44.2442,32.65308h2.32739c.76582,0,1.38757.62175,1.38757,1.38757v2.32727c0,.76559-.62156,1.38715-1.38715,1.38715h-2.32733c-.76582,0-1.38757-.62175-1.38757-1.38757v-2.32733c0-.76555.62153-1.38708,1.38708-1.38708Z"/><circle cx="35.2041" cy="35.20404" r="5.61224"/><circle cx="25" cy="25" r="5.61224"/><rect y="40.81628" width="9.18365" height="9.18372" rx="1.38763" ry="1.38763"/><path d="m21.79578,40.81628h6.40894c.76559,0,1.38715.62156,1.38715,1.38715v6.40894c0,.76586-.62178,1.38763-1.38763,1.38763h-6.40845c-.76586,0-1.38763-.62178-1.38763-1.38763v-6.40845c0-.76586.62178-1.38763,1.38763-1.38763Z"/><circle cx="14.7959" cy="35.20404" r="5.61224"/><rect y="20.40814" width="9.18365" height="9.18365" rx="1.38757" ry="1.38757"/><rect x="2.04083" y="32.65308" width="5.10205" height="5.10199" rx="1.38757" ry="1.38757"/><path d="m42.20392,0h6.409c.76555,0,1.38708.62153,1.38708,1.38708v6.40894c0,.76586-.62178,1.38763-1.38763,1.38763h-6.40887c-.76559,0-1.38715-.62156-1.38715-1.38715V1.38757c0-.76582.62175-1.38757,1.38757-1.38757Z"/><path d="m34.04022,2.04077h2.32727c.76586,0,1.38763.62178,1.38763,1.38763v2.32733c0,.76555-.62153,1.38708-1.38708,1.38708h-2.32739c-.76582,0-1.38757-.62175-1.38757-1.38757v-2.32733c0-.76559.62156-1.38715,1.38715-1.38715Z"/><path d="m21.79572,0h6.40851c.76586,0,1.38763.62178,1.38763,1.38763v6.40839c0,.76586-.62178,1.38763-1.38763,1.38763h-6.40894c-.76559,0-1.38715-.62156-1.38715-1.38715V1.38757c0-.76582.62175-1.38757,1.38757-1.38757Z"/><circle cx="35.2041" cy="14.7959" r="5.61224"/><path d="m42.20398,20.40814h6.40894c.76555,0,1.38708.62153,1.38708,1.38708v6.409c0,.76582-.62175,1.38757-1.38757,1.38757h-6.40894c-.76559,0-1.38715-.62156-1.38715-1.38715v-6.40887c0-.76586.62178-1.38763,1.38763-1.38763Z"/><path d="m44.2442,12.24487h2.32733c.76586,0,1.38763.62178,1.38763,1.38763v2.32727c0,.76559-.62156,1.38715-1.38715,1.38715h-2.32727c-.76586,0-1.38763-.62178-1.38763-1.38763v-2.32733c0-.76555.62153-1.38708,1.38708-1.38708Z"/></svg>