<?xml version="1.0" encoding="UTF-8"?><svg id="Layer_1" xmlns="http://www.w3.org/2000/svg" viewBox="0 0 50 50"><path d="m50,24.62292v-.00006C50,11.02405,38.97595,0,25.37708,0h-.75415C11.02405,0,0,11.02405,0,24.62286v.75421c0,13.59888,11.02405,24.62292,24.62292,24.62292h.75415c13.59888,0,24.62292-11.02405,24.62292-24.62292v-.75415Zm-8.20764,13.93213c0,1.7879-1.4494,3.2373-3.2373,3.2373l-13.17804-.00006h-.75403l-13.17804.00006c-1.7879,0-3.2373-1.4494-3.2373-3.2373l.00006-13.17804v-.75403l-.00006-13.17804c0-1.7879,1.4494-3.2373,3.2373-3.2373l13.17804.00006h.75403l13.17804-.00006c1.7879,0,3.2373,1.4494,3.2373,3.2373l-.00006,13.17804v.75403l.00006,13.17804Z"/></svg>