<?xml version="1.0" encoding="UTF-8"?><svg id="Layer_1" xmlns="http://www.w3.org/2000/svg" viewBox="0 0 50 50"><rect x="30.0835" y="30.0835" width="10.6665" height="10.6665"/><rect x="9.25" y="9.25" width="10.6665" height="10.6665"/><rect x="-.125" y="20.7085" width="8.5835" height="8.58301" rx="1.02051" ry="1.02051"/><rect x="9.25" y="30.0835" width="10.6665" height="10.6665"/><rect x="20.7085" y="41.5415" width="8.58301" height="8.5835" rx="1.02051" ry="1.02051"/><rect x="20.7085" y="20.7085" width="8.58301" height="8.58301" rx="1.02051" ry="1.02051"/><rect x="41.5415" y="20.7085" width="8.5835" height="8.58301" rx="1.02051" ry="1.02051"/><rect x="30.0835" y="9.25" width="10.6665" height="10.6665"/><rect x="20.7085" y="-.125" width="8.58301" height="8.5835" rx="1.02051" ry="1.02051"/><path d="m12.375,25c0,1.21777.99072,2.2085,2.2085,2.2085,1.21729,0,2.20801-.99072,2.20801-2.2085s-.99072-2.2085-2.20801-2.2085c-1.21777,0-2.2085.99072-2.2085,2.2085Z"/><path d="m22.7915,35.4165c0,1.21777.99072,2.2085,2.2085,2.2085s2.2085-.99072,2.2085-2.2085c0-1.21729-.99072-2.20801-2.2085-2.20801s-2.2085.99072-2.2085,2.20801Z"/><path d="m37.625,25c0-1.21777-.99072-2.2085-2.2085-2.2085-1.21729,0-2.20801.99072-2.20801,2.2085s.99072,2.2085,2.20801,2.2085c1.21777,0,2.2085-.99072,2.2085-2.2085Z"/><path d="m22.7915,14.5835c0,1.21729.99072,2.20801,2.2085,2.20801s2.2085-.99072,2.2085-2.20801c0-1.21777-.99072-2.2085-2.2085-2.2085s-2.2085.99072-2.2085,2.2085Z"/><rect x="2.375" y="2.375" width="3.5835" height="3.5835" rx=".4834" ry=".4834"/><rect x="44.0415" y="44.0415" width="3.5835" height="3.5835" rx=".4834" ry=".4834"/><rect x="2.375" y="44.0415" width="3.5835" height="3.5835" rx=".4834" ry=".4834"/><rect x="44.0415" y="2.375" width="3.5835" height="3.5835" rx=".4834" ry=".4834"/></svg>