<?xml version="1.0" encoding="UTF-8"?><svg id="Layer_1" xmlns="http://www.w3.org/2000/svg" viewBox="0 0 50 50"><path d="m2.22198,14.44495c0,.61359-.49738,1.11102-1.11096,1.11102s-1.11102.49744-1.11102,1.11102v2.22198c0,.61359.49744,1.11102,1.11102,1.11102h2.22198c.61359,0,1.11102-.49744,1.11102-1.11102s.49738-1.11102,1.11096-1.11102h4.44531c.61359,0,1.11102-.49738,1.11102-1.11096v-2.22266c0-.61359.49744-1.11102,1.11102-1.11102h6.66663c.61359,0,1.11102-.49744,1.11102-1.11102V1.11096c0-.61359-.49744-1.11096-1.11102-1.11096H7.77765c-.61359,0-1.11096.49738-1.11096,1.11096v6.66669c0,.61359-.49744,1.11102-1.11102,1.11102h-2.22266c-.61359,0-1.11102.49738-1.11102,1.11096v4.44531Z"/><path d="m30,1.6665v10c0,.92035-.74609,1.6665-1.6665,1.6665h-3.33398c-.92041,0-1.6665.74609-1.6665,1.6665v6.66797c0,.4599-.1864.87634-.48767,1.17786-.30151.30127-.7179.48767-1.17786.48767h-6.66797c-.92041,0-1.6665.74609-1.6665,1.6665v3.33398c0,.92035-.74609,1.6665-1.6665,1.6665H1.6665c-.92041,0-1.6665.74609-1.6665,1.6665v16.66699c0,.92035.74609,1.6665,1.6665,1.6665h16.66699c.92041,0,1.6665-.74615,1.6665-1.6665v-10c0-.92041.74609-1.6665,1.6665-1.6665h3.33398c.92041,0,1.6665-.74615,1.6665-1.6665v-6.66797c0-.45996.1864-.87634.48767-1.17786.30151-.30127.7179-.48767,1.17786-.48767h6.66797c.92041,0,1.6665-.74615,1.6665-1.6665v-3.33398c0-.92041.74609-1.6665,1.6665-1.6665h10c.92041,0,1.6665-.74615,1.6665-1.6665V1.6665c0-.92041-.74609-1.6665-1.6665-1.6665h-16.66699c-.92041,0-1.6665.74609-1.6665,1.6665Z"/><path d="m50,31.11096c0-.61359-.49744-1.11096-1.11102-1.11096h-2.22198c-.61359,0-1.11102.49738-1.11102,1.11096s-.49738,1.11102-1.11096,1.11102h-4.44531c-.61359,0-1.11102.49744-1.11102,1.11102v2.22266c0,.61359-.49744,1.11096-1.11102,1.11096h-6.66663c-.61359,0-1.11102.49744-1.11102,1.11102v11.11133c0,.61359.49744,1.11102,1.11102,1.11102h11.11133c.61359,0,1.11096-.49744,1.11096-1.11102v-6.66669c0-.61359.49744-1.11096,1.11102-1.11096h2.22266c.61359,0,1.11102-.49744,1.11102-1.11102v-4.44531c0-.61359.49738-1.11102,1.11096-1.11102s1.11102-.49738,1.11102-1.11096v-2.22205Z"/></svg>