<?xml version="1.0" encoding="UTF-8"?><svg id="Layer_1" xmlns="http://www.w3.org/2000/svg" viewBox="0 0 50 50"><path d="m.4201,47.54498c-.27118.27075-.4201.63141-.4201,1.01428s.14941.74304.4201,1.01379c.54144.54144,1.48663.54242,2.02808,0l2.20551-2.20551c.72321-.72321,1.99567-.72321,2.71887,0l2.20551,2.20551c.54144.54144,1.48657.54242,2.02802,0,.5589-.5589.5589-1.46875,0-2.02808l-2.20544-2.20551c-.74933-.74982-.74933-1.96906,0-2.71887l4.74646-4.74652c.74933-.74933,1.96954-.74933,2.71893,0l2.25476,2.25482c.59613.59607,1.66986.59515,2.26495,0l2.25482-2.25482c.72614-.72614,1.99274-.72614,2.71887,0l2.25482,2.25482c.59509.59515,1.66882.59607,2.26495,0l2.25476-2.25482c.74939-.74933,1.9696-.74933,2.71893,0l4.74646,4.74652c.74933.74982.74933,1.96906,0,2.71887l-2.20544,2.20551c-.5589.55933-.5589,1.46918,0,2.02808.54144.54242,1.48657.54144,2.02802,0l2.20551-2.20551c.72321-.72321,1.99567-.72321,2.71887,0l2.20551,2.20551c.27075.27118.63141.4201,1.01428.4201s.74304-.14941,1.01379-.4201c.27069-.27075.4201-.63092.4201-1.01379s-.14893-.74353-.4201-1.01428l-2.20551-2.20551c-.36304-.36304-.56323-.84601-.56323-1.35944s.2002-.9964.56323-1.35944l2.20551-2.20551c.27069-.27075.4201-.63086.4201-1.01379,0-.38287-.14893-.74353-.4201-1.01428-.5589-.55884-1.46826-.55884-2.02808,0l-2.20551,2.20551c-.74933.74933-1.96954.74933-2.71887,0l-4.74646-4.74646c-.3631-.3631-.56323-.84607-.56323-1.3595,0-.51337.20013-.99634.56323-1.35944l2.25476-2.25476c.29779-.29785.46893-.71069.46893-1.13226,0-.42206-.17114-.8349-.46893-1.13269l-2.25476-2.25482c-.3631-.36304-.56323-.84601-.56323-1.35944s.20013-.9964.56323-1.35944l2.25476-2.25482c.29779-.29779.46893-.71069.46893-1.13269,0-.42157-.17114-.83447-.46893-1.13226l-2.25476-2.25476c-.3631-.3631-.56323-.84607-.56323-1.3595s.20013-.99634.56323-1.35944l4.74646-4.74646c.74933-.74939,1.96954-.74939,2.71887,0l2.20551,2.20544c.55933.55792,1.46869.5589,2.02808,0,.27118-.27069.4201-.63135.4201-1.01422,0-.38293-.14941-.7431-.4201-1.01379l-2.20551-2.20551c-.36304-.3631-.56323-.84601-.56323-1.35944s.2002-.9964.56323-1.3595l2.20551-2.20544c.27118-.27075.4201-.63141.4201-1.01428s-.14941-.74304-.4201-1.01379c-.54144-.54144-1.48663-.54242-2.02808,0l-2.20551,2.20551c-.72321.72321-1.99567.72321-2.71887,0l-2.20551-2.20551c-.54144-.54144-1.48657-.54242-2.02802,0-.5589.55884-.5589,1.46869,0,2.02808l2.20544,2.20544c.74933.74988.74933,1.96912,0,2.71893l-4.74646,4.74646c-.74933.74939-1.96954.74939-2.71893,0l-2.25476-2.25476c-.59613-.59564-1.66986-.59564-2.26495,0l-2.25482,2.25476c-.72614.72614-1.99274.72614-2.71887,0l-2.25482-2.25476c-.59509-.59564-1.66882-.59564-2.26495,0l-2.25476,2.25476c-.74939.74939-1.9696.74939-2.71893,0l-4.74646-4.74646c-.74933-.74982-.74933-1.96906,0-2.71893l2.20544-2.20544c.5589-.55939.5589-1.46924,0-2.02808-.54144-.54242-1.48657-.54144-2.02802,0l-2.20551,2.20551c-.72321.72321-1.99567.72321-2.71887,0L2.44818.41327C1.90674-.12915.96155-.12817.4201.41327c-.27069.27075-.4201.63092-.4201,1.01379s.14893.74353.4201,1.01428l2.20551,2.20544c.36304.3631.56323.84607.56323,1.3595s-.2002.99634-.56323,1.35944L.4201,9.57123c-.27069.27069-.4201.63086-.4201,1.01379,0,.38287.14893.74353.4201,1.01422.5589.5589,1.46826.5589,2.02808,0l2.20551-2.20544c.74933-.74939,1.96954-.74939,2.71887,0l4.74646,4.74646c.3631.3631.56323.84601.56323,1.35944s-.20013.9964-.56323,1.3595l-2.25476,2.25476c-.29779.29779-.46893.71069-.46893,1.13226,0,.422.17114.8349.46893,1.13269l2.25476,2.25482c.3631.36304.56323.84601.56323,1.35944s-.20013.9964-.56323,1.35944l-2.25476,2.25482c-.29779.29779-.46893.71063-.46893,1.13269,0,.42157.17114.83441.46893,1.13226l2.25476,2.25476c.3631.3631.56323.84607.56323,1.35944,0,.51343-.20013.9964-.56323,1.3595l-4.74646,4.74646c-.74933.74933-1.96954.74933-2.71887,0l-2.20551-2.20551c-.55981-.55884-1.46918-.55981-2.02808,0-.27118.27075-.4201.63141-.4201,1.01428,0,.38293.14941.74304.4201,1.01379l2.20551,2.20551c.36304.36304.56323.84601.56323,1.35944s-.2002.9964-.56323,1.35944l-2.20551,2.20551Zm32.71387-28.65778c.3631-.36255.84607-.56226,1.3595-.56226.51337,0,.99634.19971,1.35944.56226.36255.36261.56177.84509.56177,1.35901,0,.51434-.19922.99683-.56177,1.35944-.72375.72369-1.9942.72467-2.71893,0-.36304-.3631-.56268-.84558-.56268-1.35944,0-.51343.19965-.99591.56268-1.35901Zm0,9.49347c.3631-.3631.84607-.56323,1.3595-.56323.51337,0,.99634.20013,1.35944.56323.36255.36255.56177.84503.56177,1.35944,0,.51392-.19922.9964-.56177,1.35895-.74933.74841-1.96954.74841-2.71893,0-.36304-.36304-.56268-.84552-.56268-1.35895,0-.51392.19965-.9964.56268-1.35944Zm-4.74646-14.24042c.3631-.36261.84601-.56226,1.35944-.56226s.99591.19965,1.35901.56226c.36255.36261.56219.84509.56219,1.35944,0,.5144-.19965.99689-.56219,1.3595-.72473.72467-1.99475.72369-2.71844,0-.3631-.3631-.56323-.84607-.56323-1.3595s.20013-.99634.56323-1.35944Zm3.28064,10.85291c0,.5144-.19965.99689-.56219,1.35944-.7489.74792-1.96863.74884-2.71844,0-.36261-.36255-.56177-.84503-.56177-1.35944s.19916-.99689.56177-1.35944c.36261-.36212.84552-.56177,1.35944-.56177.51343,0,.9964.19965,1.35901.56177.36255.36255.56219.84503.56219,1.35944Zm-3.28064,8.13397c.3631-.36304.84552-.56274,1.35944-.56274.51343,0,.99591.19971,1.35901.56274.36255.36261.56219.84509.56219,1.35944,0,.5144-.19965.99689-.56219,1.3595-.7489.74786-1.96863.74884-2.71844,0-.3631-.3631-.56323-.84607-.56323-1.3595,0-.51337.20013-.99634.56323-1.35944Zm-4.74695-14.23993c.36304-.36255.84601-.56226,1.35944-.56226s.9964.19971,1.35944.56226c.36261.36261.56177.84509.56177,1.35901,0,.51434-.19916.99683-.56177,1.35944-.74933.74835-1.96954.74835-2.71887,0-.36261-.36261-.56177-.84509-.56177-1.35944,0-.51392.19916-.9964.56177-1.35901Zm0,9.49347c.72614-.72516,1.99274-.72516,2.71887,0,.36261.36255.56177.84503.56177,1.35944,0,.51392-.19916.9964-.56177,1.35895-.74933.74841-1.96954.74841-2.71887,0-.36261-.36255-.56177-.84503-.56177-1.35895,0-.5144.19916-.99689.56177-1.35944Zm-4.74652-14.24042c.3631-.36261.84558-.56226,1.35901-.56226s.99634.19965,1.35944.56226c.3631.3631.56323.84601.56323,1.35944s-.20013.9964-.56323,1.3595c-.72418.72369-1.9942.72467-2.71844,0-.36255-.36261-.56219-.84509-.56219-1.3595,0-.51434.19965-.99683.56219-1.35944Zm0,9.49347c.36261-.36212.84558-.56177,1.35901-.56177.51392,0,.99683.19965,1.35944.56177.36261.36255.56177.84503.56177,1.35944s-.19916.99689-.56177,1.35944c-.74884.74792-1.96857.74884-2.71844,0-.36255-.36255-.56219-.84503-.56219-1.35944s.19965-.99689.56219-1.35944Zm0,9.49341c.3631-.36304.84558-.56274,1.35901-.56274.51392,0,.99634.19971,1.35944.56274.3631.3631.56323.84607.56323,1.35944,0,.51343-.20013.9964-.56323,1.3595-.74884.74786-1.96857.74884-2.71844,0-.36255-.36261-.56219-.84509-.56219-1.3595,0-.51434.19965-.99683.56219-1.35944Zm-4.74695-14.23993c.3631-.36255.84607-.56226,1.35944-.56226.51343,0,.9964.19971,1.3595.56226.36304.3631.56268.84558.56268,1.35901,0,.51385-.19965.99634-.56268,1.35944-.72473.72467-1.99518.72369-2.71893,0-.36255-.36261-.56177-.84509-.56177-1.35944,0-.51392.19922-.9964.56177-1.35901Zm0,9.49347c.3631-.3631.84607-.56323,1.35944-.56323.51343,0,.9964.20013,1.3595.56323.36304.36304.56268.84552.56268,1.35944,0,.51343-.19965.99591-.56268,1.35895-.74939.74841-1.9696.74841-2.71893,0-.36255-.36255-.56177-.84503-.56177-1.35895,0-.5144.19922-.99689.56177-1.35944Z"/></svg>