<?xml version="1.0" encoding="UTF-8"?><svg id="Layer_1" xmlns="http://www.w3.org/2000/svg" viewBox="0 0 50 50"><path d="m42.67767,42.67767c9.76312-9.76312,9.76312-25.59222,0-35.35535S17.08545-2.4408,7.32233,7.32233c-9.76312,9.76306-9.76312,25.59222,0,35.35535,9.76312,9.76306,25.59222,9.76306,35.35535,0Zm-.94952-36.21356c.09589.0824.18884.16992.28284.25562.01117.01025.02252.02014.03369.03046h-.00006l-.00006-.00006c-3.27307-2.66956-8.10114-2.4787-11.15198.5722-3.25439,3.25433-3.25439,8.53076,0,11.7851,3.25433,3.25439,8.5307,3.25439,11.7851,0,3.05084-3.05084,3.24164-7.8786.57239-11.15173v-.00006s0-.00006-.00006-.00006c0-.00006-.00006-.00006-.00006-.00012.0932.10675.19702.20728.28595.31641.00006,0,0,.00012.00006.00012,4.00415,4.90967,3.71808,12.15161-.85828,16.72803-4.88153,4.88153-12.79614,4.88153-17.67767,0-4.88153-4.88159-4.88153-12.79614,0-17.67767,4.57635-4.57642,11.8183-4.86243,16.72803-.85828,0,.00006.00012,0,.00012.00006Zm-28.51324.85822C20.94397-.40674,33.22644-.77802,41.41174,6.1781c-6.5462-5.33905-16.20239-4.95764-22.30432,1.14423-6.50873,6.50873-6.50873,17.06146,0,23.57019,6.50873,6.50879,17.06152,6.50879,23.57025,0,6.10187-6.10187,6.48328-15.75806,1.14423-22.30426,6.95612,8.1853,6.58484,20.46777-1.14423,28.19684-8.13593,8.13593-21.32684,8.13593-29.46277,0s-8.13593-21.32684,0-29.46277Z"/></svg>