<?xml version="1.0" encoding="UTF-8"?><svg id="Layer_1" xmlns="http://www.w3.org/2000/svg" viewBox="0 0 50 50"><path d="m2.92896,17.07104l1.7677-1.7677c-2.92889-2.92896-2.92889-7.67773.00006-10.60669s7.67767-2.92889,10.60657.00006l1.76776-1.76782C13.16583-.97632,6.83417-.97632,2.92896,2.92889s-3.90527,10.23694,0,14.14215Z"/><path d="m13.53552,6.46448c-1.95264-1.95264-5.11847-1.95258-7.07104,0s-1.95264,5.11847,0,7.07104l7.07104-7.07104Z"/><path d="m12.92896,12.92889c-3.90527,3.90527-3.90527,10.23694,0,14.14215l1.7677-1.7677c-2.92889-2.92896-2.92889-7.67773.00006-10.60669s7.67767-2.92889,10.60657.00006l1.76776-1.76782c-3.90521-3.90521-10.23688-3.90521-14.14209,0Z"/><path d="m16.46448,16.46448c-1.95264,1.95264-1.95264,5.11847,0,7.07104l7.07104-7.07104c-1.95264-1.95264-5.11847-1.95258-7.07104,0Z"/><path d="m47.07104,2.92889c-3.90527-3.90527-10.23688-3.90521-14.14209,0l1.7677,1.76776c2.92896-2.92896,7.67773-2.92896,10.60669,0s2.92889,7.67767-.00006,10.60663l1.76782,1.76776c3.90521-3.90521,3.90521-10.23694-.00006-14.14215Z"/><path d="m43.53552,6.46448c-1.95264-1.95264-5.11847-1.95264-7.07104-.00006l7.07104,7.07104c1.95258-1.95258,1.95258-5.11841,0-7.07098Z"/><path d="m2.92896,47.07104c3.90521,3.90521,10.23688,3.90527,14.14209,0l-1.76776-1.76776c-2.92889,2.92889-7.67767,2.92889-10.60657,0s-2.92896-7.67773-.00006-10.60663l-1.7677-1.76776c-3.90527,3.90527-3.90527,10.23688,0,14.14215Z"/><path d="m6.46448,43.53552c1.95258,1.95258,5.11841,1.95258,7.07104-.00006l-7.07104-7.07104c-1.95264,1.95264-1.95264,5.11847,0,7.07111Z"/><path d="m47.07111,32.92889l-1.76782,1.76782c2.92896,2.92889,2.92896,7.67767.00006,10.60657s-7.67773,2.92896-10.60669.00006l-1.7677,1.7677c3.90521,3.90527,10.23682,3.90527,14.14209,0,3.90527-3.90521,3.90527-10.23688.00006-14.14215Z"/><path d="m36.46448,43.53552c1.95258,1.95264,5.11841,1.95264,7.07104,0s1.95258-5.11841,0-7.07104l-7.07104,7.07104Z"/><path d="m24.69666,35.30334l-1.7677,1.7677c3.90521,3.90527,10.23682,3.90527,14.14209,0,3.90527-3.90521,3.90527-10.23688.00006-14.14215l-1.76782,1.76782c2.92896,2.92889,2.92896,7.67767.00006,10.60657s-7.67773,2.92896-10.60669.00006Z"/><path d="m26.46448,33.53552c1.95258,1.95264,5.11841,1.95264,7.07104,0s1.95258-5.11841,0-7.07104l-7.07104,7.07104Z"/></svg>