<?xml version="1.0" encoding="UTF-8"?><svg id="Layer_1" xmlns="http://www.w3.org/2000/svg" viewBox="0 0 50 50"><path d="m16.62964,30.49744c-.0332.0332-.07959.05219-.1275.05219h-4.07941c-1.88452,0-3.41748,1.53296-3.41748,3.41748v4.0799c0,.04694-.01953.09326-.05273.12701l-4.91461,4.91516c-.0332.0332-.07959.05219-.12756.05219h-.35046c-1.84076,0-3.39429,1.37756-3.53656,3.13501-.08167,1.00446.27875,1.98779.98914,2.69873.70984.71088,1.6911,1.07135,2.69922.99017,1.758-.14331,3.13501-1.69739,3.13501-3.53711v-.35046c0-.04688.01953-.09326.05273-.12695l4.91516-4.91522c.03375-.0332.08014-.05267.12701-.05267h4.07941c1.88446,0,3.41748-1.53302,3.41748-3.41748v-4.07941c0-.04797.01898-.09381.05267-.12756.3573-.3573.85266-.56226,1.35803-.56226h8.30164c.51276,0,.99493.19971,1.35803.56281.03369.03375.05212.07904.05212.12701v4.07941c0,1.88446,1.53302,3.41748,3.41754,3.41748h4.07935c.04797,0,.09332.01898.12756.05267l4.91516,4.91522c.03375.03369.05219.07904.05219.12695v.35046c0,1.83972,1.37701,3.3938,3.13611,3.53711.09326.00739.18652.01111.2793.01111.90533,0,1.77484-.35681,2.41937-1.00183.71039-.71039,1.0708-1.69373.98914-2.69818-.14331-1.758-1.69739-3.13501-3.53711-3.13501h-.35046c-.04791,0-.09326-.01843-.12701-.05219l-4.91516-4.91516c-.0332-.03375-.05267-.08008-.05267-.12701v-4.0799c0-1.88452-1.53302-3.41748-3.41754-3.41748h-4.07935c-.04797,0-.09326-.01849-.14917-.07434-.3631-.3631-.56281-.84583-.56281-1.35858v-8.23462c0-.50537.20502-1.00024.58496-1.38019.03375-.0332.08008-.05267.12701-.05267h4.07935c1.88452,0,3.41754-1.53302,3.41754-3.41754v-4.07935c0-.04742.01947-.09381.05267-.12756l4.91516-4.91467c.03375-.03314.08014-.05267.12701-.05267h.35046c1.83972,0,3.3938-1.37701,3.53711-3.13501.08167-1.00446-.27875-1.98834-.98969-2.69873-.71088-.71088-1.69531-1.06818-2.69812-.98962-1.75854.14227-3.13611,1.6958-3.13611,3.53656v.35046c0,.04797-.01898.0943-.05219.1275l-4.91516,4.91467c-.03375.0332-.08014.05267-.12701.05267h-4.0799c-1.88452,0-3.41754,1.53302-3.41754,3.41754v4.07935c0,.04797-.01892.09436-.10431.1792-.35675.35675-.85162.56177-1.35754.56177h-8.19879c-.51276,0-.99548-.19971-1.40918-.6134-.0332-.03375-.05267-.08014-.05267-.12756v-4.07935c0-1.88452-1.53302-3.41754-3.41748-3.41754h-4.07941c-.04742,0-.09381-.01947-.1275-.05267l-4.91467-4.91467c-.0332-.03369-.05273-.08008-.05273-.1275v-.35046C6.84668,1.72986,5.46918.17633,3.71167.03406c-1.00598-.07855-1.98828.2793-2.69867.98962C.30206,1.73407-.05835,2.71796.02332,3.72131c.14227,1.75861,1.6958,3.13611,3.53656,3.13611h.35046c.04742,0,.09381.01953.12756.05267l4.91461,4.91467c.0332.03375.05273.08014.05273.12756v4.07935c0,1.88452,1.53296,3.41754,3.41748,3.41754h4.07941c.04742,0,.09375.01947.17865.10382.36304.36304.56281.84528.56281,1.35803v8.1767c0,.51276-.19977.99493-.61395,1.40967Z"/></svg>