<?xml version="1.0" encoding="UTF-8"?><svg id="Layer_1" xmlns="http://www.w3.org/2000/svg" viewBox="0 0 50 50"><path d="m40,15c-2.39093,0-4.5835.8407-6.30231,2.24158-.54462.44385-1.17676.75458-1.8418.92596.18207-.70068.50928-1.37073.97241-1.95203,1.54492-1.93896,2.38397-4.46417,2.12531-7.19092C34.51349,4.38409,30.77325.57562,26.14014.06317c-6.03333-.6673-11.14014,4.03833-11.14014,9.93683,0,2.39093.8407,4.5835,2.24164,6.30231.44385.54456.75446,1.17676.92584,1.84174-.70068-.18207-1.37067-.50928-1.95197-.97241-1.93896-1.54486-4.46399-2.38385-7.19067-2.12531C4.38428,15.48633.57574,19.2265.06323,23.85962c-.66742,6.03345,4.03833,11.14038,9.93677,11.14038,2.39093,0,4.58344-.8407,6.30231-2.24164.54456-.44385,1.1767-.75446,1.84174-.92584-.18207.70068-.50928,1.37067-.97241,1.95197-1.5448,1.93896-2.38385,4.46405-2.12531,7.19061.44006,4.64062,4.18024,8.44922,8.81329,8.96167,6.03345.66748,11.14038-4.03833,11.14038-9.93677,0-2.39087-.8407-4.5835-2.24158-6.30231-.44385-.54462-.75458-1.1767-.92596-1.84174.70068.18207,1.37073.50922,1.95197.97235,1.93903,1.54492,4.46423,2.38391,7.19098,2.12531,4.6405-.44012,8.44897-4.18036,8.96143-8.81348.66724-6.03333-4.03833-11.14014-9.93683-11.14014Z"/><circle cx="45" cy="5" r="5"/><circle cx="5" cy="5" r="5"/><circle cx="45" cy="45" r="5"/><circle cx="5" cy="45" r="5"/></svg>