<?xml version="1.0" encoding="UTF-8"?><svg id="Layer_1" xmlns="http://www.w3.org/2000/svg" viewBox="0 0 50 50"><path d="m11.40918,6.94482c.04034-.18677.07135-.37646.09296-.57458l.01782-.22632c.01221-.17566.01453-.35303.00891-.56897l-.00702-.18872c-.01648-.2489-.04559-.50146-.09674-.75684-.23004-1.15588-.81219-2.20471-1.67932-3.03198-.06152-.05908-.12817-.11255-.24225-.20276-.39673-.33899-.78406-.60095-1.18683-.80188-.0531-.02625-.10754-.04785-.15308-.06384-.51129-.23572-1.02863-.39246-1.53613-.46472-.23993-.03479-.47748-.05542-.71173-.06104v.00098l-.02252-.00098c-.40234-.00854-.82349.02905-1.24225.11084-.84369.16699-1.62396.51355-2.36481,1.0647-.05585.04126-.11127.08264-.1615.12402-.32483.26465-.61639.55859-.86755.87317-.13568.16992-.26154.34827-.37842.53333C.27777,3.66968-.02551,4.77869.00311,5.91858c.0061.23279.02539.46948.06012.70886.1601,1.10144.65491,2.13708,1.42206,2.98596l.10938.12952c.83051.87036,1.87982,1.45264,3.03284,1.68164.25726.05176.51031.08081.75543.0968.06146.00476.1225.00647.23615.00842.17841.00378.35162.00195.52814-.0094.08075-.00647.1615-.01221.23993-.02063.18024-.02075.35681-.0498.57275-.09302l.19153-.03931c1.08545-.2771,2.1488-.02734,2.84222.66565l.22534.22534c.5296.52966.72632,1.15393.54932,1.77368-.06195.21973-.10468.43762-.13568.65173l-.02301.20557c-.01501.14832-.02441.29663-.02631.4469-.00043.07422,0,.14832.00287.21973.00562.14746.01782.29211.04083.46948.0061.05457.01312.10901.0155.11462l.01593.11548c.21454,1.14355-.07043,2.21313-.76996,2.92383-.54456.5343-1.37933.68457-2.18121.39258-.95111-.34644-1.94781-.43103-2.96429-.24976-2.39758.42529-4.32104,2.3999-4.67694,4.80176-.27325,1.84412.31927,3.64978,1.62537,4.95581,1.3056,1.30518,3.11078,1.89868,4.95581,1.62451,2.40137-.35693,4.37555-2.28076,4.8009-4.67798.17981-1.01685.09576-2.01404-.25024-2.96338-.28217-.77551-.14459-1.59521.3136-2.0929,1.03943-.98035,2.20801-1.00745,3.06573-.85071.05725.01025.11499.01782.20935.02905.13898.01782.27985.03003.43146.03577.0545.00183.10895.00281.16058.00281.17749.00281.32861-.00854.54083-.03003.05774-.00562.11505-.01123.16711-.01978.21503-.03101.43195-.07324.66809-.13989.57654-.16626,1.19952-.00366,1.62439.42065l2.22913,2.22913c.45868.45911.67603.87793.66473,1.26099-.00513.08069-.00653.16248-.02863.26013-.03381.15674-.05774.3136-.07275.46753-.13519,1.41504-.6413,3.38684-2.2854,4.7417-.86859.7146-2.01318.62732-2.62018.5127-.72961-.13794-1.47839-.10425-2.22205.10522-1.57465.44141-2.82959,1.69202-3.27509,3.26477-.21741.76892-.24976,1.53992-.09723,2.29285.2193,1.08081-.09436,2.17004-.88257,2.95776-.48828.48926-1.23004.63196-1.88922.36523-1.12439-.45435-2.35913-.53699-3.57037-.2356-2.29108.5708-3.92578,2.38403-4.26617,4.73328-.26715,1.84875.3338,3.6554,1.64929,4.95679,1.31451,1.30042,3.13,1.88257,4.97363,1.59717,2.30988-.35779,4.20282-2.12952,4.70984-4.41028.26294-1.1803.16101-2.38123-.29437-3.47144-.25677-.61682-.09717-1.35864.39862-1.84595.76849-.75586,1.87415-1.06567,3.03894-.85449.69714.12866,1.41125.09766,2.12341-.0929,1.60706-.4281,2.88641-1.6864,3.33899-3.28259.22064-.78125.25067-1.56519.08966-2.32764-.22162-1.05078.08685-2.11926.8244-2.85815l.06805-.06763c1.06573-1.06396,2.58026-1.71741,4.38074-1.88831.11829-.01135.23755-.02722.37555-.05444l.11554-.02161c.43896-.0957.89386.0376,1.21216.35498l2.5141,2.5144c.42438.42456.58588,1.047.41638,1.64038-.06195.21973-.10468.43762-.13568.65161l-.02295.20569c-.01508.14832-.02441.29675-.02631.4469-.00049.07422,0,.14844.00281.21973.00562.14746.01782.29199.04083.46948.0061.05444.01318.10889.0155.11462l.01599.11548c.21454,1.14368-.07043,2.21313-.76996,2.92395-.54462.5332-1.37982.68359-2.18121.39246-.95026-.34656-1.94739-.43103-2.96429-.24976-2.39764.42542-4.32111,2.40002-4.67694,4.80188-.27325,1.84399.31921,3.64966,1.62531,4.95581,1.09674,1.09668,2.54602,1.69006,4.07465,1.69006.29108,0,.58588-.02161.88116-.0658,2.40143-.35669,4.37561-2.28064,4.8009-4.67773.17981-1.01697.09583-2.01416-.25018-2.96338-.28217-.77563-.14465-1.59534.3136-2.09302,1.03943-.9812,2.20795-1.00659,3.08167-.84692l.19342.02539c.1394.01782.28027.03003.43146.03564.05444.00195.10938.00281.16101.00281.17041-.00183.32819-.0094.539-.03003.05817-.00562.11639-.01135.16852-.01965.21503-.03101.43195-.07324.66711-.13989.14319-.04053.29156-.06201.43756-.06396.27698.02258.58264.07227.83801.2179.12585.07141.24414.1615.34979.26672.89807.89844,1.28778,2.13599,1.00702,3.27686l-.02582.1333c-.03943.18604-.07043.37378-.09204.5719l-.01782.2262c-.01221.1748-.01453.35132-.00891.58325l.00702.17554c.01691.24878.04553.50049.09625.75586.34509,1.73047,1.5061,3.23853,3.10889,4.03662.05261.02625.10657.04785.15497.0647.51074.23389,1.02673.39062,1.53375.46387.23993.03467.47797.05542.73474.06006.40656.01123.82721-.02905,1.24274-.10986,3.01593-.59521,5.03046-3.4563,4.58679-6.51257-.11029-.76526-.39014-1.5061-.83142-2.20093-.17749-.28076-.37183-.53992-.57935-.77368l-.12067-.14172c-.8291-.86963-1.87842-1.45166-3.03662-1.68359-.25769-.05078-.51074-.07983-.75116-.09485-.07275-.00574-.14459-.00745-.23517-.00842-.177-.00293-.35309-.00195-.5296.00928-.08124.00659-.16101.01221-.23334.02075-.18262.0188-.36102.04883-.57794.09302l-.19244.03931c-1.08643.27515-2.1488.02734-2.84222-.66577l-.2254-.22534c-.52954-.52954-.72626-1.15295-.54974-1.77271.06244-.22156.10516-.43848.13617-.65063.008-.05444.01361-.10889.02203-.20288.0155-.14917.02539-.29956.02722-.45166.00049-.07507,0-.14832-.00281-.21973-.00562-.14648-.01831-.28906-.04083-.46948-.0061-.05347-.0127-.10693-.0155-.11731l-.01593-.11267c-.21454-1.14368.07043-2.21313.77039-2.92383.54321-.53442,1.37842-.68274,2.18073-.39355.95074.34644,1.94745.43103,2.96429.24976,2.39813-.42529,4.32111-2.3999,4.67651-4.80078.27325-1.84326-.31879-3.64978-1.62488-4.95581-1.30518-1.30518-3.10889-1.90149-4.95581-1.62451-2.40143.35681-4.37555,2.28076-4.8009,4.67798-.17981,1.01685-.09576,2.01404.24976,2.96338.28217.77551.14459,1.59521-.31317,2.09277-1.03943.98218-2.20557,1.00757-3.08167.84705l-.19293-.02539c-.1394-.01782-.28027-.03003-.43195-.03564-.05444-.00183-.10938-.00281-.1615-.00281-.17133.00098-.32721.00842-.54504.03101l-.16241.01782c-.21503.03101-.43146.07422-.6676.14087-.57843.16699-1.20001.00366-1.62439-.42065l-2.22961-2.23096c-.45868-.45728-.67554-.8761-.66431-1.25732.00519-.08264.00659-.16528.02869-.26392.03375-.15674.05774-.31165.07275-.46558.13519-1.41504.6413-3.38696,2.2854-4.74182.86853-.71448,2.01361-.62732,2.61969-.5127.73053.13904,1.47748.10425,2.22253-.1051,1.57416-.44043,2.8291-1.69214,3.27509-3.26489.21741-.76892.24976-1.53979.09717-2.29285-.21924-1.08069.09436-2.16992.88263-2.95764.48828-.48926,1.23053-.63208,1.88873-.36536,1.12537.45544,2.36005.53711,3.57086.23572,2.2915-.57092,3.92627-2.38501,4.26617-4.73425.26715-1.8479-.3338-3.65344-1.6488-4.95581-1.31458-1.30139-3.13007-1.88452-4.97418-1.59717-2.30981.35779-4.20276,2.12952-4.70978,4.41028-.26294,1.18018-.16107,2.38025.29388,3.47046.25726.61768.09717,1.35962-.39862,1.84692-.76709.75488-1.87506,1.06848-3.03986.85254-.69763-.12402-1.41125-.09485-2.12207.09473-1.60748.4292-2.88678,1.68652-3.33893,3.28271-.22064.78125-.25067,1.56421-.09015,2.32861.22211,1.0498-.08636,2.11829-.82391,2.85718l-.06805.06763c-1.06573,1.06384-2.58026,1.71741-4.38074,1.88818-.13617.01318-.27325.03296-.39716.05835l-.16388.03186c-.41876.0658-.84131-.06848-1.14221-.36902l-2.5141-2.51453c-.42438-.42444-.58588-1.04602-.41687-1.6394.06244-.22156.10516-.43848.13611-.65076.008-.05444.01361-.10889.02209-.20276.0155-.14929.02533-.29944.02722-.45166.00049-.07507,0-.14832-.00281-.2196-.00562-.14648-.01831-.28931-.04083-.46948-.0061-.05359-.0127-.10718-.0155-.11743l-.01599-.11267c-.21454-1.14368.07043-2.21313.77045-2.92395.54315-.53516,1.37836-.68457,2.18073-.39343.95068.34741,1.94739.43103,2.96429.24976,2.39807-.42542,4.32111-2.40002,4.67645-4.8009.27325-1.84314-.31873-3.64966-1.62482-4.95581-1.30518-1.30518-3.10938-1.89954-4.95587-1.62439-2.40137.35681-4.37555,2.28064-4.8009,4.67786-.17981,1.01685-.09576,2.01416.24982,2.96338.2821.77563.14459,1.59521-.31317,2.09302-1.03802.9812-2.20514,1.0083-3.08075.84692l-.19385-.02539c-.13995-.01782-.28027-.03003-.43195-.03564-.05444-.00195-.10938-.00293-.1615-.00293-.17181,0-.32721.00952-.54504.03101l-.16248.01782c-.21503.03101-.43146.07422-.6662.14087-.14362.04041-.29248.06201-.43799.06396-.30377.00464-.58313-.07324-.83478-.21606-.12958-.07422-.24878-.16528-.35254-.26855-.89862-.89856-1.28827-2.13696-1.00848-3.27222l.02588-.13525Zm-4.55798,3.50269l.00006-.00012.00018.00073-.00024-.00061Zm36.30115,29.10449h-.00006l-.00018-.00085.00024.00085Zm-4.74634-5.5575l.00055-.00012-.00055.00024v-.00012Zm-4.35419-3.18091h-.00006l-.00006-.00037.00012.00037Zm-3.22864,4.41541c.00006,0,0,0,0,0l-.00055.00012.00055-.00012Zm-11.64709-20.46436l.00061-.00012-.00061.00012h0Zm-4.35419-3.18091h-.00006l-.00006-.00049.00012.00049Zm-3.22858,4.41528c.00006,0,0,.00012,0,.00012l-.00061.00012.00061-.00024Z"/></svg>