<?xml version="1.0" encoding="UTF-8"?><svg id="Layer_1" xmlns="http://www.w3.org/2000/svg" viewBox="0 0 50 50"><path d="m50,12.74512c0-7.02747-5.71765-12.74512-12.74512-12.74512-5.82678,0-10.74164,3.93555-12.25488,9.28442C23.48676,3.93555,18.5719,0,12.74512,0,5.71765,0,0,5.71765,0,12.74512c0,5.82666,3.93542,10.74158,9.28436,12.25488C3.93542,26.51318,0,31.42822,0,37.25488c0,7.02734,5.71765,12.74512,12.74512,12.74512,5.82678,0,10.74164-3.93555,12.25488-9.28455,1.51324,5.349,6.4281,9.28455,12.25488,9.28455,7.02747,0,12.74512-5.71777,12.74512-12.74512,0-5.82666-3.93542-10.7417-9.28436-12.25488,5.34894-1.51331,9.28436-6.42822,9.28436-12.25488Zm-24.46417,6.90149c.02142-.20642.0481-.40967.09705-.60681.01849-.07446.04565-.14514.06787-.21802.04529-.14856.0788-.30225.13892-.4436.0365-.08594.091-.16113.13275-.24438.0481-.0957.09833-.18994.15302-.28149.0976-.16345.20551-.31689.32269-.46582.80847-1.02722,2.04816-1.7002,3.45386-1.7002,2.4328,0,4.41174,1.979,4.41174,4.41174,0,1.40576-.67297,2.64539-1.70026,3.45386-.14886.11719-.30237.22498-.46582.32263-.09161.05469-.18585.10498-.28156.15308-.08313.04175-.15839.09619-.24438.13281-.14148.06006-.29498.09351-.44348.13892-.07294.02222-.14362.04932-.21808.06775-.19708.04895-.40039.07556-.60687.09705-.15051.01562-.29675.04565-.45129.04565-.0813,0-.15723-.01965-.23743-.02393-.80841-.04407-1.56274-.29175-2.19843-.7146-.49048-.32629-.91132-.74719-1.23755-1.23767-.42285-.63562-.67047-1.39001-.71442-2.19836-.00433-.08008-.02399-.15601-.02399-.23718,0-.15466.03009-.3009.04565-.45142Zm-1.07166,0c.01556.15051.04565.29675.04565.45142,0,.08118-.01965.1571-.02399.23718-.04395.80835-.29156,1.56274-.71442,2.19836-.32623.49048-.74707.91138-1.23755,1.23767-.63568.42285-1.39014.67053-2.19849.7146-.0802.00427-.15607.02393-.23737.02393-.15454,0-.30078-.03003-.45129-.04565-.20648-.02148-.40979-.0481-.60687-.09705-.07446-.01843-.14514-.04553-.21808-.06775-.1485-.04541-.302-.07886-.44348-.13892-.086-.03662-.16125-.09106-.24438-.13281-.0957-.0481-.18994-.09839-.28156-.15308-.16345-.09766-.31696-.20544-.46582-.32263-1.02728-.80847-1.70026-2.0481-1.70026-3.45386,0-2.43274,1.97894-4.41174,4.41174-4.41174,1.4057,0,2.64539.67297,3.45386,1.7002.11719.14893.2251.30237.32269.46582.05469.09155.10492.18579.15302.28149.04175.08325.09625.15845.13275.24438.06012.14136.09363.29504.13892.4436.02222.07288.04938.14355.06787.21802.04895.19714.07562.40039.09705.60681ZM5.88232,15.19604c0-5.1355,4.17816-9.31372,9.31378-9.31372,4.59833,0,8.41913,3.35303,9.17029,7.74023-1.37274-2.28296-3.86694-3.8186-6.71936-3.8186-4.32458,0-7.84314,3.51843-7.84314,7.84302,0,2.85242,1.53564,5.34656,3.8186,6.71924-4.38727-.75122-7.74017-4.5719-7.74017-9.17017Zm9.31378,28.92163c-5.13562,0-9.31378-4.17822-9.31378-9.31372,0-4.59839,3.35291-8.41895,7.74017-9.17029-2.28296,1.37268-3.8186,3.86682-3.8186,6.71924,0,4.32458,3.51855,7.84314,7.84314,7.84314,2.85242,0,5.34662-1.53564,6.71936-3.81873-.75116,4.38733-4.57196,7.74036-9.17029,7.74036Zm9.26807-13.7644c-.02142.20654-.0481.40967-.09705.60681-.01849.07458-.04565.14526-.06787.21814-.04529.14856-.0788.30212-.13892.4436-.0365.08594-.091.16113-.13275.24426-.0481.09583-.09833.18994-.15302.28162-.0976.16333-.20551.31689-.32269.46582-.80847,1.02722-2.04816,1.7002-3.45386,1.7002-2.4328,0-4.41174-1.979-4.41174-4.41187,0-1.40564.67297-2.64526,1.7002-3.45374.14893-.11731.30243-.2251.46582-.32263.09161-.05469.18585-.10498.28162-.15308.08313-.04175.15839-.09619.24438-.13281.14142-.06006.29492-.09351.44342-.13892.07294-.02222.14362-.04932.21814-.06787.19708-.04883.40039-.07556.60687-.09692.15051-.01562.29675-.04565.45129-.04565.08124,0,.15704.01953.23718.02393.80847.04395,1.56293.29163,2.19867.7146.49042.32617.91119.74707,1.23743,1.23755.42291.63574.67059,1.39014.71454,2.19849.00433.08008.02399.15601.02399.23706,0,.15466-.03009.30103-.04565.45142Zm-2.14862-5.35327c1.18866-.54041,2.14417-1.49585,2.68445-2.68445.54028,1.1886,1.49579,2.14404,2.68445,2.68445-1.18866.54028-2.14417,1.49585-2.68445,2.68445-.54028-1.1886-1.49579-2.14417-2.68445-2.68445Zm3.22028,5.35327c-.01556-.15039-.04565-.29675-.04565-.45142,0-.08105.01965-.15698.02399-.23706.04395-.80835.29163-1.56274.71454-2.19849.32623-.49048.74701-.91138,1.23743-1.23755.63574-.42297,1.3902-.67065,2.19867-.7146.08014-.00439.15594-.02393.23718-.02393.15454,0,.30078.03003.45129.04565.20648.02136.40979.0481.60687.09692.07452.01855.1452.04565.21814.06787.1485.04541.302.07886.44342.13892.086.03662.16125.09106.24438.13281.09576.0481.19.09839.28162.15308.16339.09753.31689.20532.46582.32263,1.02722.80847,1.7002,2.0481,1.7002,3.45374,0,2.43286-1.97894,4.41187-4.41174,4.41187-1.4057,0-2.64539-.67297-3.45386-1.7002-.11719-.14893-.2251-.30249-.32269-.46582-.05469-.09167-.10492-.18579-.15302-.28162-.04175-.08313-.09625-.15833-.13275-.24426-.06012-.14148-.09363-.29517-.13892-.4436-.02222-.073-.04938-.14355-.06787-.21814-.04895-.19714-.07562-.40027-.09705-.60681Zm18.58185,4.45068c0,5.1355-4.17816,9.31372-9.31378,9.31372-4.59833,0-8.41913-3.35303-9.17029-7.74036,1.37274,2.28308,3.86694,3.81873,6.71936,3.81873,4.32458,0,7.84314-3.51855,7.84314-7.84314,0-2.85242-1.53564-5.34656-3.8186-6.71924,4.38727.75134,7.74017,4.5719,7.74017,9.17029Zm-7.74017-10.43774c2.28296-1.37268,3.8186-3.86682,3.8186-6.71924,0-4.32458-3.51855-7.84302-7.84314-7.84302-2.85242,0-5.34662,1.53564-6.71936,3.8186.75116-4.38721,4.57196-7.74023,9.17029-7.74023,5.13562,0,9.31378,4.17822,9.31378,9.31372,0,4.59827-3.35291,8.41895-7.74017,9.17017Z"/></svg>