<?xml version="1.0" encoding="UTF-8"?><svg id="Layer_1" xmlns="http://www.w3.org/2000/svg" viewBox="0 0 50 50"><path d="m25,0C11.19287,0,0,11.19287,0,25s11.19287,25,25,25,25-11.19287,25-25S38.80707,0,25,0Zm13.99713,35.78119l2.02179,2.02179c.85785.85785.96088,2.25537.15875,3.16547-.87604.99408-2.39374,1.02991-3.3161.10754l-2.07959-2.07959c-5.95435-5.95428-15.60815-5.95428-21.5625,0l-2.02173,2.02179c-.85779.85785-2.25531.96088-3.16547.15881-.99408-.8761-1.02991-2.39386-.10754-3.31622l2.07959-2.07959c5.95435-5.95428,5.95435-15.60809,0-21.56244l-2.02179-2.02179c-.85779-.85773-.96082-2.25525-.15881-3.16541.8761-.99408,2.39386-1.02997,3.31616-.1076l2.07959,2.07965c5.95435,5.95435,15.60815,5.95435,21.5625,0l2.07959-2.07959c.92236-.92236,2.44006-.88654,3.3161.10748.80212.91016.6991,2.30768-.15875,3.16547l-2.02179,2.02179c-5.95428,5.95435-5.95428,15.60815,0,21.56244Z"/></svg>