<?xml version="1.0" encoding="UTF-8"?><svg id="Layer_1" xmlns="http://www.w3.org/2000/svg" viewBox="0 0 50 50"><path d="m12.50677.00793C12.48846,6.89624,6.90045,12.47498.00793,12.47498v12.50061C13.80432,24.97559,24.98895,13.80005,25.00726.00793h-12.50049Z"/><path d="m49.99207,12.49084c-6.88831-.01831-12.4671-5.60632-12.4671-12.49878h-12.50049c0,13.79639,11.17548,24.98108,24.96759,24.99939v-12.50061Z"/><path d="m.00793,25.02441v12.50049c6.89252,0,12.48053,5.57886,12.49884,12.46716h12.50049c-.01831-13.79211-11.20294-24.96765-24.99933-24.96765Z"/><path d="m49.99207,37.50903v-12.50049c-13.79211.01831-24.96759,11.20288-24.96759,24.99939h12.50049c0-6.89246,5.5788-12.48059,12.4671-12.4989Z"/></svg>