<?xml version="1.0" encoding="UTF-8"?><svg id="Layer_1" xmlns="http://www.w3.org/2000/svg" viewBox="0 0 50 50"><path d="m14.5802,32.70471l-11.1629,5.57727C1.32074,39.32947-.00372,41.47186-.00372,43.81549c0,3.41632,2.76941,6.18573,6.18567,6.18573h.00006c2.34363,0,4.48602-1.32452,5.53351-3.42102l5.57471-11.1579c1.04749-2.09656,3.18988-3.42108,5.53351-3.42108h4.35254c2.34363,0,4.48602,1.32452,5.53351,3.42108l5.57471,11.1579c1.04749,2.0965,3.18988,3.42102,5.53351,3.42102h.00006c3.41626,0,6.18567-2.76941,6.18567-6.18573,0-2.34363-1.32446-4.48602-3.42102-5.53351l-11.1604-5.57605c-2.09656-1.04749-3.42108-3.18982-3.42108-5.53351v-4.34491c0-2.34363,1.32452-4.48602,3.42108-5.53351l11.1604-5.57605c2.09656-1.04749,3.42102-3.18982,3.42102-5.53351C50.00372,2.76819,47.23431-.00128,43.81805-.00128h-.00006c-2.34363,0-4.48602,1.32452-5.53351,3.42108l-5.57599,11.1604c-1.04749,2.09656-3.18988,3.42102-5.53351,3.42102h-4.34998c-2.34363,0-4.48602-1.32446-5.53351-3.42102L11.71552,3.4198C10.66803,1.32324,8.52563-.00128,6.18201-.00128h-.00006C2.76569-.00128-.00372,2.76819-.00372,6.18445-.00372,8.52814,1.32074,10.67047,3.4173,11.71796l11.1629,5.57727c2.09656,1.04749,3.42108,3.18988,3.42108,5.53351v4.34247c0,2.34369-1.32452,4.48602-3.42108,5.53351Z"/></svg>