<?xml version="1.0" encoding="UTF-8"?><svg id="Layer_1" xmlns="http://www.w3.org/2000/svg" viewBox="0 0 50 50"><path d="m2.20508,41.01123c-1.3396.9129-2.20508,2.35986-2.20508,3.98871,0,2.76147,2.4873,5.00006,5.55554,5.00006h11.11115c-3.0683,0-5.5556-2.23859-5.5556-5.00006,0-1.62885.86548-3.07581,2.20508-3.98871.7182-.48938.7182-1.53314.00006-2.02252-1.33966-.9129-2.20514-2.35986-2.20514-3.98877s.86548-3.07581,2.20508-3.98871c.7182-.48938.7182-1.53314.00006-2.02252-1.33966-.9129-2.20514-2.35986-2.20514-3.98877s.86548-3.07581,2.20508-3.98871c.7182-.48938.7182-1.53314.00006-2.02252-1.33966-.9129-2.20514-2.35986-2.20514-3.98877s.86548-3.07581,2.20508-3.98871c.7182-.48938.7182-1.53314.00006-2.02252-1.33966-.9129-2.20514-2.35986-2.20514-3.98877,0-2.76135,2.4873-4.99994,5.5556-4.99994H5.55554C2.4873,0,0,2.23859,0,4.99994c0,1.62891.86548,3.07587,2.20508,3.98877.7182.48938.7182,1.53314,0,2.02252-1.3396.9129-2.20508,2.35986-2.20508,3.98871s.86548,3.07587,2.20508,3.98877c.7182.48938.7182,1.53314,0,2.02252-1.3396.9129-2.20508,2.35986-2.20508,3.98871s.86548,3.07587,2.20508,3.98877c.7182.48938.7182,1.53314,0,2.02252-1.3396.9129-2.20508,2.35986-2.20508,3.98871s.86548,3.07587,2.20508,3.98877c.7182.48938.7182,1.53314,0,2.02252Z"/><path d="m47.79492,8.98871c1.3396-.9129,2.20508-2.35986,2.20508-3.98877,0-2.76135-2.4873-4.99994-5.55554-4.99994h-11.11115c3.0683,0,5.5556,2.23859,5.5556,4.99994,0,1.62891-.86548,3.07587-2.20514,3.98877-.71814.48938-.71814,1.53314.00006,2.02252,1.3396.9129,2.20508,2.35986,2.20508,3.98871s-.86548,3.07587-2.20514,3.98877c-.71814.48938-.71814,1.53314.00006,2.02252,1.3396.9129,2.20508,2.35986,2.20508,3.98871s-.86548,3.07587-2.20514,3.98877c-.71814.48938-.71814,1.53314.00006,2.02252,1.3396.9129,2.20508,2.35986,2.20508,3.98871s-.86548,3.07587-2.20514,3.98877c-.71814.48938-.71814,1.53314.00006,2.02252,1.3396.9129,2.20508,2.35986,2.20508,3.98871,0,2.76147-2.4873,5.00006-5.5556,5.00006h11.11115c3.06824,0,5.55554-2.23859,5.55554-5.00006,0-1.62885-.86548-3.07581-2.20508-3.98871-.7182-.48938-.7182-1.53314,0-2.02252,1.3396-.9129,2.20508-2.35986,2.20508-3.98877s-.86548-3.07581-2.20508-3.98871c-.7182-.48938-.7182-1.53314,0-2.02252,1.3396-.9129,2.20508-2.35986,2.20508-3.98877s-.86548-3.07581-2.20508-3.98871c-.7182-.48938-.7182-1.53314,0-2.02252,1.3396-.9129,2.20508-2.35986,2.20508-3.98877s-.86548-3.07581-2.20508-3.98871c-.7182-.48938-.7182-1.53314,0-2.02252Z"/></svg>