<?xml version="1.0" encoding="UTF-8"?><svg id="Layer_1" xmlns="http://www.w3.org/2000/svg" viewBox="0 0 50 50"><path d="m19.99933,10.00635V.00635C8.96265.00635.01532,8.94629.00067,19.97961h10c.01465-5.51038,4.48486-9.97327,9.99866-9.97327Z"/><path d="m10.00067,39.97961c.01465-5.51038,4.48486-9.97327,9.99866-9.97327v-2.71838c3.02673-1.75659,5.54596-4.27832,7.29767-7.30835h2.71771c.01465-5.51038,4.48486-9.97327,9.99866-9.97327V.00635C32.60901.00635,26.16022,4.04028,22.703,10.02039h-2.71771c-.01465,5.51038-4.48486,9.97327-9.99866,9.97327v2.71838C4.02942,26.16943.0105,32.5979.00067,39.97961h10Z"/><path d="m39.99933,10.02039c-.01465,5.51038-4.48486,9.97327-9.99866,9.97327v2.71838c-3.02673,1.75659-5.54596,4.27832-7.29767,7.30835h-2.71771c-.01465,5.51038-4.48486,9.97327-9.99866,9.97327v10c7.40436,0,13.85315-4.03394,17.31036-10.01404h2.71771c.01465-5.51038,4.48486-9.97327,9.99866-9.97327v-2.71838c5.95721-3.4574,9.97614-9.88586,9.98596-17.26758h-10Z"/><path d="m39.99933,30.02039c-.01465,5.51038-4.48486,9.97327-9.99866,9.97327v10c11.03668,0,19.98401-8.93994,19.99866-19.97327h-10Z"/></svg>