<?xml version="1.0" encoding="UTF-8"?><svg id="Layer_1" xmlns="http://www.w3.org/2000/svg" viewBox="0 0 50 50"><path d="m33.33331,14.99994c0,2.76147,2.4873,5.00006,5.5556,5.00006h-5.5556c3.0683,0,5.5556,2.23853,5.5556,4.99994s-2.4873,5.00006-5.5556,5.00006h5.5556c-3.0683,0-5.5556,2.23853-5.5556,4.99988,0,2.76154,2.4873,5.00006,5.5556,5.00006h-5.5556c3.0683,0,5.5556,2.23859,5.5556,4.99994,0,2.76154-2.4873,5.00006-5.5556,5.00006h11.11115c3.06824,0,5.55554-2.23859,5.55554-5.00006s-2.4873-4.99994-5.55554-4.99994h5.55554c-3.06824,0-5.55554-2.23853-5.55554-5s2.4873-4.99994,5.55554-4.99994h-5.55554c3.06824,0,5.55554-2.23859,5.55554-5.00006s-2.4873-4.99994-5.55554-4.99994h5.55554c-3.06824,0-5.55554-2.23859-5.55554-5.00006s2.4873-4.99994,5.55554-4.99994h-5.55554c3.06824,0,5.55554-2.23859,5.55554-5.00006s-2.4873-4.99994-5.55554-4.99994h-11.11115c3.0683,0,5.5556,2.23859,5.5556,4.99994s-2.4873,5.00006-5.5556,5.00006h5.5556c-3.0683,0-5.5556,2.23859-5.5556,4.99994Z"/><path d="m16.66669,14.99994c0,2.76147,2.4873,5.00006,5.55554,5.00006h-5.55554c3.06824,0,5.55554,2.23853,5.55554,4.99994s-2.4873,5.00006-5.55554,5.00006h5.55554c-3.06824,0-5.55554,2.23853-5.55554,4.99988,0,2.76154,2.4873,5.00006,5.55554,5.00006h-5.55554c3.06824,0,5.55554,2.23859,5.55554,4.99994,0,2.76154-2.4873,5.00006-5.55554,5.00006h11.11108c3.06824,0,5.55554-2.23859,5.55554-5.00006s-2.4873-4.99994-5.55554-4.99994h5.55554c-3.06824,0-5.55554-2.23853-5.55554-5s2.4873-4.99994,5.55554-4.99994h-5.55554c3.06824,0,5.55554-2.23859,5.55554-5.00006s-2.4873-4.99994-5.55554-4.99994h5.55554c-3.06824,0-5.55554-2.23859-5.55554-5.00006s2.4873-4.99994,5.55554-4.99994h-5.55554c3.06824,0,5.55554-2.23859,5.55554-5.00006S30.84601,0,27.77777,0h-11.11108c3.06824,0,5.55554,2.23859,5.55554,4.99994s-2.4873,5.00006-5.55554,5.00006h5.55554c-3.06824,0-5.55554,2.23859-5.55554,4.99994Z"/><path d="m0,49.99994h11.11108c3.0683,0,5.5556-2.23859,5.5556-5.00006s-2.4873-4.99994-5.5556-4.99994h5.5556c-3.0683,0-5.5556-2.23853-5.5556-5s2.4873-4.99994,5.5556-4.99994h-5.5556c3.0683,0,5.5556-2.23859,5.5556-5.00006s-2.4873-4.99994-5.5556-4.99994h5.5556c-3.0683,0-5.5556-2.23859-5.5556-5.00006s2.4873-4.99994,5.5556-4.99994h-5.5556c3.0683,0,5.5556-2.23859,5.5556-5.00006S14.17938,0,11.11108,0H0c3.06824,0,5.55554,2.23859,5.55554,4.99994S3.06824,10,0,10h5.55554c-3.06824,0-5.55554,2.23859-5.55554,4.99994s2.4873,5.00006,5.55554,5.00006H0c3.06824,0,5.55554,2.23853,5.55554,4.99994s-2.4873,5.00006-5.55554,5.00006h5.55554c-3.06824,0-5.55554,2.23853-5.55554,4.99988,0,2.76154,2.4873,5.00006,5.55554,5.00006H0c3.06824,0,5.55554,2.23859,5.55554,4.99994,0,2.76154-2.4873,5.00006-5.55554,5.00006Z"/></svg>