<?xml version="1.0" encoding="UTF-8"?><svg id="Layer_1" xmlns="http://www.w3.org/2000/svg" viewBox="0 0 50 50"><path d="m5.91748,36.30396c-.06665.10095-.14447.19678-.2334.28564l-3.43378,3.43384-1.71686,1.7168c-.08887.08899-.16669.18481-.23334.28577-.4668.70691-.38892,1.66736.23334,2.28967l5.15076,5.15088c.71118.71118,1.86432.71118,2.57544,0l5.15076-5.15088,1.28772-1.2876,6.43878,6.43848c.35559.35559.82166.53345,1.28772.53345s.93213-.17786,1.28772-.53345c.71118-.71118,1.86426-.71118,2.57544,0,.26672.2666.59552.43335.93988.5s.70428.03345,1.03308-.09985c.21924-.08887.42468-.22229.60248-.40015l2.5755-2.57544,2.57556-2.57532c.43597-.43591,1.03772-.60168,1.60217-.50317.04517.00793.08881.02148.13336.03284.30719.07788.59955.22998.8399.47046l5.15063,5.15063c.1778.17773.38318.31116.60242.40002.43842.17786.93213.17786,1.37054,0,.10962-.04443.21576-.09998.31677-.16663.10095-.06665.19678-.14453.28571-.2334l5.15076-5.15088c.62231-.62231.70007-1.58276.23334-2.28967-.06665-.10095-.14441-.19678-.23334-.28577l-3.21924-3.21924-1.93152-1.9314c-.00006,0-.00012-.00012-.00018-.00024l-1.2876-1.28748.00006-.00012,6.43854-6.43872c.53333-.53345.66663-1.31531.39996-1.9729-.08893-.21924-.22223-.4248-.40002-.60254-.71112-.71118-.71112-1.86426,0-2.57544h.00006c.53333-.53345.66669-1.31531.40002-1.9729-.08887-.21924-.22223-.42468-.40002-.60254l-5.15076-5.15112c-.35559-.35547-.53339-.82153-.53339-1.2876,0-.4447.16687-.88672.49066-1.23535.01556-.01685.02649-.03613.04279-.05249l5.15063-5.15051c.08893-.08899.16669-.18469.23334-.28577.13336-.2019.22229-.42456.26672-.65417.06671-.34436.03326-.70422-.10004-1.03308-.08893-.21924-.22223-.42456-.40002-.60242l-5.15076-5.15076h-.00006c-.08887-.08899-.18469-.16675-.28564-.2334-.6059-.40015-1.39819-.40015-2.00403,0-.10095.06665-.19678.14441-.28571.2334l-5.15076,5.15076c-.71118.71118-1.86426.71118-2.57544.00012L28.86304.53333c-.26666-.26672-.59552-.43335-.93988-.5-.22955-.04443-.46606-.04443-.69562,0-.22955.04456-.45221.13342-.65417.26672-.10095.06665-.19678.14441-.28564.2334h-.00006c-.08887.08887-.18475.16675-.28571.2334-.10101.06665-.20709.12219-.31671.16663-.43842.17786-.93219.17786-1.37061,0-.10962-.04443-.2157-.09998-.31671-.16663-.10095-.06665-.19678-.14453-.28571-.2334-.35559-.35571-.82166-.53345-1.28772-.53345s-.93213.17773-1.28772.53333l-5.15106,5.15076c-.1778.17786-.38318.31128-.60242.40015-.3288.1333-.68872.1665-1.03308.09985s-.67316-.2334-.93982-.5L8.25964.53345c-.1778-.17786-.38318-.31116-.60242-.40015-.3288-.1333-.68872-.16675-1.03308-.09998-.34436.06665-.67322.23328-.93994.50012l-2.57532,2.57532L.53345,5.6842c-.1778.17786-.31116.38318-.40002.60242C.00006,6.61548-.03333,6.97534.03339,7.3197c.06665.34436.2334.67322.50006.93994l5.15076,5.15076c.71124.71118.71124,1.86426.00006,2.57544L.53339,21.13696c-.08887.08887-.16669.18469-.23334.28564-.06671.10107-.12225.20703-.16669.31665-.26672.65771-.13336,1.4397.40009,1.97314.1778.17773.3111.38306.40002.60229.1778.43848.1778.93213,0,1.37061-.08893.21924-.22223.42456-.40002.60242-.53345.53345-.66681,1.31543-.40009,1.97302.08887.21924.22223.42456.40002.60242l5.15076,5.151c.35559.35571.53339.82178.53339,1.28784,0,.23291-.04443.46594-.13336.68518-.04449.10962-.09998.2157-.16669.31677Zm7.49298-12.59155l1.28766-1.28784,7.72656-7.72644-.00006-.00012h-.00006l1.28766-1.2876c.08893-.08887.18475-.16675.28571-.2334.6059-.40015,1.39813-.40015,2.00403,0,.10095.06665.19684.14453.28571.2334l1.28772,1.2876,7.72644,7.72656h.00012l1.28766,1.2876c.1778.17786.3111.3833.40002.60254.1778.43835.1778.93201,0,1.37048-.08893.21924-.22223.42468-.40002.60242l-1.28772,1.28772-7.7265,7.72644.00012.00012-1.28766,1.28772c-.71118.71118-1.86426.71118-2.57544,0l-1.28778-1.28784-7.72644-7.72644-.00006.00012v-.00012l-.00006.00012-1.2876-1.2876c-.08893-.08899-.16675-.18481-.2334-.28577-.20007-.30286-.30005-.65247-.30005-1.00208,0-.46606.17786-.93201.53345-1.2876Z"/></svg>