<?xml version="1.0" encoding="UTF-8"?><svg id="Layer_1" xmlns="http://www.w3.org/2000/svg" viewBox="0 0 50 50"><path d="m30.55957,22.96558l18.3551-12.23114c.68036-.45337,1.08911-1.2168,1.08911-2.03442V2.44342C50.00378,1.09326,48.90924-.00128,47.55902-.00128h-6.25659c-.81757,0-1.58105.40869-2.03436,1.08905l-12.23285,18.35767c-.96759,1.45203-3.10107,1.45209-4.06873.00012L10.73199,1.08765C10.27863.40741,9.5152-.00128,8.69763-.00128H2.44098C1.09076-.00128-.00378,1.09326-.00378,2.44342v6.25653c0,.81763.40875,1.58112,1.08917,2.03448l18.35657,12.23108c1.45221.96759,1.45221,3.10132,0,4.06891L1.08539,39.2655C.40497,39.71887-.00378,40.48236-.00378,41.29999v6.25653c0,1.35016,1.09454,2.4447,2.44476,2.4447h6.25665c.81757,0,1.58099-.40863,2.03436-1.08893l12.2345-18.35785c.96765-1.45197,3.10114-1.4519,4.06873.00012l12.23285,18.3576c.45331.68036,1.2168,1.08905,2.03436,1.08905h6.25659c1.35022,0,2.44476-1.09454,2.44476-2.4447v-6.25659c0-.81757-.40875-1.58105-1.08911-2.03442l-18.3551-12.23114c-1.45209-.96759-1.45209-3.1012,0-4.06879Z"/></svg>