<?xml version="1.0" encoding="UTF-8"?><svg id="Layer_1" xmlns="http://www.w3.org/2000/svg" viewBox="0 0 50 50"><path d="m50,10c0-1.02954-.15637-2.02246-.44537-2.95728-.78229,1.74048-2.52283,2.95728-4.55463,2.95728-2.76141,0-5-2.23853-5-5,0-2.03174,1.2168-3.77234,2.95721-4.55469-.93469-.28882-1.92761-.44531-2.95721-.44531-5.52283,0-10,4.47705-10,10-1.82361,0-3.52795.49597-5,1.34863-1.47205-.85266-3.17639-1.34863-5-1.34863C20,4.47705,15.52283,0,10,0c-1.0296,0-2.02252.15649-2.95721.44531,1.74042.78235,2.95721,2.52295,2.95721,4.55469,0,2.76147-2.23859,5-5,5-2.0318,0-3.77234-1.2168-4.55463-2.95728-.289.93481-.44537,1.92773-.44537,2.95728,0,5.52283,4.47717,10,10,10,0,1.82361.49603,3.52795,1.34875,5-.04565.07886-.09821.1532-.14178.2334-.30786.56677-.56262,1.16663-.75739,1.79297-.19476.62622-.32965,1.27881-.39795,1.95117-.03412.33618-.05164.67725-.05164,1.02246-5.52283,0-10,4.47717-10,10,0,1.02954.15637,2.02246.44537,2.95728.78229-1.74048,2.52283-2.95728,4.55463-2.95728,2.76141,0,5,2.23853,5,5,0,2.03174-1.2168,3.77234-2.95721,4.55469.93469.28894,1.92761.44531,2.95721.44531,5.52283,0,10-4.47717,10-10,1.82361,0,3.52795-.49609,5-1.34875,1.47205.85266,3.17639,1.34875,5,1.34875,0,5.52283,4.47717,10,10,10,1.0296,0,2.02252-.15637,2.95721-.44531-1.74042-.78235-2.95721-2.52295-2.95721-4.55469,0-2.76147,2.23859-5,5-5,2.0318,0,3.77234,1.2168,4.55463,2.95728.289-.93481.44537-1.92773.44537-2.95728,0-5.52295-4.47717-10-10-10,0-1.82361-.49603-3.52795-1.34875-5,.85272-1.47205,1.34875-3.17639,1.34875-5,5.52283,0,10-4.47717,10-10Zm-39.55463,7.04272c-.28088-.62488-.44537-1.31311-.44537-2.04272,0-2.76147,2.23859-5,5-5,.72961,0,1.41785.16455,2.04279.44531,1.11548.50146,2.01044,1.39648,2.51184,2.51196.28088.62488.44537,1.31311.44537,2.04272,0,2.76147-2.23859,5-5,5-.72961,0-1.41785-.16455-2.04279-.44531-1.11548-.50146-2.01044-1.39648-2.51184-2.51196Zm9.10925,20c-.5014,1.11548-1.39636,2.0105-2.51184,2.51196-.62494.28076-1.31317.44531-2.04279.44531-2.76141,0-5-2.23853-5-5,0-.72961.16449-1.41785.44537-2.04272.5014-1.11548,1.39636-2.0105,2.51184-2.51196.62494-.28076,1.31317-.44531,2.04279-.44531,2.76141,0,5,2.23853,5,5,0,.72961-.16449,1.41785-.44537,2.04272Zm10-10c-.5014,1.11548-1.39636,2.0105-2.51184,2.51196-.62494.28076-1.31317.44531-2.04279.44531s-1.41785-.16455-2.04279-.44531c-1.11548-.50146-2.01044-1.39648-2.51184-2.51196-.28088-.62488-.44537-1.31311-.44537-2.04272s.16449-1.41785.44537-2.04272c.5014-1.11548,1.39636-2.0105,2.51184-2.51196.62494-.28076,1.31317-.44531,2.04279-.44531s1.41785.16455,2.04279.44531c1.11548.50146,2.01044,1.39648,2.51184,2.51196.28088.62488.44537,1.31311.44537,2.04272s-.16449,1.41785-.44537,2.04272Zm10,5.91455c.28088.62488.44537,1.31311.44537,2.04272,0,2.76147-2.23859,5-5,5-.72961,0-1.41785-.16455-2.04279-.44531-1.11548-.50146-2.01044-1.39648-2.51184-2.51196-.28088-.62488-.44537-1.31311-.44537-2.04272,0-2.76147,2.23859-5,5-5,.72961,0,1.41785.16455,2.04279.44531,1.11548.50146,2.01044,1.39648,2.51184,2.51196Zm-2.51184-13.40259c-.62494.28076-1.31317.44531-2.04279.44531-2.76141,0-5-2.23853-5-5,0-.72961.16449-1.41785.44537-2.04272.5014-1.11548,1.39636-2.0105,2.51184-2.51196.62494-.28076,1.31317-.44531,2.04279-.44531.69037,0,1.34802.13989,1.94623.39294,1.19635.50598,2.15479,1.46448,2.66083,2.66077.25299.59827.39294,1.25586.39294,1.94629,0,.72961-.16449,1.41785-.44537,2.04272-.5014,1.11548-1.39636,2.0105-2.51184,2.51196Z"/></svg>