<?xml version="1.0" encoding="UTF-8"?><svg id="Layer_1" xmlns="http://www.w3.org/2000/svg" viewBox="0 0 50 50"><path d="m14.53986,39.34668c.72205.13055,1.46198.09393,2.19812-.1145,1.56812-.44366,2.81879-1.69348,3.26294-3.26202.22064-.77979.25165-1.56195.09106-2.32397-.22064-1.05304.08734-2.12299.82446-2.86243l.06757-.06805c.60095-.59955,1.3512-1.07043,2.22913-1.39954.66949-.24976,1.38873-.41315,2.1521-.48737l.09674-.01404c.12207-.01459.24316-.03149.37091-.0592l.21124-.05914c.10797-.02911.21594-.05963.32208-.09998l.11267-.05072c.12769-.05402.25446-.10986.37842-.17792.05823-.0329.11456-.06903.24225-.15399.06946-.04321.13898-.08783.21692-.14557.04785-.03705.09479-.07794.20563-.17603.06573-.05493.13141-.11084.19531-.17419.11267-.11267.21594-.23383.28357-.32257l.07037-.08447c.06293-.08356.11926-.1723.20099-.30237l.09387-.14929c.04041-.07367.07605-.15021.13989-.29388.03192-.06433.06293-.12866.09296-.20703.02539-.06671.04602-.13617.06482-.20563l.02814-.09296c.0235-.07422.04602-.14886.06293-.2254.03473-.1582.05823-.31451.07324-.46991.12018-1.25684.54364-3.03619,1.88171-4.37469.76898-.76898,1.88635-1.08545,3.06012-.87323.72205.13049,1.46198.09296,2.19812-.11456,1.56805-.44366,2.81879-1.69342,3.26294-3.26196.20844-.73712.24695-1.47797.1145-2.20142-.21313-1.17468.10516-2.28973.87421-3.05872.4826-.48309,1.22064-.62347,1.88074-.3559.99066.40192,2.07983.51361,3.15588.32446,2.39722-.42493,4.32117-2.3996,4.67798-4.80145.27325-1.84369-.31927-3.65027-1.62445-4.95587-1.30609-1.30615-3.11169-1.89954-4.95587-1.62537-2.40186.35681-4.37653,2.27979-4.80188,4.67841-.1897,1.07324-.07794,2.16479.32391,3.15637.26666.65729.12775,1.39435-.35864,1.88214-.76996.76624-1.87891,1.08405-3.05731.87091-.72394-.13098-1.46289-.09344-2.1972.11456-1.56903.44269-2.8197,1.6925-3.26385,3.26196-.22064.77936-.25165,1.56104-.09106,2.32397.22064,1.05255-.08734,2.12256-.82257,2.86102l-.06946.06952c-.61224.61029-1.3775,1.08685-2.27515,1.41547-.6535.23993-1.3559.39764-2.10516.47137-.06482.0061-.12958.01691-.27325.04083-.06293.008-.12488.0174-.19623.03241-.09766.02161-.1925.05115-.34839.10095l-.17932.05676c-.12115.04602-.23755.10284-.35962.16437l-.14178.06897c-.07324.04132-.14368.08783-.28076.18079-.05634.03424-.11267.07043-.17279.11597l-.20465.17419c-.06671.05536-.13239.11169-.19629.17554-.06567.06531-.12579.13525-.23944.27094l-.11737.13898c-.05255.07037-.10046.14502-.19342.29291l-.09668.15356c-.04132.07367-.07703.15161-.14178.2962-.03192.06433-.06293.12866-.09296.20709-.02539.06665-.04602.13611-.06482.20563l-.02814.09296c-.0235.07416-.04602.1488-.06293.22534-.03473.1582-.05823.31458-.07324.46997-.12018,1.25677-.54364,3.03613-1.88171,4.37415-.76898.76855-1.88263,1.08783-3.06012.87372-.72205-.13098-1.46198-.09338-2.19812.11456-1.56805.44366-2.81879,1.69342-3.26294,3.26202-.20844.73706-.24786,1.47791-.1145,2.20093.21313,1.17511-.10516,2.29016-.87421,3.05914-.4826.48315-1.22162.62347-1.87982.3559-.9906-.40094-2.07983-.51459-3.1568-.3244-2.39722.42487-4.32117,2.39954-4.67798,4.80139-.27325,1.84369.31927,3.65027,1.62445,4.95593,1.09668,1.09717,2.54645,1.69061,4.07605,1.69061.29108,0,.58496-.02161.87982-.06525,2.40186-.35681,4.37653-2.27985,4.80188-4.67847.1897-1.07324.07794-2.16479-.32391-3.15631-.26666-.65729-.12775-1.39484.35864-1.8822.76904-.76715,1.87701-1.08685,3.05731-.87091Zm12.4975-12.30872l.00024.00024-.00024-.00018v-.00006Zm-.30609.26666l.00018.00024-.00024-.00024h.00006Zm-2.34033-5.12329h-.00012l-.00018-.00092.00031.00092Zm-1.42828.78094v.00006l-.00024-.00024.00024.00018Z"/><path d="m16.09198,10.6311l-.07233-.008c-.25726-.0343-.53802-.04791-.82721-.03381l-.20941.0141c-.35583.03003-.6582.08264-.95209.16522-.92865.26294-1.78217.83289-2.40283,1.60614-.04413.05542-.08545.11267-.15308.20801-.21124.29578-.37555.58167-.49951.86902-.0235.05255-.04321.10657-.07324.19482-.04974.1272-.09766.25488-.13336.38403-.08258.29248-.13708.60419-.1662.95819-.00562.07135-.01123.14178-.01312.20331-.01312.3089-.00092.59064.03381.83051l.01221.10046c.1925,1.21783-.11646,2.3653-.79529,3.09534-.5437.49811-1.35779.63519-2.13336.354-.93616-.34131-1.96057-.42816-2.96436-.25024-2.39716.42487-4.32019,2.39954-4.677,4.80188-.27325,1.84369.31927,3.65027,1.62537,4.95593,1.09674,1.09625,2.54651,1.68964,4.07422,1.68964.29199,0,.58588-.02161.88074-.06525,2.40186-.35583,4.37653-2.27936,4.80188-4.677.1803-1.01459.09576-2.01129-.24976-2.96478-.28076-.77142-.14557-1.58875.30139-2.08032.78217-.73096,1.92682-1.04083,3.17847-.8432l.07227.008c.25726.03381.53522.04553.82721.03381l.20941-.0141c.3559-.03003.6582-.08264.95117-.16528.76904-.21735,1.47888-.63611,2.10706-1.26947.32678-.33899.60284-.72815.81879-1.1535.10425-.2038.1925-.41504.27606-.66058.02441-.06195.04694-.12439.06104-.17841.08264-.28967.13519-.59155.1662-.95306.00562-.07275.01129-.14551.01312-.20892.01318-.3089.00098-.59058-.03375-.83002l-.01221-.10052c-.1925-1.21783.11639-2.36523.79529-3.09528.54462-.49768,1.3587-.63525,2.13336-.354.93707.3418,1.95959.42767,2.96429.25024,2.39722-.42584,4.32019-2.40002,4.677-4.80188.27325-1.84369-.31921-3.65027-1.62531-4.95593-1.30615-1.30518-3.11273-1.89813-4.95496-1.62439-2.40192.35583-4.37659,2.27936-4.80194,4.677-.18024,1.01453-.09576,2.01129.24976,2.96478.28076.77136.14557,1.58875-.30139,2.08032-.78308.73096-1.92865,1.03943-3.17841.8432Z"/><circle cx="5.76985" cy="5.77002" r="5.769" transform="translate(-.84975 .99874) rotate(-9.2175)"/><circle cx="44.23015" cy="44.23029" r="5.769" transform="translate(-6.5138 7.65603) rotate(-9.2175)"/><path d="m33.90802,39.36926l.07233.00793c.25629.03339.53613.04651.82721.03381l.20941-.0141c.35583-.03003.6582-.08258.95117-.16522.76898-.21741,1.47888-.63617,2.10706-1.26947.32672-.33899.60278-.72821.81879-1.15356.10419-.20374.19244-.41504.27606-.66058.02441-.06195.04694-.12439.06104-.17841.08258-.28967.13519-.59155.1662-.953.00562-.07281.01123-.14557.01312-.20892.01312-.29816.00189-.57043-.03381-.83099l-.01221-.09955c-.1925-1.21783.11646-2.3653.79529-3.09534.5437-.49811,1.3587-.63428,2.13336-.354.93616.34137,1.95966.42865,2.96436.25024,2.39716-.42578,4.32019-2.39996,4.677-4.80188.27325-1.84369-.31927-3.65027-1.62537-4.95587-1.30609-1.30475-3.11267-1.89771-4.95496-1.62445-2.40186.3559-4.37653,2.27936-4.80188,4.677-.1803,1.01459-.09576,2.01129.24976,2.96484.28076.77136.14557,1.58875-.30139,2.08026-.78314.73053-1.93054,1.04041-3.17847.8432l-.07227-.008c-.25824-.03424-.53613-.04694-.82721-.03375l-.20941.01404c-.3559.03009-.6582.08264-.95215.16528-.92865.26288-1.78217.83289-2.40283,1.60608-.04413.05542-.08545.11273-.15302.20801-.2113.29578-.37561.58167-.49957.86902-.02344.05261-.04315.10657-.07318.19482-.0498.12726-.09766.25494-.13336.38403-.08264.29248-.13708.60425-.1662.95825-.00562.07135-.01129.14178-.01312.20325-.01318.30896-.00098.59064.03375.83057l.01221.10046c.1925,1.21783-.11639,2.36523-.79529,3.09534-.54364.49854-1.35773.63611-2.13336.35394-.93616-.34131-1.95959-.42767-2.96429-.25024-2.39722.42493-4.32019,2.3996-4.677,4.80194-.27325,1.84363.31921,3.65021,1.62531,4.95587,1.09674,1.09625,2.54651,1.6897,4.07513,1.6897.29114,0,.58502-.02161.87982-.06525,2.40192-.3559,4.37659-2.27936,4.80194-4.67706.18024-1.01453.09576-2.01123-.24976-2.96478-.28076-.77136-.14557-1.58875.30139-2.08026.78308-.73102,1.92767-1.0423,3.17841-.8432Z"/></svg>