<?xml version="1.0" encoding="UTF-8"?><svg id="Layer_1" xmlns="http://www.w3.org/2000/svg" viewBox="0 0 50 50"><path d="m40,20h5c2.76141,0,5-2.23853,5-5V5c0-2.76147-2.23859-5-5-5h-10c-2.76141,0-5,2.23853-5,5v5c0,2.76147-2.23859,5-5,5s-5-2.23853-5-5v-5c0-2.76147-2.23859-5-5-5H5C2.23859,0,0,2.23853,0,5v10c0,2.76147,2.23859,5,5,5h5c2.76141,0,5,2.23853,5,5s-2.23859,5-5,5h-5c-2.76141,0-5,2.23853-5,5v10c0,2.76147,2.23859,5,5,5h10c2.76141,0,5-2.23853,5-5v-5c0-2.76147,2.23859-5,5-5s5,2.23853,5,5v5c0,2.76147,2.23859,5,5,5h10c2.76141,0,5-2.23853,5-5v-10c0-2.76147-2.23859-5-5-5h-5c-2.76141,0-5-2.23853-5-5s2.23859-5,5-5Zm-30,25c-2.76141,0-5-2.23853-5-5s2.23859-5,5-5,5,2.23853,5,5-2.23859,5-5,5Zm0-30c-2.76141,0-5-2.23853-5-5s2.23859-5,5-5,5,2.23853,5,5-2.23859,5-5,5Zm15,15c-2.76141,0-5-2.23853-5-5s2.23859-5,5-5,5,2.23853,5,5-2.23859,5-5,5Zm15,5c2.76141,0,5,2.23853,5,5s-2.23859,5-5,5-5-2.23853-5-5,2.23859-5,5-5Zm0-30c2.76141,0,5,2.23853,5,5s-2.23859,5-5,5-5-2.23853-5-5,2.23859-5,5-5Z"/></svg>