<?xml version="1.0" encoding="UTF-8"?><svg id="Layer_1" xmlns="http://www.w3.org/2000/svg" viewBox="0 0 50 50"><path d="m37.5,50c3.68243,0,6.9458-1.62561,9.2204-4.16669h-18.4408c2.2746,2.54108,5.53796,4.16669,9.2204,4.16669Z"/><path d="m12.5,50c3.68243,0,6.9458-1.62561,9.2204-4.16669H3.2796c2.2746,2.54108,5.53796,4.16669,9.2204,4.16669Z"/><circle cx="37.5" cy="25" r="12.5"/><path d="m37.5,45.83331c5.43414,0,10.01178-3.4892,11.73505-8.33331h-23.47009c1.72327,4.84412,6.3009,8.33331,11.73505,8.33331Z"/><path d="m12.5,45.83331c5.43414,0,10.01178-3.4892,11.73505-8.33331H.76495c1.72327,4.84412,6.3009,8.33331,11.73505,8.33331Z"/><circle cx="12.5" cy="25" r="12.5"/><path d="m12.5,4.16669C7.06586,4.16669,2.48822,7.65582.76495,12.5h23.47009c-1.72327-4.84418-6.3009-8.33331-11.73505-8.33331Z"/><path d="m12.5,0c-3.68243,0-6.9458,1.62555-9.2204,4.16669h18.4408C19.4458,1.62555,16.18243,0,12.5,0Z"/><path d="m37.5,4.16663c-5.43414,0-10.01178,3.4892-11.73505,8.33337h23.47009c-1.72327-4.84418-6.3009-8.33337-11.73505-8.33337Z"/><path d="m37.5,0c-3.68243,0-6.9458,1.62555-9.2204,4.16663h18.4408c-2.2746-2.54108-5.53796-4.16663-9.2204-4.16663Z"/></svg>