<?xml version="1.0" encoding="UTF-8"?><svg id="Layer_1" xmlns="http://www.w3.org/2000/svg" viewBox="0 0 50 50"><path d="m10,20c5.52283,0,10-4.47717,10-10S15.52283,0,10,0c-.36115,0-.71722.0213-1.06848.05865,3.9787.46216,7.06848,3.83868,7.06848,7.94135,0,4.41827-3.58173,8-8,8C3.89734,16,.52081,12.91022.05865,8.93152c-.03735.35126-.05865.70734-.05865,1.06848,0,5.52283,4.47717,10,10,10Z"/><path d="m.26227,7.75494c.75067,2.45721,3.03479,4.24506,5.73773,4.24506,3.31372,0,6-2.68628,6-6,0-2.70294-1.78784-4.98706-4.24506-5.73773-.26642-.08136-.54254-.13885-.8233-.18274-.30438-.04755-.61395-.07953-.93164-.07953-.38013,0-.75067.03937-1.11115.10693.25922.05902.50793.14264.74536.24933.22821.1026.44574.22357.64886.3653,1.03583.7229,1.71692,1.91949,1.71692,3.27844,0,2.20911-1.79083,4-4,4-1.35895,0-2.55548-.68109-3.27838-1.71698-.14172-.20306-.26276-.42059-.36536-.6488-.10669-.23743-.19031-.48615-.24933-.74536-.06757.36047-.10693.73102-.10693,1.11115,0,.31769.03198.62726.07953.93164.04388.28076.10138.55688.18274.8233Z"/><path d="m.59033,3.41791c.17065.16968.37317.30615.59583.40576.24908.11139.52332.17633.81384.17633.00507,0,.00964-.0014.01471-.00146,1.09247-.00806,1.97577-.89136,1.98383-1.98383.00006-.00507.00146-.00964.00146-.01471,0-.29053-.06494-.56476-.17633-.81384-.09961-.22266-.23608-.42517-.40576-.59583-.16528-.16626-.36212-.29919-.57727-.39941-.25629-.11938-.53925-.19092-.84064-.19092C.89545,0,0,.89545,0,2c0,.30139.07153.58435.19092.84064.10022.21515.23315.41199.39941.57727Z"/><path d="m30,10c0,5.52283,4.47717,10,10,10s10-4.47717,10-10c0-.36115-.0213-.71722-.05865-1.06848-.46216,3.9787-3.83868,7.06848-7.94135,7.06848-4.41827,0-8-3.58173-8-8,0-4.10266,3.08978-7.47919,7.06848-7.94135-.35126-.03735-.70734-.05865-1.06848-.05865-5.52283,0-10,4.47717-10,10Z"/><path d="m43.71692.72156c.20319-.14172.42059-.2627.6488-.3653.23743-.10669.48621-.19031.74542-.24933-.36047-.06757-.73102-.10693-1.11115-.10693-.31769,0-.62726.03198-.93164.07953-.28076.04388-.55688.10138-.8233.18274-2.45721.75067-4.24506,3.03479-4.24506,5.73773,0,3.31372,2.68628,6,6,6,2.70294,0,4.98706-1.78784,5.73773-4.24506.08136-.26642.13885-.5426.18274-.8233.04755-.30438.07953-.61395.07953-.93164,0-.38013-.03937-.75067-.10693-1.11115-.05902.25922-.14264.50793-.24933.74536-.1026.22821-.22357.44574-.3653.64886-.7229,1.03583-1.91949,1.71692-3.27844,1.71692-2.20917,0-4-1.79089-4-4,0-1.35895.68109-2.55554,1.71692-3.27844Z"/><path d="m47.98529,3.99854c.005.00006.0097.00146.01471.00146.29053,0,.56476-.06494.81384-.17633.22266-.09961.42517-.23608.59583-.40576.16626-.16528.29919-.36212.39941-.57727.11938-.25629.19092-.53925.19092-.84064,0-1.10455-.89545-2-2-2-.30139,0-.58435.07153-.84064.19092-.21515.10022-.41199.23315-.57727.39941-.16968.17065-.30615.37317-.40576.59583-.11139.24908-.17633.52332-.17633.81384,0,.00507.0014.00964.00146.01471.00806,1.09253.89117,1.97577,1.98383,1.98383Z"/><path d="m40,50c.36115,0,.71722-.0213,1.06848-.05865-3.9787-.46216-7.06848-3.83868-7.06848-7.94135,0-4.41827,3.58173-8,8-8,4.10266,0,7.47919,3.08978,7.94135,7.06848.03735-.35126.05865-.70734.05865-1.06848,0-5.52289-4.47717-10-10-10s-10,4.47717-10,10,4.47717,10,10,10Z"/><path d="m49.92047,43.06836c-.04388-.28076-.10138-.55688-.18274-.8233-.75067-2.45721-3.03479-4.24506-5.73773-4.24506-3.31372,0-6,2.68628-6,6,0,2.70294,1.78784,4.98706,4.24506,5.73773.26642.08136.54254.13885.8233.18274.30438.04755.61395.07953.93164.07953.38013,0,.75067-.03937,1.11115-.10693-.25922-.05902-.50793-.14264-.74536-.24933-.22821-.1026-.44574-.22363-.6488-.36536-1.03589-.7229-1.71698-1.91943-1.71698-3.27838,0-2.20917,1.79083-4,4-4,1.35895,0,2.55548.68109,3.27838,1.71698.14172.20312.26276.42047.36536.64874.10669.23737.19031.48621.24933.74542.06757-.36047.10693-.73102.10693-1.11115,0-.31769-.03198-.62726-.07953-.93164Z"/><path d="m49.40973,46.58203c-.17065-.16968-.37323-.30615-.59589-.4057-.24908-.11139-.52332-.17633-.81384-.17633-.00507,0-.00964.0014-.01471.00146-1.09247.00806-1.97577.8913-1.98383,1.98383-.00006.00507-.00146.00964-.00146.01471,0,.29053.06494.56476.17633.81384.09961.22266.23608.42517.40576.59583.16528.16626.36212.29919.57727.39941.25629.11938.53925.19092.84064.19092,1.10455,0,2-.89545,2-2,0-.30139-.07153-.58429-.19092-.84064-.10022-.21515-.23309-.41205-.39935-.57733Z"/><path d="m8,34c4.41827,0,8,3.58173,8,8,0,4.10266-3.08978,7.47919-7.06848,7.94135.35126.03735.70734.05865,1.06848.05865,5.52283,0,10-4.47717,10-10s-4.47717-10-10-10S0,34.47717,0,40c0,.36115.0213.71722.05865,1.06848.46216-3.9787,3.83868-7.06848,7.94135-7.06848Z"/><path d="m.35626,44.36572c.1026-.22821.22357-.44562.3653-.6488.7229-1.03583,1.91949-1.71692,3.27844-1.71692,2.20917,0,4,1.79083,4,4,0,1.35895-.68109,2.55548-1.71698,3.27838-.20312.14172-.42047.26276-.64874.36536-.23737.10669-.48621.19031-.74542.24933.36047.06757.73102.10693,1.11115.10693.31769,0,.62726-.03198.93164-.07953.28076-.04388.55688-.10138.8233-.18274,2.45721-.75067,4.24506-3.03479,4.24506-5.73773,0-3.31372-2.68628-6-6-6-2.70294,0-4.98706,1.78784-5.73773,4.24506-.08136.26642-.13885.54254-.18274.8233-.04755.30438-.07953.61395-.07953.93164,0,.38013.03937.75067.10693,1.11115.05902-.25922.14264-.508.24933-.74542Z"/><path d="m2,50c.30139,0,.58435-.07153.84064-.19092.21515-.10022.41199-.23315.57727-.39941.16968-.17065.30615-.37317.40576-.59583.11139-.24908.17633-.52332.17633-.81384,0-.00507-.0014-.00964-.00146-.01471-.00806-1.09247-.89136-1.97577-1.98383-1.98383-.00507-.00006-.00964-.00146-.01471-.00146-.29053,0-.56476.06494-.81384.17633-.22266.09961-.42517.23608-.59583.40576-.16626.16528-.29919.36212-.39941.57727-.11938.25629-.19092.53925-.19092.84064,0,1.10455.89545,2,2,2Z"/></svg>